<svg width="200" height="38" xmlns="http://www.w3.org/2000/svg" xml:space="preserve" fill-rule="evenodd" stroke-linejoin="round" stroke-miterlimit="2" clip-rule="evenodd" viewBox="0 0 200 38"><path fill="#8168f0" d="m81.44 8.16 8.91 21.66h-4.11l-2.08-5.14h-9.93l-2.04 5.14h-3.92l8.78-21.66h4.4Zm-5.81 12.96h7.11l-3.55-8.88-3.56 8.88Zm33.19-9.4H97.28v18.1H93.4V8.16h19.27v21.66h-3.86v-18.1Zm25.44 0h-7.3v18.1h-3.86v-18.1h-7.18V8.17h18.34v3.55Zm17.08 8.72h-9.96v5.82h11.44v3.56h-15.3V8.16h14.96v3.56h-11.1v5.16h9.96v3.56Zm-86.34 0h-9.96v5.82h11.44v3.56h-15.3V8.16h14.96v3.56h-11.1v5.16H65v3.56Zm96.29 9.38h-3.87V8.16h3.87v9.1h3.24l6.96-9.1h4.7l-8.26 10.3 9.6 11.36h-4.95l-7.86-9.37h-3.43v9.37Zm29.8-21.66 8.9 21.66h-4.11l-2.08-5.14h-9.93l-2.04 5.14h-3.92l8.78-21.66h4.4Zm-5.82 12.97h7.11l-3.55-8.88-3.56 8.88ZM32.43 12.07h.7a4.28 4.28 0 0 1 4.26 4.29v5.26a4.28 4.28 0 0 1-4.27 4.3h-5.6c-1.32 0-1.95.67-1.95 1.96v5.62a4.28 4.28 0 0 1-4.27 4.3h-5.24a4.28 4.28 0 0 1-4.26-4.3v-5.6c0-1.4-.69-1.97-1.97-1.97H4.27A4.3 4.3 0 0 1 0 21.62v-5.27a4.28 4.28 0 0 1 4.27-4.28h5.58c1.24 0 1.97-.7 1.97-2V4.49a4.28 4.28 0 0 1 4.27-4.3h5.24a4.28 4.28 0 0 1 4.26 4.3v5.59c0 1.36.5 2 1.93 2h.98l-2.87 3.94a4.32 4.32 0 0 1-3.96-4.29v-5.6c0-1.36-.52-1.99-1.98-1.99H17.7c-1.24 0-1.96.67-1.96 2v5.6a4.28 4.28 0 0 1-4.26 4.28H5.9c-1.43 0-1.97.95-1.97 2V20c0 1.19.71 1.98 1.95 1.98h5.6a4.28 4.28 0 0 1 4.26 4.29v5.6c0 1.28.63 1.99 1.94 1.99h2c1.24 0 1.98-.76 1.98-2v-5.6a4.28 4.28 0 0 1 4.27-4.28h5.6c1.34 0 1.95-.7 1.95-2V18c0-1.36-.71-1.98-2-1.98h-1.93l2.88-3.94Z"/><clipPath id="a"><path d="M32.43 12.08h.7a4.28 4.28 0 0 1 4.26 4.29v5.26a4.28 4.28 0 0 1-4.27 4.3h-5.6c-1.32 0-1.95.67-1.95 1.96v5.62a4.28 4.28 0 0 1-4.26 4.3h-5.25a4.28 4.28 0 0 1-4.26-4.3V27.9c0-1.4-.69-1.97-1.97-1.97H4.27A4.3 4.3 0 0 1 0 21.62v-5.27a4.28 4.28 0 0 1 4.27-4.28h5.58c1.24 0 1.97-.7 1.97-2V4.49a4.28 4.28 0 0 1 4.27-4.3h5.24a4.28 4.28 0 0 1 4.27 4.3v5.59c0 1.36.5 2 1.92 2h.98l-2.87 3.94a4.32 4.32 0 0 1-3.96-4.29v-5.6c0-1.36-.52-1.99-1.98-1.99H17.7c-1.24 0-1.96.67-1.96 2v5.6a4.28 4.28 0 0 1-4.26 4.28H5.9c-1.43 0-1.97.95-1.97 2V20c0 1.19.71 1.98 1.95 1.98h5.6a4.28 4.28 0 0 1 4.26 4.29v5.6c0 1.28.63 1.99 1.94 1.99h2c1.24 0 1.98-.76 1.98-2v-5.6a4.28 4.28 0 0 1 4.27-4.28h5.6c1.34 0 1.95-.7 1.95-2V18c0-1.36-.71-1.98-2-1.98h-1.93l2.88-3.94Z" clip-rule="nonzero"/></clipPath><g clip-path="url(#a)"><path fill="url(#b)" d="M15.65 22.63c14.03 7.98 21.42 21.5 16.5 30.15-4.93 8.66-20.32 9.2-34.35 1.22-14.03-7.98-21.43-21.5-16.5-30.15 4.93-8.66 20.32-9.2 34.35-1.22Z"/><path fill="url(#c)" d="M34.05-12.33c15.2 8.7 23.84 22.25 19.27 30.25-4.57 8.01-20.63 7.46-35.84-1.23C2.27 7.99-6.37-5.56-1.8-13.56c4.58-8 20.64-7.46 35.85 1.23Z"/><path fill="url(#d)" d="M52.95-26.65C77.56-21.75 95.52-7.55 93 5.03 90.51 17.6 68.5 23.85 43.87 18.96 19.26 14.05 1.31-.15 3.81-12.73c2.5-12.59 24.52-18.83 49.14-13.93Z"/></g><defs><radialGradient id="b" cx="0" cy="0" r="1" gradientTransform="matrix(-9 15.7 -25.4 -14.5 6.72 38.32)" gradientUnits="userSpaceOnUse"><stop offset="0" stop-color="#ff1f78"/><stop offset="1" stop-color="#ff1f78" stop-opacity="0"/></radialGradient><radialGradient id="c" cx="0" cy="0" r="1" gradientTransform="matrix(-8.3 14.5 -27.6 -15.7 25.76 2.18)" gradientUnits="userSpaceOnUse"><stop offset="0" stop-color="#4ad6fc"/><stop offset="1" stop-color="#4ad6fc" stop-opacity="0"/></radialGradient><radialGradient id="d" cx="0" cy="0" r="1" gradientTransform="matrix(-4.5 22.8 -44.6 -8.9 48.41 -3.85)" gradientUnits="userSpaceOnUse"><stop offset="0" stop-color="#fff"/><stop offset="1" stop-color="#fff" stop-opacity="0"/></radialGradient></defs></svg>