<svg width="134" height="88" viewBox="0 0 134 88" fill="none" xmlns="http://www.w3.org/2000/svg">
<path d="M0.474609 4.85467C0.474609 2.17556 3.76032 0 7.80655 0H126.048C130.094 0 133.38 2.17556 133.38 4.85467V83.1453C133.378 84.4325 132.605 85.6665 131.23 86.5767C129.856 87.4868 127.992 87.9987 126.048 88H7.80655C5.862 88 3.99709 87.4885 2.62209 86.5781C1.24708 85.6677 0.474609 84.4329 0.474609 83.1453V4.85467ZM56.7526 26.4733C56.3082 26.277 55.7918 26.1642 55.2582 26.1469C54.7247 26.1295 54.194 26.2083 53.7227 26.3749C53.2514 26.5414 52.8572 26.7895 52.582 27.0927C52.3068 27.3958 52.161 27.7427 52.16 28.0964V59.9036C52.161 60.2573 52.3068 60.6042 52.582 60.9073C52.8572 61.2105 53.2514 61.4586 53.7227 61.6251C54.194 61.7917 54.7247 61.8705 55.2582 61.8531C55.7918 61.8358 56.3082 61.723 56.7526 61.5267L92.7773 45.628C93.1824 45.4495 93.5147 45.2075 93.7445 44.9234C93.9742 44.6394 94.0945 44.3222 94.0945 44C94.0945 43.6778 93.9742 43.3606 93.7445 43.0766C93.5147 42.7925 93.1824 42.5505 92.7773 42.372L56.7526 26.4733Z" fill="#0FA6BD"/>
</svg>
