<svg width="1202" height="38" viewBox="0 0 1202 38" fill="none" xmlns="http://www.w3.org/2000/svg">
<path d="M1186.01 30.9109V0.520752H1187.91L1193.81 15.0212L1199.72 0.520752H1201.6V30.9109H1199.7V5.86074L1194.41 18.7983H1193.24L1187.91 5.86074V30.9109H1186.01Z" fill="white"/>
<path d="M1173.63 0C1178.44 0 1182.06 6.77266 1182.06 15.7161C1182.06 24.6594 1178.44 31.4321 1173.63 31.4321C1168.85 31.4321 1165.23 24.6594 1165.23 15.7161C1165.23 6.77266 1168.85 0 1173.63 0ZM1173.63 28.1326C1177.25 28.1326 1180.08 22.836 1180.08 15.7161C1180.08 8.59607 1177.25 3.2995 1173.63 3.2995C1170.04 3.2995 1167.2 8.59607 1167.2 15.7161C1167.2 22.836 1170.04 28.1326 1173.63 28.1326Z" fill="white"/>
<path d="M1156.44 30.9109V3.73343H1150.75V0.520752H1164.13V3.73343H1158.39V30.9109H1156.44Z" fill="white"/>
<path d="M1143.71 31.4321C1138.86 31.4321 1135.12 24.9633 1135.12 15.7161C1135.12 6.55559 1138.83 0 1143.71 0C1145.5 0 1147.02 0.694631 1148.36 2.21414V5.81754C1147.02 4.21121 1145.59 3.2995 1143.74 3.2995C1140 3.2995 1137.09 8.55266 1137.09 15.7161C1137.09 22.9663 1140.02 28.1326 1143.81 28.1326C1145.71 28.1326 1147.33 27.1775 1148.71 25.1804V28.7838C1147.38 30.5204 1145.66 31.4321 1143.71 31.4321Z" fill="white"/>
<path d="M1117.51 30.9109V0.520752H1119.41V25.0065L1129.53 0.520752H1131.22V30.9109H1129.32V6.3383L1119.13 30.9109H1117.51Z" fill="white"/>
<path d="M1111 3.73343H1104.26L1104.19 10.5929C1104.05 23.5739 1103.09 30.9543 1098.9 30.9543C1098.62 30.9543 1098.33 30.9109 1098.17 30.8675V27.6548C1098.38 27.7417 1098.67 27.7851 1098.88 27.7851C1101.83 27.7851 1102.24 19.7534 1102.33 7.98805L1102.38 0.520752H1112.93V30.9109H1111V3.73343Z" fill="white"/>
<path d="M1080.57 30.911L1087.98 0.347168H1089.81L1097.22 30.911H1095.17L1093.14 22.7056H1084.57L1082.6 30.911H1080.57ZM1085.24 19.5798H1092.53L1088.88 4.77545L1085.24 19.5798Z" fill="white"/>
<path d="M1063.92 30.9109V0.520752H1065.82V25.0065L1075.94 0.520752H1077.63V30.9109H1075.73V6.3383L1065.54 30.9109H1063.92Z" fill="white"/>
<path d="M1059.06 37.6402V30.9109H1045.32V0.520752H1047.25V27.6982H1056.41V0.520752H1058.36V27.6982H1060.84V37.6402H1059.06Z" fill="white"/>
<path d="M1030.09 30.9109V0.520752H1041.59V3.73343H1032.02V13.0241H1039.85V16.2368H1032.02V27.6982H1041.95V30.9109H1030.09Z" fill="white"/>
<path d="M1012.33 30.9109V0.520752H1025.49V30.9109H1023.54V3.73343H1014.25V30.9109H1012.33Z" fill="white"/>
<path d="M1003.82 31.4321C998.959 31.4321 995.221 24.9633 995.221 15.7161C995.221 6.55559 998.935 0 1003.82 0C1005.6 0 1007.12 0.694631 1008.46 2.21414V5.81754C1007.12 4.21121 1005.7 3.2995 1003.84 3.2995C1000.1 3.2995 997.197 8.55266 997.197 15.7161C997.197 22.9663 1000.13 28.1326 1003.91 28.1326C1005.82 28.1326 1007.43 27.1775 1008.82 25.1804V28.7838C1007.48 30.5204 1005.77 31.4321 1003.82 31.4321Z" fill="white"/>
<path d="M977.282 0C982.092 0 985.71 6.77266 985.71 15.7161C985.71 24.6594 982.092 31.4321 977.282 31.4321C972.497 31.4321 968.878 24.6594 968.878 15.7161C968.878 6.77266 972.497 0 977.282 0ZM977.282 28.1326C980.901 28.1326 983.734 22.836 983.734 15.7161C983.734 8.59607 980.901 3.2995 977.282 3.2995C973.687 3.2995 970.854 8.59607 970.854 15.7161C970.854 22.836 973.687 28.1326 977.282 28.1326Z" fill="white"/>
<path d="M961.477 31.4321C956.62 31.4321 952.882 24.9633 952.882 15.7161C952.882 6.55559 956.596 0 961.477 0C963.262 0 964.786 0.694631 966.119 2.21414V5.81754C964.786 4.21121 963.358 3.2995 961.5 3.2995C957.763 3.2995 954.858 8.55266 954.858 15.7161C954.858 22.9663 957.786 28.1326 961.572 28.1326C963.477 28.1326 965.095 27.1775 966.476 25.1804V28.7838C965.143 30.5204 963.429 31.4321 961.477 31.4321Z" fill="white"/>
<path d="M928.43 30.9109L933.811 17.0617C931.287 16.1934 929.906 13.111 929.906 8.85634C929.906 3.90708 931.835 0.520752 935.216 0.520752H942.715V30.9109H940.787V17.409H935.93L930.716 30.9109H928.43ZM935.335 14.2397H940.787V3.73343H935.335C933.12 3.73343 931.835 5.64367 931.835 8.98658C931.835 12.3729 933.12 14.2397 935.335 14.2397Z" fill="white"/>
<path d="M921.277 31.4321C916.42 31.4321 912.682 24.9633 912.682 15.7161C912.682 6.55559 916.396 0 921.277 0C923.063 0 924.586 0.694631 925.92 2.21414V5.81754C924.586 4.21121 923.158 3.2995 921.301 3.2995C917.563 3.2995 914.658 8.55266 914.658 15.7161C914.658 22.9663 917.587 28.1326 921.372 28.1326C923.277 28.1326 924.896 27.1775 926.277 25.1804V28.7838C924.943 30.5204 923.229 31.4321 921.277 31.4321Z" fill="white"/>
<path d="M897.19 30.9109V0.520752H899.119V11.6783H903.952C907.785 11.6783 909.976 15.7158 909.976 21.3163C909.976 26.9602 907.785 30.9109 903.952 30.9109H897.19ZM899.119 27.6982H903.833C906.523 27.6982 908.047 25.3973 908.047 21.3163C908.047 17.1919 906.523 14.891 903.833 14.891H899.119V27.6982Z" fill="white"/>
<path d="M886.362 30.9109V3.73343H880.671V0.520752H894.052V3.73343H888.314V30.9109H886.362Z" fill="white"/>
<path d="M864.904 30.911L872.308 0.347168H874.141L881.546 30.911H879.498L877.474 22.7056H868.903L866.927 30.911H864.904ZM869.57 19.5798H876.855L873.213 4.77545L869.57 19.5798Z" fill="white"/>
<path d="M849.294 30.9109V0.520752H856.58C859.532 0.520752 861.389 3.25587 861.389 7.90122C861.389 11.2007 860.484 13.4149 859.175 14.3266C861.318 14.9778 862.794 17.8866 862.794 22.4451C862.794 27.4812 860.746 30.9109 857.294 30.9109H849.294ZM851.223 27.6982H856.937C859.342 27.6982 860.722 25.6578 860.722 21.9675C860.722 18.3207 859.342 16.3671 856.937 16.3671H851.223V27.6982ZM851.223 13.2412H856.246C858.294 13.2412 859.461 11.5915 859.461 8.55244C859.461 5.38318 858.294 3.73343 856.246 3.73343H851.223V13.2412Z" fill="white"/>
<path d="M836.92 0C841.73 0 845.349 6.77266 845.349 15.7161C845.349 24.6594 841.73 31.4321 836.92 31.4321C832.135 31.4321 828.516 24.6594 828.516 15.7161C828.516 6.77266 832.135 0 836.92 0ZM836.92 28.1326C840.539 28.1326 843.372 22.836 843.372 15.7161C843.372 8.59607 840.539 3.2995 836.92 3.2995C833.325 3.2995 830.492 8.59607 830.492 15.7161C830.492 22.836 833.325 28.1326 836.92 28.1326Z" fill="white"/>
<path d="M813.396 30.9109V0.520752H820.419C823.848 0.520752 825.8 4.03733 825.8 9.03C825.8 14.1095 823.848 17.6695 820.419 17.6695H815.324V30.9109H813.396ZM815.324 14.4568H820.277C822.562 14.4568 823.872 12.59 823.872 9.11683C823.872 5.60025 822.562 3.73343 820.277 3.73343H815.324V14.4568Z" fill="white"/>
<path d="M795.098 30.9109V0.520752H797.003V25.0065L807.121 0.520752H808.812V30.9109H806.907V6.3383L796.717 30.9109H795.098Z" fill="white"/>
<path d="M784.269 30.9109V3.73343H778.579V0.520752H791.959V3.73343H786.222V30.9109H784.269Z" fill="white"/>
<path d="M765.71 30.9109V0.520752H767.638V11.6783H772.471C776.304 11.6783 778.495 15.7158 778.495 21.3163C778.495 26.9602 776.304 30.9109 772.471 30.9109H765.71ZM767.638 27.6982H772.352C775.043 27.6982 776.566 25.3973 776.566 21.3163C776.566 17.1919 775.043 14.891 772.352 14.891H767.638V27.6982Z" fill="white"/>
<path d="M759.197 3.73343H752.46L752.388 10.5929C752.245 23.5739 751.293 30.9543 747.103 30.9543C746.817 30.9543 746.531 30.9109 746.365 30.8675V27.6548C746.579 27.7417 746.865 27.7851 747.079 27.7851C750.031 27.7851 750.436 19.7534 750.531 7.98805L750.579 0.520752H761.126V30.9109H759.197V3.73343Z" fill="white"/>
<path d="M736.459 31.4319C735.674 31.4319 734.96 31.3016 734.317 30.8241V27.5246C734.912 28.0021 735.626 28.1324 736.15 28.1324C737.793 28.1324 738.531 25.6578 739.459 22.3148L732.793 0.520752H734.936L740.435 18.6246L745.007 0.520752H747.054L740.912 24.4856C739.531 29.9124 738.007 31.4319 736.459 31.4319Z" fill="white"/>
<path d="M726.021 31.4321C721.164 31.4321 717.426 24.9633 717.426 15.7161C717.426 6.55559 721.14 0 726.021 0C727.806 0 729.33 0.694631 730.663 2.21414V5.81754C729.33 4.21121 727.901 3.2995 726.044 3.2995C722.307 3.2995 719.402 8.55266 719.402 15.7161C719.402 22.9663 722.33 28.1326 726.116 28.1326C728.021 28.1326 729.639 27.1775 731.02 25.1804V28.7838C729.687 30.5204 727.973 31.4321 726.021 31.4321Z" fill="white"/>
<path d="M700.004 30.9109V0.520752H701.933V13.0241H711.599V0.520752H713.528V30.9109H711.599V16.2368H701.933V30.9109H700.004Z" fill="white"/>
<path d="M687.63 0C692.439 0 696.058 6.77266 696.058 15.7161C696.058 24.6594 692.439 31.4321 687.63 31.4321C682.844 31.4321 679.226 24.6594 679.226 15.7161C679.226 6.77266 682.844 0 687.63 0ZM687.63 28.1326C691.249 28.1326 694.082 22.836 694.082 15.7161C694.082 8.59607 691.249 3.2995 687.63 3.2995C684.035 3.2995 681.202 8.59607 681.202 15.7161C681.202 22.836 684.035 28.1326 687.63 28.1326Z" fill="white"/>
<path d="M667.29 0.520752V13.5451L674.813 0.520752H677.361L669.266 14.4134L678.623 30.9109H675.956L667.29 15.6724V30.9109H665.361V0.520752H667.29Z" fill="white"/>
<path d="M652.987 0C657.796 0 661.415 6.77266 661.415 15.7161C661.415 24.6594 657.796 31.4321 652.987 31.4321C648.201 31.4321 644.583 24.6594 644.583 15.7161C644.583 6.77266 648.201 0 652.987 0ZM652.987 28.1326C656.606 28.1326 659.439 22.836 659.439 15.7161C659.439 8.59607 656.606 3.2995 652.987 3.2995C649.392 3.2995 646.559 8.59607 646.559 15.7161C646.559 22.836 649.392 28.1326 652.987 28.1326Z" fill="white"/>
<path d="M629.463 30.9109V0.520752H636.486C639.915 0.520752 641.867 4.03733 641.867 9.03C641.867 14.1095 639.915 17.6695 636.486 17.6695H631.391V30.9109H629.463ZM631.391 14.4568H636.344C638.629 14.4568 639.939 12.59 639.939 9.11683C639.939 5.60025 638.629 3.73343 636.344 3.73343H631.391V14.4568Z" fill="white"/>
<path d="M611.7 30.9109V0.520752H624.866V30.9109H622.913V3.73343H613.628V30.9109H611.7Z" fill="white"/>
<path d="M593.071 0C597.88 0 601.499 6.77266 601.499 15.7161C601.499 24.6594 597.88 31.4321 593.071 31.4321C588.285 31.4321 584.667 24.6594 584.667 15.7161C584.667 6.77266 588.285 0 593.071 0ZM593.071 28.1326C596.69 28.1326 599.523 22.836 599.523 15.7161C599.523 8.59607 596.69 3.2995 593.071 3.2995C589.476 3.2995 586.643 8.59607 586.643 15.7161C586.643 22.836 589.476 28.1326 593.071 28.1326Z" fill="white"/>
<path d="M565.176 30.9109V0.520752H567.08L572.985 15.0212L578.889 0.520752H580.77V30.9109H578.866V5.86074L573.58 18.7983H572.414L567.08 5.86074V30.9109H565.176Z" fill="white"/>
<path d="M546.878 30.9109V0.520752H548.783V25.0065L558.901 0.520752H560.592V30.9109H558.687V6.3383L548.497 30.9109H546.878Z" fill="white"/>
<path d="M526.442 37.6402V27.6982H528.037C529.918 22.749 530.87 17.0617 530.87 4.29781V0.520752H541.298V27.6982H543.798V37.6402H541.989V30.9109H528.251V37.6402H526.442ZM530.18 27.6982H539.37V3.73343H532.751C532.751 14.7173 532.204 22.2714 530.18 27.6982Z" fill="white"/>
<path d="M517.019 0C521.828 0 525.447 6.77266 525.447 15.7161C525.447 24.6594 521.828 31.4321 517.019 31.4321C512.234 31.4321 508.615 24.6594 508.615 15.7161C508.615 6.77266 512.234 0 517.019 0ZM517.019 28.1326C520.638 28.1326 523.471 22.836 523.471 15.7161C523.471 8.59607 520.638 3.2995 517.019 3.2995C513.424 3.2995 510.591 8.59607 510.591 15.7161C510.591 22.836 513.424 28.1326 517.019 28.1326Z" fill="white"/>
<path d="M491.759 30.9109L498.425 14.4134L492.83 0.520752H495.116L499.592 11.548L504.091 0.520752H506.329L500.735 14.37L507.401 30.9109H505.115L499.568 17.2353L494.021 30.9109H491.759Z" fill="white"/>
<path d="M477.08 30.9109V0.520752H488.532V3.73343H479.009V11.8954H483.937C487.723 11.8954 489.865 15.8461 489.865 21.4031C489.865 27.0036 487.723 30.9109 483.937 30.9109H477.08ZM479.009 27.6982H483.747C486.413 27.6982 487.937 25.4407 487.937 21.4031C487.937 17.3656 486.413 15.108 483.747 15.108H479.009V27.6982Z" fill="white"/>
<path d="M464.706 0C469.515 0 473.134 6.77266 473.134 15.7161C473.134 24.6594 469.515 31.4321 464.706 31.4321C459.92 31.4321 456.302 24.6594 456.302 15.7161C456.302 6.77266 459.92 0 464.706 0ZM464.706 28.1326C468.325 28.1326 471.158 22.836 471.158 15.7161C471.158 8.59607 468.325 3.2995 464.706 3.2995C461.111 3.2995 458.278 8.59607 458.278 15.7161C458.278 22.836 461.111 28.1326 464.706 28.1326Z" fill="white"/>
<path d="M442.112 30.9109V0.520752H453.611V3.73343H444.04V13.0241H451.873V16.2368H444.04V27.6982H453.968V30.9109H442.112Z" fill="white"/>
<path d="M424 30.9109V0.520752H425.928V13.0241H435.594V0.520752H437.523V30.9109H435.594V16.2368H425.928V30.9109H424Z" fill="white"/>
<path d="M411.263 28.7838C411.263 27.4379 411.835 26.3525 412.597 26.3525C413.335 26.3525 413.906 27.4379 413.906 28.7838C413.906 30.1296 413.335 31.1716 412.597 31.1716C411.835 31.1716 411.263 30.1296 411.263 28.7838Z" fill="white"/>
<path d="M393.161 30.9109L398.542 17.0617C396.018 16.1934 394.637 13.111 394.637 8.85634C394.637 3.90708 396.566 0.520752 399.947 0.520752H407.446V30.9109H405.518V17.409H400.661L395.447 30.9109H393.161ZM400.066 14.2397H405.518V3.73343H400.066C397.852 3.73343 396.566 5.64367 396.566 8.98658C396.566 12.3729 397.852 14.2397 400.066 14.2397Z" fill="white"/>
<path d="M376.22 30.9109V0.520752H378.125V25.0065L388.244 0.520752H389.934V30.9109H388.029V6.3383L377.839 30.9109H376.22Z" fill="white"/>
<path d="M358.108 30.9109V0.520752H360.037V13.0241H369.703V0.520752H371.632V30.9109H369.703V16.2368H360.037V30.9109H358.108Z" fill="white"/>
<path d="M338.493 30.911L345.898 0.347168H347.731L355.135 30.911H353.088L351.064 22.7056H342.493L340.517 30.911H338.493ZM343.16 19.5798H350.445L346.802 4.77545L343.16 19.5798Z" fill="white"/>
<path d="M329.939 31.4321C327.416 31.4321 325.654 30.477 324.273 29.0443V25.4843C325.654 27.0038 327.725 28.1326 329.654 28.1326C332.796 28.1326 334.701 25.7014 334.701 21.9243C334.701 18.538 332.939 16.1502 330.177 16.1502H328.106V12.9375H330.392C332.677 12.9375 334.011 11.1141 334.011 8.0751C334.011 4.94925 332.344 3.2995 330.035 3.2995C327.987 3.2995 326.297 4.34145 325.035 5.42681V2.12731C326.273 1.08536 327.892 0 330.13 0C333.463 0 335.915 2.9956 335.915 7.90144C335.915 11.8522 334.249 13.7624 333.225 14.3702C334.701 15.1951 336.677 17.5395 336.677 22.1414C336.677 27.3946 334.225 31.4321 329.939 31.4321Z" fill="white"/>
<path d="M306.082 30.911L313.487 0.347168H315.32L322.724 30.911H320.677L318.653 22.7056H310.082L308.106 30.911H306.082ZM310.749 19.5798H318.034L314.391 4.77545L310.749 19.5798Z" fill="white"/>
<path d="M293.82 0.520752V13.5451L301.344 0.520752H303.891L295.796 14.4134L305.153 30.9109H302.486L293.82 15.6724V30.9109H291.892V0.520752H293.82Z" fill="white"/>
<path d="M279.517 0C284.326 0 287.945 6.77266 287.945 15.7161C287.945 24.6594 284.326 31.4321 279.517 31.4321C274.732 31.4321 271.113 24.6594 271.113 15.7161C271.113 6.77266 274.732 0 279.517 0ZM279.517 28.1326C283.136 28.1326 285.969 22.836 285.969 15.7161C285.969 8.59607 283.136 3.2995 279.517 3.2995C275.922 3.2995 273.089 8.59607 273.089 15.7161C273.089 22.836 275.922 28.1326 279.517 28.1326Z" fill="white"/>
<path d="M254.04 30.9109V0.520752H267.206V30.9109H265.254V3.73343H255.969V30.9109H254.04Z" fill="white"/>
<path d="M241.666 0C246.475 0 250.094 6.77266 250.094 15.7161C250.094 24.6594 246.475 31.4321 241.666 31.4321C236.88 31.4321 233.261 24.6594 233.261 15.7161C233.261 6.77266 236.88 0 241.666 0ZM241.666 28.1326C245.284 28.1326 248.118 22.836 248.118 15.7161C248.118 8.59607 245.284 3.2995 241.666 3.2995C238.071 3.2995 235.237 8.59607 235.237 15.7161C235.237 22.836 238.071 28.1326 241.666 28.1326Z" fill="white"/>
<path d="M217.049 30.9109V0.520752H224.334C227.286 0.520752 229.143 3.25587 229.143 7.90122C229.143 11.2007 228.239 13.4149 226.929 14.3266C229.072 14.9778 230.548 17.8866 230.548 22.4451C230.548 27.4812 228.501 30.9109 225.048 30.9109H217.049ZM218.977 27.6982H224.691C227.096 27.6982 228.477 25.6578 228.477 21.9675C228.477 18.3207 227.096 16.3671 224.691 16.3671H218.977V27.6982ZM218.977 13.2412H224.001C226.048 13.2412 227.215 11.5915 227.215 8.55244C227.215 5.38318 226.048 3.73343 224.001 3.73343H218.977V13.2412Z" fill="white"/>
<path d="M198.751 30.9109V0.520752H200.655V25.0065L210.774 0.520752H212.464V30.9109H210.56V6.3383L200.37 30.9109H198.751Z" fill="white"/>
<path d="M187.922 30.9109V3.73343H182.232V0.520752H195.612V3.73343H189.874V30.9109H187.922Z" fill="white"/>
<path d="M172.682 0C177.491 0 181.11 6.77266 181.11 15.7161C181.11 24.6594 177.491 31.4321 172.682 31.4321C167.896 31.4321 164.278 24.6594 164.278 15.7161C164.278 6.77266 167.896 0 172.682 0ZM172.682 28.1326C176.301 28.1326 179.134 22.836 179.134 15.7161C179.134 8.59607 176.301 3.2995 172.682 3.2995C169.087 3.2995 166.254 8.59607 166.254 15.7161C166.254 22.836 169.087 28.1326 172.682 28.1326Z" fill="white"/>
<path d="M149.158 30.9109V0.520752H156.181C159.61 0.520752 161.562 4.03733 161.562 9.03C161.562 14.1095 159.61 17.6695 156.181 17.6695H151.086V30.9109H149.158ZM151.086 14.4568H156.038C158.324 14.4568 159.633 12.59 159.633 9.11683C159.633 5.60025 158.324 3.73343 156.038 3.73343H151.086V14.4568Z" fill="white"/>
<path d="M131.395 30.9109V0.520752H144.561V30.9109H142.608V3.73343H133.323V30.9109H131.395Z" fill="white"/>
<path d="M106.252 30.9109L111.633 17.0617C109.109 16.1934 107.729 13.111 107.729 8.85634C107.729 3.90708 109.657 0.520752 113.038 0.520752H120.537V30.9109H118.609V17.409H113.752L108.538 30.9109H106.252ZM113.157 14.2397H118.609V3.73343H113.157C110.943 3.73343 109.657 5.64367 109.657 8.98658C109.657 12.3729 110.943 14.2397 113.157 14.2397Z" fill="white"/>
<path d="M99.0992 31.4321C94.2423 31.4321 90.5044 24.9633 90.5044 15.7161C90.5044 6.55559 94.2185 0 99.0992 0C100.885 0 102.409 0.694631 103.742 2.21414V5.81754C102.409 4.21121 100.98 3.2995 99.123 3.2995C95.3851 3.2995 92.4805 8.55266 92.4805 15.7161C92.4805 22.9663 95.4089 28.1326 99.1944 28.1326C101.099 28.1326 102.718 27.1775 104.099 25.1804V28.7838C102.766 30.5204 101.051 31.4321 99.0992 31.4321Z" fill="white"/>
<path d="M81.7144 30.9109V3.73343H76.0242V0.520752H89.4044V3.73343H83.6666V30.9109H81.7144Z" fill="white"/>
<path d="M67.0645 31.4321C62.779 31.4321 59.5411 25.2672 59.2554 17.0185H55.9461V30.9111H54.0176V0.520972H55.9461V13.8058H59.2792C59.7554 5.94779 62.8743 0 67.0645 0C71.5881 0 74.8975 6.81608 74.8975 15.7161C74.8975 24.616 71.5881 31.4321 67.0645 31.4321ZM67.0645 28.1326C70.3263 28.1326 72.9452 23.3136 72.9452 15.7161C72.9452 8.11851 70.3263 3.2995 67.0645 3.2995C63.8028 3.2995 61.1839 8.11851 61.1839 15.7161C61.1839 23.3136 63.8028 28.1326 67.0645 28.1326Z" fill="white"/>
<path d="M38.7886 30.9109V0.520752H50.288V3.73343H40.717V13.0241H48.55V16.2368H40.717V27.6982H50.6451V30.9109H38.7886Z" fill="white"/>
<path d="M18.6074 30.9109V0.520752H20.5121L26.4166 15.0212L32.321 0.520752H34.2019V30.9109H32.2972V5.86074L27.0118 18.7983H25.8452L20.5121 5.86074V30.9109H18.6074Z" fill="white"/>
<path d="M0.309326 30.9109V0.520752H2.21399V25.0065L12.3325 0.520752H14.0229V30.9109H12.1183V6.3383L1.92829 30.9109H0.309326Z" fill="white"/>
</svg>
