<svg width="201" height="40" viewBox="0 0 201 40" fill="none" xmlns="http://www.w3.org/2000/svg">
<path d="M191.909 8.01721C191.648 7.99336 175.29 7.99335 174.991 8.02317C173.896 8.14243 173 9.12037 173 10.1758C173 11.2313 173.915 12.1436 175.084 12.2033C175.794 12.239 176.516 12.2152 177.225 12.2152C178.606 12.2152 179.428 12.2152 180.946 12.2152V26.9141C180.946 27.2361 180.927 27.5641 180.971 27.8861C181.101 28.9177 181.96 29.7883 182.98 29.9553C184.212 30.158 185.351 29.6631 185.793 28.6434C185.973 28.2319 186.004 27.737 186.011 27.2838C186.023 22.8294 186.017 17.8622 186.023 13.4018C186.023 13.0202 186.054 12.6445 186.073 12.2569C186.434 12.239 186.658 12.2212 186.882 12.2152C188.724 12.2152 189.999 12.239 191.841 12.2033C193.098 12.1794 193.994 11.2909 194 10.1579C194 9.02496 193.123 8.11262 191.909 8.01721Z" fill="#1ECAD3"/>
<path d="M115.755 9.34472C113.067 8 110.108 8 108.996 8H101.428C100.087 8 99 9.03213 99 10.312V26.195C99 26.2599 99 26.3248 99.0124 26.3837V36.8348C99.0124 37.1179 99 37.4069 99.0185 37.69C99.0865 38.787 99.7908 39.6127 100.928 39.9194C101.916 40.1848 103.096 39.7838 103.634 38.8755C103.893 38.4332 104.029 37.8729 104.035 37.3656C104.072 35.2955 104.06 33.2312 104.054 31.1611V30.8956C104.054 30.6656 104.054 30.4415 104.054 30.2115V29.1676V28.6957L109.558 28.6308C110.491 28.6839 114.828 28.7783 117.967 26.0299C119.981 24.2664 121 21.807 121 18.7165C121 13.1489 118.146 10.542 115.749 9.34472H115.755ZM114.698 22.6091C112.894 24.2074 109.849 24.0128 109.836 24.0128C109.756 24.0069 109.676 24.001 109.602 24.001L104.054 24.0659V12.6122H108.996C114.013 12.6122 116.15 14.4346 116.15 18.7106C116.15 20.4682 115.681 21.748 114.705 22.6091H114.698Z" fill="#1ECAD3"/>
<path d="M135.945 7C134.562 7 131.866 7.2144 129.356 8.64371C126.915 10.0373 124 12.9555 124 18.9586C124 22.4663 125.096 25.2356 127.263 27.2009C130.103 29.7796 133.753 30 134.905 30C135.011 30 135.098 30 135.16 30L140.896 29.9702C142.248 29.9643 143.338 28.9161 143.331 27.6238C143.325 26.3374 142.229 25.3011 140.884 25.3011H140.871L135.092 25.3309C135.054 25.3309 135.036 25.3309 135.005 25.3309C134.974 25.3309 132.345 25.3964 130.614 23.8004C129.973 23.2108 129.512 22.4425 129.231 21.4956L144.471 21.5075C145.685 21.5075 146.719 20.6618 146.894 19.5184C146.931 19.2921 147.716 13.9322 144.384 10.2517C142.428 8.08985 139.595 7 135.951 7H135.945ZM129.101 16.8206C129.611 14.3431 131.249 11.6631 135.945 11.6631C138.119 11.6631 139.663 12.1932 140.66 13.283C141.6 14.3074 141.942 15.7009 142.055 16.8325L129.101 16.8206Z" fill="#1ECAD3"/>
<path d="M169.983 9.49982C169.929 8.04463 168.991 7.05025 167.657 7.00174C166.262 6.95323 165.198 7.92336 165.143 9.39675C165.119 9.99095 164.927 10.7185 164.5 11.1187C161.284 14.1201 158.079 17.1457 154.868 20.1591C154.64 20.3713 154.393 20.5654 153.967 20.9413V19.5892C153.967 16.5454 153.967 13.1924 153.967 10.1486C153.967 9.79085 153.979 9.42099 153.919 9.06932C153.714 7.86879 152.782 7.04418 151.616 7.0078C150.407 6.97142 149.445 7.66264 149.145 8.84498C149.037 9.25729 149.007 9.69991 149.007 10.1304C149 15.4176 149 21.014 149 26.3013C149 26.5559 148.994 27.4351 149.025 27.6837C149.205 29.151 150.137 30.012 151.532 29.9999C152.914 29.9877 153.87 29.1025 153.943 27.617C153.973 26.9743 154.201 25.9253 154.652 25.507C157.352 23.0028 160.033 20.4805 162.72 17.9642C163.448 17.279 164.187 16.6 165.125 15.7208V17.1881C165.125 20.4502 165.107 24.3307 165.137 27.5867C165.149 29.0722 166.075 29.9696 167.488 29.9938C168.949 30.0181 169.917 29.0843 169.989 27.5927C170.001 27.3017 169.989 26.3922 169.989 26.1012V11.9797C169.989 11.2582 170.013 10.2213 169.989 9.49375L169.983 9.49982Z" fill="#1ECAD3"/>
<path d="M49.482 8.00212C48.1858 8.00212 47.2121 8.78599 46.9889 10.0486C46.9145 10.4734 46.8958 10.9102 46.8896 11.341C46.8772 12.7831 46.8896 14.2252 46.8834 15.6673C46.8834 15.9785 46.8276 16.2896 46.7966 16.6486H36.1355C36.1169 16.2358 36.0797 15.8887 36.0797 15.5357C36.0735 13.8363 36.1045 12.1429 36.0611 10.4495C36.0239 8.92362 34.889 7.94827 33.3881 8.00212C32.1911 8.04401 30.9756 9.19288 31.0004 10.5392C31.0686 13.926 31.019 17.3188 31.019 20.7056C31.019 22.9794 31.0376 25.2473 31.0128 27.5211C31.0066 28.299 31.2733 28.9333 31.8872 29.4239C32.6873 30.0582 33.6052 30.148 34.5292 29.7949C35.5216 29.412 36.0487 28.6341 36.0673 27.6049C36.0921 25.8038 36.0735 23.9967 36.0797 22.1956C36.0797 21.8485 36.1107 21.4955 36.1355 21.1125H46.8214C46.8462 21.5254 46.8834 21.8724 46.8896 22.2195C46.8896 23.6975 46.8834 25.1755 46.8896 26.6535C46.8896 27.1202 46.9144 27.5929 47.0075 28.0537C47.2369 29.2564 48.1982 29.9744 49.482 29.9685C50.7658 29.9565 51.7023 29.2265 51.9318 28.0178C52 27.6647 52 27.2997 52 26.9407C52 21.675 52 16.4093 52 11.1496C52 10.7905 52 10.4255 51.938 10.0725C51.7085 8.76804 50.7906 8.00212 49.482 8.00212Z" fill="#1ECAD3"/>
<path d="M73.9093 8.01491C73.648 7.99106 73.3866 8.00298 73.1191 8.00298H57.8933C57.5947 8.00298 57.2898 7.99105 56.9911 8.02087C55.896 8.14014 55 9.11819 55 10.1738C55 11.2293 55.9147 12.1418 57.0782 12.2014C57.7938 12.2372 58.5093 12.2133 59.2249 12.2133C60.6062 12.2133 61.4213 12.2133 62.9458 12.2133V26.9138C62.9458 27.2358 62.9271 27.5638 62.9707 27.8859C63.1013 28.9176 63.9538 29.7883 64.9804 29.9553C66.2124 30.158 67.3511 29.663 67.7929 28.6433C67.9733 28.2318 68.0044 27.7368 68.0106 27.2835C68.0293 22.8287 68.0169 17.8609 68.0231 13.4001C68.0231 13.0184 68.0542 12.6427 68.0729 12.2551C68.4338 12.2372 68.6515 12.2193 68.8818 12.2133C70.7235 12.2133 71.9991 12.2372 73.8409 12.2014C75.0977 12.1776 75.9937 11.289 76 10.1559C76.0062 9.02277 75.1289 8.11033 73.9093 8.01491Z" fill="#1ECAD3"/>
<path d="M89.3573 7.0078C89.3573 7.0078 89.3094 7.0078 89.2854 7.0078C89.2254 7.0078 89.1835 6.99561 89.1175 7.00171H80.0647C78.7638 7.00171 77.7086 8.06841 77.7086 9.38504C77.7086 10.7017 78.7578 11.7745 80.0647 11.7745H89.1055C89.1655 11.7867 89.2314 11.7867 89.2974 11.7867C90.1547 11.7989 91.2938 12.1036 91.2938 14.6028V15.127L84.4712 15.1148C83.7518 15.0782 80.3765 15.0173 78.0564 17.1995C77.1211 18.0833 76 19.6864 76 22.3075C76 25.1785 77.1571 30 84.9329 30H93.6439C94.9448 30 96 28.9333 96 27.6167V17.6322C96 17.6322 96 17.5957 96 17.5774V14.6089C96 9.06808 92.4209 7.05656 89.3573 7.01389V7.0078ZM91.2878 25.2211H84.9329C81.3657 25.2211 80.7122 24.2398 80.7122 22.3014C80.7122 21.3322 81.024 20.9299 81.2518 20.7044C81.9712 20.0156 83.3681 19.8754 84.0156 19.8754C84.0935 19.8754 84.1595 19.8754 84.2134 19.8754C84.2734 19.8815 84.3273 19.8815 84.3873 19.8815L91.2818 19.8937V25.2089L91.2878 25.2211Z" fill="#1ECAD3"/>
<path d="M159.492 6.99379C162.632 6.99379 165.492 5.3785 166.777 2.88723C167.274 1.93049 166.911 0.737659 165.971 0.228223C165.032 -0.281214 163.868 0.0915456 163.377 1.05451C162.753 2.25355 161.195 3.06119 159.492 3.06119C157.789 3.06119 156.244 2.25976 155.62 1.06693C155.116 0.110186 153.953 -0.250152 153.013 0.265497C152.08 0.774934 151.729 1.97398 152.226 2.93073C153.523 5.40336 156.371 7 159.486 7L159.492 6.99379Z" fill="#1ECAD3"/>
<path d="M200.597 9.24725C200.327 8.84616 199.957 8.53846 199.482 8.32417C199.007 8.10989 198.518 8 197.997 8C197.475 8 196.993 8.10439 196.518 8.32417C196.043 8.53846 195.673 8.84616 195.403 9.24725C195.132 9.64835 195 10.0659 195 10.5C195 10.9341 195.132 11.3516 195.396 11.7473C195.66 12.1374 196.03 12.4505 196.505 12.6703C196.98 12.8901 197.475 13 197.997 13C198.518 13 199.02 12.8901 199.495 12.6703C199.97 12.4505 200.34 12.1429 200.604 11.7473C200.868 11.3516 201 10.9341 201 10.5C201 10.0659 200.861 9.64286 200.591 9.24725H200.597ZM200.102 11.5C199.891 11.8187 199.594 12.0659 199.211 12.2418C198.835 12.4231 198.432 12.511 198.01 12.511C197.587 12.511 197.191 12.4176 196.809 12.2418C196.426 12.0659 196.129 11.8132 195.917 11.5C195.706 11.1813 195.601 10.8462 195.601 10.5C195.601 10.1538 195.713 9.80769 195.924 9.48901C196.142 9.17033 196.446 8.92308 196.822 8.74725C197.198 8.57692 197.601 8.48901 198.01 8.48901C198.419 8.48901 198.815 8.57143 199.198 8.74725C199.581 8.91758 199.878 9.16484 200.096 9.48901C200.314 9.80769 200.419 10.1484 200.419 10.5C200.419 10.8516 200.307 11.1813 200.096 11.5H200.102Z" fill="#1ECAD3"/>
<path d="M199.336 11.029C199.236 10.917 199.164 10.8361 199.107 10.7988C199.05 10.7614 198.971 10.7178 198.864 10.6867C199.157 10.6494 199.386 10.556 199.55 10.4004C199.707 10.2448 199.793 10.0643 199.793 9.84647C199.793 9.69087 199.75 9.54149 199.664 9.41701C199.579 9.28631 199.471 9.19295 199.343 9.12449C199.214 9.06225 199.036 9.0249 198.807 9.00623C198.729 9.00623 198.357 9 197.7 9H197V12H197.7V10.7676H197.886C198.079 10.7676 198.243 10.8112 198.364 10.8921C198.493 10.9793 198.65 11.1846 198.85 11.5145L199.136 12H200L199.593 11.3963C199.45 11.1846 199.364 11.0602 199.336 11.029ZM198.736 10.251C198.636 10.2759 198.386 10.2884 197.979 10.2884H197.693V9.47303H197.979C198.379 9.47303 198.629 9.48548 198.729 9.5166C198.829 9.54149 198.907 9.59129 198.964 9.65353C199.021 9.72199 199.05 9.79668 199.05 9.87759C199.05 9.96473 199.021 10.0394 198.964 10.1079C198.907 10.1763 198.829 10.2261 198.736 10.251Z" fill="#1ECAD3"/>
<path d="M27.6068 25.8936C24.593 18.6551 21.5731 11.4226 18.5473 4.1841L18.5114 4.10042C18.1938 3.3413 17.8643 2.55827 17.4628 1.81709C16.8157 0.627611 15.6413 0 14.0655 0H14.0415C12.4478 0.00597729 11.2494 0.675428 10.5843 1.93663C10.4106 2.26539 10.2488 2.6061 10.111 2.94082C7.11513 10.0418 4.11328 17.1488 1.12341 24.2558L0.973617 24.6085C0.650064 25.3676 0.320519 26.1566 0.0928336 26.9576C-0.0989013 27.633 0.00894957 28.2965 0.392419 28.8225C0.823823 29.4202 1.5668 29.7848 2.4296 29.8326C2.54944 29.8326 2.66927 29.8446 2.78311 29.8446C4.18517 29.8446 4.94013 29.3305 5.50335 28.0395C5.77298 27.4118 6.0486 26.7663 6.34219 26.0729C7.6424 24.9193 10.1589 23.6461 14.0116 23.6461C18.6012 23.6461 20.6504 24.8954 21.699 26.2463C21.9746 26.8918 22.2562 27.5314 22.5258 28.165C22.8134 28.8225 23.1729 29.2588 23.6642 29.5218C24.0897 29.8267 24.6049 30 25.1382 30C25.4258 30 25.7194 29.9522 26.001 29.8446C26.1328 29.7968 26.2587 29.737 26.3785 29.6712C26.8638 29.5158 27.2653 29.2528 27.5409 28.9002C27.9783 28.3383 28.1101 27.6031 27.9064 26.7663C27.8405 26.5093 27.7446 26.2224 27.6128 25.8996L27.6068 25.8936ZM13.9996 18.6013C12.1302 18.6013 10.4765 18.8225 9.03247 19.1871L9.20024 18.7388H9.14632L14.0296 6.92767L18.8709 18.7388L19.0087 19.1213C17.5886 18.7926 15.9349 18.5953 14.0056 18.5953L13.9996 18.6013Z" fill="#1ECAD3"/>
</svg>
