<svg width="202" height="42" viewBox="0 0 202 42" fill="none" xmlns="http://www.w3.org/2000/svg">
<path d="M192.035 8.72475C191.779 8.70055 175.751 8.70054 175.458 8.7308C174.385 8.85182 173.508 9.84421 173.508 10.9153C173.508 11.9863 174.404 12.9121 175.55 12.9727C176.245 13.009 176.952 12.9847 177.647 12.9847C179 12.9847 179.805 12.9847 181.293 12.9847V27.9008C181.293 28.2276 181.274 28.5604 181.317 28.8871C181.445 29.934 182.286 30.8174 183.286 30.9869C184.493 31.1926 185.609 30.6904 186.042 29.6556C186.219 29.2381 186.249 28.7358 186.255 28.276C186.267 23.7558 186.261 18.7152 186.267 14.1889C186.267 13.8017 186.298 13.4204 186.316 13.0271C186.67 13.009 186.889 12.9908 187.109 12.9847C188.913 12.9847 190.163 13.009 191.968 12.9727C193.199 12.9484 194.077 12.0468 194.083 10.8971C194.083 9.74739 193.223 8.82157 192.035 8.72475Z" fill="white"/>
<path d="M115.982 9.88657C113.33 8.50691 110.409 8.50691 109.312 8.50691H101.844C100.521 8.50691 99.448 9.56586 99.448 10.879V27.1747C99.448 27.2412 99.448 27.3078 99.4602 27.3683V38.0909C99.4602 38.3814 99.448 38.6779 99.4663 38.9683C99.5333 40.0938 100.228 40.941 101.35 41.2556C102.326 41.5279 103.49 41.1165 104.02 40.1846C104.276 39.7308 104.411 39.1559 104.417 38.6355C104.453 36.5116 104.441 34.3937 104.435 32.2697V31.9974C104.435 31.7614 104.435 31.5315 104.435 31.2955V30.2244V29.7403L109.867 29.6738C110.787 29.7282 115.067 29.8251 118.164 27.0052C120.151 25.1959 121.157 22.6726 121.157 19.5018C121.157 13.7896 118.341 11.1149 115.975 9.88657H115.982ZM114.939 23.4956C113.159 25.1354 110.153 24.9357 110.141 24.9357C110.062 24.9297 109.983 24.9236 109.909 24.9236L104.435 24.9902V13.2389H109.312C114.262 13.2389 116.372 15.1087 116.372 19.4958C116.372 21.299 115.908 22.6121 114.945 23.4956H114.939Z" fill="white"/>
<path d="M135.545 7.85944C134.192 7.85944 131.552 8.07728 129.095 9.52955C126.705 10.9455 123.852 13.9106 123.852 20.0101C123.852 23.5742 124.925 26.388 127.047 28.3849C129.827 31.005 133.399 31.2289 134.527 31.2289C134.631 31.2289 134.716 31.2289 134.777 31.2289L140.392 31.1987C141.715 31.1926 142.781 30.1276 142.775 28.8145C142.769 27.5075 141.696 26.4546 140.379 26.4546H140.367L134.71 26.4848C134.673 26.4848 134.655 26.4848 134.624 26.4848C134.594 26.4848 132.021 26.5514 130.326 24.9297C129.699 24.3306 129.247 23.55 128.973 22.5879L143.891 22.6C145.08 22.6 146.092 21.7407 146.263 20.5789C146.299 20.349 147.067 14.903 143.806 11.1634C141.891 8.9668 139.118 7.85944 135.551 7.85944H135.545ZM128.845 17.8378C129.345 15.3205 130.948 12.5975 135.545 12.5975C137.673 12.5975 139.185 13.136 140.16 14.2434C141.081 15.2842 141.416 16.7001 141.526 17.8499L128.845 17.8378Z" fill="white"/>
<path d="M170.502 10.8911C170.447 9.43878 169.496 8.4464 168.143 8.39799C166.728 8.34958 165.649 9.31776 165.594 10.7882C165.57 11.3812 165.375 12.1073 164.942 12.5067C161.68 15.502 158.431 18.5215 155.175 21.5289C154.944 21.7407 154.694 21.9344 154.261 22.3095V20.9601C154.261 17.9225 154.261 14.5762 154.261 11.5385C154.261 11.1815 154.273 10.8124 154.212 10.4614C154.005 9.2633 153.06 8.44035 151.877 8.40404C150.652 8.36773 149.676 9.05756 149.372 10.2375C149.262 10.649 149.231 11.0907 149.231 11.5204C149.225 16.797 149.225 22.3822 149.225 27.6587C149.225 27.9129 149.219 28.7903 149.25 29.0384C149.433 30.5028 150.378 31.362 151.792 31.3499C153.194 31.3378 154.163 30.4544 154.237 28.9718C154.267 28.3304 154.499 27.2836 154.956 26.866C157.693 24.3669 160.412 21.8497 163.137 19.3384C163.875 18.6547 164.625 17.9769 165.576 17.0995V18.5639C165.576 21.8194 165.558 25.6921 165.588 28.9416C165.6 30.4241 166.539 31.3197 167.972 31.3439C169.453 31.3681 170.435 30.4362 170.508 28.9476C170.52 28.6572 170.508 27.7495 170.508 27.4591V13.366C170.508 12.6459 170.532 11.6111 170.508 10.885L170.502 10.8911Z" fill="white"/>
<path d="M49.3902 8.70056C48.116 8.70056 47.1589 9.49325 46.9394 10.77C46.8662 11.1997 46.8479 11.6414 46.8418 12.0771C46.8297 13.5354 46.8418 14.9937 46.8357 16.4521C46.8357 16.7667 46.7809 17.0814 46.7504 17.4444H36.2706C36.2523 17.0269 36.2158 16.6759 36.2158 16.3189C36.2097 14.6004 36.2401 12.8879 36.1975 11.1755C36.1609 9.63243 35.0452 8.6461 33.5699 8.70056C32.3933 8.74291 31.1984 9.90473 31.2228 11.2662C31.2898 14.6912 31.2411 18.1222 31.2411 21.5471C31.2411 23.8465 31.2594 26.1399 31.235 28.4393C31.2289 29.226 31.491 29.8674 32.0946 30.3636C32.881 31.005 33.7833 31.0958 34.6916 30.7388C35.6671 30.3515 36.1853 29.5649 36.2036 28.5241C36.228 26.7027 36.2097 24.8752 36.2158 23.0538C36.2158 22.7029 36.2462 22.3459 36.2706 21.9586H46.7748C46.7992 22.3761 46.8358 22.7271 46.8418 23.078C46.8418 24.5727 46.8358 26.0673 46.8418 27.5619C46.8418 28.0339 46.8662 28.512 46.9577 28.9779C47.1832 30.1942 48.1282 30.9203 49.3902 30.9143C50.6521 30.9022 51.5727 30.1639 51.7983 28.9416C51.8653 28.5846 51.8653 28.2155 51.8653 27.8524C51.8653 22.5274 51.8653 17.2024 51.8653 11.8834C51.8653 11.5204 51.8653 11.1513 51.8043 10.7942C51.5788 9.4751 50.6765 8.70056 49.3902 8.70056Z" fill="white"/>
<path d="M73.0627 8.72475C72.8067 8.70055 72.5506 8.71265 72.2885 8.71265H57.3705C57.0779 8.71265 56.7791 8.70055 56.4865 8.7308C55.4135 8.85182 54.5356 9.84421 54.5356 10.9153C54.5356 11.9863 55.4318 12.9121 56.5719 12.9727C57.2729 13.009 57.974 12.9847 58.6751 12.9847C60.0285 12.9847 60.8272 12.9847 62.3208 12.9847V27.9008C62.3208 28.2276 62.3025 28.5604 62.3452 28.8871C62.4732 29.934 63.3084 30.8174 64.3143 30.9869C65.5214 31.1926 66.6371 30.6904 67.0699 29.6556C67.2467 29.2381 67.2772 28.7358 67.2833 28.276C67.3016 23.7558 67.2894 18.7152 67.2955 14.1889C67.2955 13.8017 67.326 13.4204 67.3443 13.0271C67.6979 13.009 67.9112 12.9908 68.1368 12.9847C69.9413 12.9847 71.1911 13.009 72.9957 12.9727C74.2271 12.9484 75.105 12.0468 75.1111 10.8971C75.1172 9.74739 74.2576 8.82157 73.0627 8.72475Z" fill="white"/>
<path d="M89.6634 8.42219C89.6634 8.42219 89.6147 8.42219 89.5903 8.42219C89.5293 8.42219 89.4866 8.41009 89.4196 8.41614H80.2139C78.891 8.41614 77.8181 9.47508 77.8181 10.7821C77.8181 12.0892 78.8849 13.1542 80.2139 13.1542H89.4074C89.4683 13.1663 89.5354 13.1663 89.6025 13.1663C90.4743 13.1784 91.6326 13.4809 91.6326 15.9619V16.4823L84.6948 16.4702C83.9633 16.4339 80.531 16.3734 78.1716 18.5397C77.2206 19.4171 76.0806 21.0085 76.0806 23.6105C76.0806 26.4606 77.2572 31.2471 85.1643 31.2471H94.0224C95.3453 31.2471 96.4183 30.1881 96.4183 28.8811V18.9693C96.4183 18.9693 96.4183 18.933 96.4183 18.9148V15.9679C96.4183 10.4675 92.7787 8.47059 89.6634 8.42823V8.42219ZM91.6265 26.503H85.1643C81.5369 26.503 80.8724 25.5287 80.8724 23.6045C80.8724 22.6423 81.1894 22.243 81.4211 22.0191C82.1526 21.3353 83.5731 21.1961 84.2315 21.1961C84.3108 21.1961 84.3778 21.1961 84.4327 21.1961C84.4937 21.2022 84.5485 21.2022 84.6095 21.2022L91.6204 21.2143V26.4909L91.6265 26.503Z" fill="white"/>
<path d="M159.974 8.11963C163.131 8.11963 166.009 6.54634 167.301 4.11984C167.801 3.18796 167.436 2.02615 166.491 1.52995C165.546 1.03376 164.375 1.39683 163.881 2.33475C163.253 3.50262 161.687 4.28927 159.974 4.28927C158.26 4.28927 156.706 3.50868 156.078 2.34686C155.572 1.41498 154.401 1.06401 153.456 1.56626C152.518 2.06245 152.164 3.23032 152.664 4.1622C153.968 6.57055 156.834 8.12568 159.967 8.12568L159.974 8.11963Z" fill="white"/>
<path d="M200.746 10.1528C200.496 9.71108 200.155 9.37221 199.716 9.13622C199.277 8.90023 198.826 8.77921 198.344 8.77921C197.863 8.77921 197.418 8.89417 196.979 9.13622C196.54 9.37221 196.198 9.71108 195.949 10.1528C195.699 10.5945 195.577 11.0544 195.577 11.5325C195.577 12.0105 195.699 12.4704 195.942 12.9061C196.186 13.3357 196.528 13.6806 196.967 13.9227C197.406 14.1647 197.863 14.2857 198.344 14.2857C198.826 14.2857 199.289 14.1647 199.728 13.9227C200.167 13.6806 200.509 13.3418 200.753 12.9061C200.996 12.4704 201.118 12.0105 201.118 11.5325C201.118 11.0544 200.99 10.5885 200.74 10.1528H200.746ZM200.289 12.6338C200.094 12.9847 199.82 13.257 199.466 13.4507C199.119 13.6504 198.747 13.7472 198.357 13.7472C197.966 13.7472 197.601 13.6443 197.247 13.4507C196.893 13.257 196.619 12.9787 196.424 12.6338C196.229 12.2828 196.131 11.9137 196.131 11.5325C196.131 11.1513 196.235 10.77 196.43 10.4191C196.631 10.0681 196.912 9.7958 197.259 9.60216C197.607 9.41457 197.979 9.31776 198.357 9.31776C198.735 9.31776 199.1 9.40852 199.454 9.60216C199.808 9.78974 200.082 10.062 200.283 10.4191C200.484 10.77 200.582 11.1452 200.582 11.5325C200.582 11.9197 200.478 12.2828 200.283 12.6338H200.289Z" fill="white"/>
<path d="M199.094 12.065C199.009 11.9561 198.948 11.8774 198.899 11.8411C198.85 11.8048 198.783 11.7624 198.692 11.7322C198.942 11.6959 199.137 11.6051 199.277 11.4538C199.411 11.3025 199.485 11.127 199.485 10.9153C199.485 10.764 199.448 10.6187 199.375 10.4977C199.302 10.3707 199.21 10.2799 199.1 10.2133C198.991 10.1528 198.838 10.1165 198.643 10.0984C198.576 10.0984 198.259 10.0923 197.698 10.0923H197.101V13.009H197.698V11.8108H197.857C198.021 11.8108 198.162 11.8532 198.265 11.9318C198.375 12.0166 198.509 12.2163 198.68 12.537L198.924 13.009H199.661L199.314 12.422C199.192 12.2163 199.119 12.0952 199.094 12.065ZM198.582 11.3086C198.497 11.3328 198.284 11.3449 197.936 11.3449H197.692V10.5522H197.936C198.277 10.5522 198.491 10.5643 198.576 10.5945C198.662 10.6188 198.729 10.6672 198.777 10.7277C198.826 10.7942 198.851 10.8668 198.851 10.9455C198.851 11.0302 198.826 11.1028 198.777 11.1694C198.729 11.236 198.662 11.2844 198.582 11.3086Z" fill="white"/>
<path d="M28.0893 27.102C25.0228 19.7741 21.9502 12.4522 18.8715 5.12433L18.8349 5.03961C18.5118 4.27112 18.1765 3.47842 17.768 2.72807C17.1096 1.5239 15.9147 0.888535 14.3113 0.888535H14.287C12.6653 0.894586 11.446 1.57231 10.7693 2.8491C10.5925 3.18191 10.4279 3.52683 10.2877 3.86569C7.23948 11.0544 4.18517 18.2492 1.14304 25.444L0.990633 25.801C0.661425 26.5695 0.326121 27.3683 0.0944561 28.1791C-0.10063 28.8629 0.00910598 29.5346 0.399278 30.0671C0.838221 30.6722 1.59418 31.0413 2.47207 31.0897C2.594 31.0897 2.71592 31.1018 2.83175 31.1018C4.25832 31.1018 5.02647 30.5814 5.59954 29.2744C5.87388 28.639 6.15431 27.9855 6.45304 27.2836C7.77597 26.1157 10.3365 24.8268 14.2565 24.8268C18.9263 24.8268 21.0113 26.0915 22.0782 27.4591C22.3586 28.1126 22.6452 28.76 22.9195 29.4015C23.2121 30.0671 23.5779 30.5088 24.0778 30.7751C24.5107 31.0837 25.035 31.2592 25.5776 31.2592C25.8702 31.2592 26.1689 31.2108 26.4554 31.1018C26.5896 31.0534 26.7176 30.9929 26.8395 30.9264C27.3333 30.769 27.7418 30.5028 28.0222 30.1458C28.4673 29.5769 28.6014 28.8327 28.3941 27.9855C28.3271 27.7253 28.2295 27.4349 28.0954 27.1081L28.0893 27.102ZM14.2443 19.7197C12.3422 19.7197 10.6596 19.9435 9.19034 20.3127L9.36104 19.8588H9.30617L14.2748 7.90179L19.2007 19.8588L19.3409 20.2461C17.8961 19.9133 16.2134 19.7136 14.2504 19.7136L14.2443 19.7197Z" fill="white"/>
</svg>
