<svg width="200" height="30" xmlns="http://www.w3.org/2000/svg" xml:space="preserve" fill-rule="evenodd" stroke-linejoin="round" stroke-miterlimit="2" clip-rule="evenodd" viewBox="0 0 200 30"><path fill="#0069ff" d="M47.96.08A15.08 15.08 0 0 0 31.38 15c0 8.23 6.77 15 15 15a15.08 15.08 0 0 0 14.93-16.53A15.03 15.03 0 0 0 47.96.07Zm-.49 22.86a8.04 8.04 0 0 1-9.07-7.93c0-4.4 3.62-8 8-8a8.04 8.04 0 0 1 7.95 9.04 8.02 8.02 0 0 1-6.88 6.9ZM69.34.67a3.52 3.52 0 0 0-3.42 4.22 3.58 3.58 0 0 0 3.55 2.78h9.75L64.06 27.74a1 1 0 0 0 .79 1.6h23.78a3.58 3.58 0 0 0 3.62-3.5 3.5 3.5 0 0 0-3.49-3.5H76.9L92.04 2.29a1 1 0 0 0-.8-1.62h-21.9Zm95.03.08a3.56 3.56 0 0 0-2.73 3.51v11.66L142.75.9a1 1 0 0 0-1.63.79v24.07a3.56 3.56 0 0 0 3.48 3.6c1.92 0 3.5-1.58 3.5-3.5V14.07L167 29.13c.17.14.39.22.62.22a1 1 0 0 0 1-1V4.16a3.51 3.51 0 0 0-4.25-3.42ZM115.2 7c7.99 0 13.96 4.22 13.96 8 0 3.78-5.97 8-13.96 8-8 0-13.96-4.22-13.96-8 0-3.78 5.97-8 13.96-8m0-7c-11.57 0-20.94 6.72-20.94 15 0 8.29 9.37 15 20.94 15 11.56 0 20.94-6.72 20.94-15 0-8.28-9.38-15-20.94-15Z"/></svg>