<svg xmlns="http://www.w3.org/2000/svg" width="1156" height="309" fill="none">
  <path fill="#1ECAD3" d="m17.5 30 9.6-22.5h4.4L41.1 30h-4.9L34 24.8h-9.4L22.3 30h-4.8Zm8.5-9h6.6l-3.3-7.8L26 21Zm17.8 9V14h12.7v3.8h-8.2V30h-4.5Zm25.3-16.4c4.4 0 7.5 3.7 7.5 8.4s-3 8.4-7.5 8.4a6.4 6.4 0 0 1-5.3-2.4v8.4h-4.5V14h4.5v2a6.3 6.3 0 0 1 5.3-2.4Zm-1.3 4a4.5 4.5 0 0 0-4 2.4V24a4.5 4.5 0 0 0 4 2.4c2.5 0 4.3-2 4.3-4.5s-1.8-4.4-4.3-4.4Zm20 12.8c-4.9 0-9-3.2-9-8.4a8 8 0 0 1 8.4-8.4c4.8 0 7.6 4 7.6 8.5v1.1H83.4c.4 2.3 2.6 3.4 5.3 3.4 2 0 3.7-.6 5.1-1.4v3.6c-1.3 1-3.6 1.6-6 1.6Zm-4.4-10h7c-.1-1.7-1.3-3.2-3.4-3.2a3.5 3.5 0 0 0-3.6 3.2Zm18.1 9.6V17.8h-5V14h14.6v3.8h-5V30h-4.6Zm27.5-3.5c.3 0 .6 0 .9-.2v3.3c-.5.4-1.6.7-2.4.7-1.7 0-3-.7-3.6-2a7.4 7.4 0 0 1-5.6 2.1c-3.4 0-5.8-2-5.8-5.3 0-3.6 3.1-5.3 6.3-5.3 2.1 0 3.5.5 4.6 1v-.5c0-2.6-2.2-3-4.3-3-1.6 0-3.5.6-4.8 1.4v-3.8c1.2-.6 3-1.3 6-1.3 4.4 0 7.6 2.3 7.6 6.3v5.4c0 .8.4 1.2 1 1.2Zm-5.6-1.2v-1.6a6 6 0 0 0-3.4-1c-1.8 0-3 .8-3 2.1 0 1.5 1.2 2.1 2.8 2.1 1.5 0 2.8-.6 3.6-1.6Zm12.2 4.7V17.8h-5V14h14.6v3.8h-5V30h-4.6Zm20-3.5c2.6 0 4.5-2 4.5-4.5s-1.9-4.4-4.5-4.4c-2.5 0-4.4 1.9-4.4 4.4 0 2.6 1.9 4.5 4.4 4.5Zm0 4c-5.2 0-8.8-3.8-8.8-8.5 0-4.6 3.6-8.4 8.8-8.4 5.3 0 9 3.8 9 8.4 0 4.7-3.7 8.4-9 8.4Zm22-16.9c4.4 0 7.5 3.7 7.5 8.4s-3 8.4-7.5 8.4a6.4 6.4 0 0 1-5.3-2.4v8.4h-4.5V14h4.5v2a6.3 6.3 0 0 1 5.3-2.4Zm-1.3 4a4.5 4.5 0 0 0-4 2.4V24a4.5 4.5 0 0 0 4 2.4c2.5 0 4.3-2 4.3-4.5s-1.8-4.4-4.3-4.4ZM204.7 30V14h4.5v16h-4.5Zm-16.3 0V14h4.5v4.7h3.3c4 0 6.6 2.2 6.6 5.6 0 3.1-2.1 5.7-6.4 5.7h-8Zm4.5-3.5h2.6c1.7 0 2.8-.8 2.8-2.2 0-1.4-1-2.2-2.8-2.2h-2.6v4.4ZM424.5 30V7.6h4.6v14.6l10.8-14.6h4V30h-4.6V15.3l-11 14.7h-3.8Zm24 0V14h4.6v6h6.6v-6h4.5v16h-4.5v-6.3H453V30h-4.5Zm23.3 0V17.8h-5V14h14.6v3.8h-5V30h-4.6Zm20 .4c-4.7 0-8.8-3.2-8.8-8.4a8 8 0 0 1 8.3-8.4c4.9 0 7.7 4 7.7 8.5v1.1h-11.5c.5 2.3 2.6 3.4 5.4 3.4 1.9 0 3.6-.6 5-1.4v3.6c-1.2 1-3.5 1.6-6 1.6Zm-4.3-10h7c0-1.7-1.3-3.2-3.3-3.2a3.5 3.5 0 0 0-3.7 3.2Zm24.7-6.8c4.4 0 7.5 3.7 7.5 8.4s-3.1 8.4-7.5 8.4a6.4 6.4 0 0 1-5.3-2.4v8.4h-4.5V14h4.5v2a6.3 6.3 0 0 1 5.3-2.4Zm-1.3 4a4.5 4.5 0 0 0-4 2.4V24a4.5 4.5 0 0 0 4 2.4c2.5 0 4.3-2 4.3-4.5s-1.8-4.4-4.3-4.4ZM523 30V14h4.5v6h6.6v-6h4.5v16h-4.5v-6.3h-6.6V30H523Zm27.8.4c-4.8 0-8.8-3.2-8.8-8.4a8 8 0 0 1 8.3-8.4c4.8 0 7.6 4 7.6 8.5v1.1h-11.5c.5 2.3 2.7 3.4 5.4 3.4 2 0 3.7-.6 5.1-1.4v3.6c-1.3 1-3.6 1.6-6 1.6Zm-4.4-10h7c0-1.7-1.2-3.2-3.3-3.2a3.5 3.5 0 0 0-3.7 3.2Zm18.2 9.6V17.8h-5V14h14.6v3.8h-5V30h-4.6Zm13-6.8V19h9.8v4h-9.9Zm30.3 3.3c.3 0 .6 0 1-.2v3.3c-.6.4-1.6.7-2.5.7-1.6 0-3-.7-3.6-2a7.4 7.4 0 0 1-5.5 2.1c-3.4 0-5.9-2-5.9-5.3 0-3.6 3.2-5.3 6.3-5.3 2.2 0 3.6.5 4.6 1v-.5c0-2.6-2.2-3-4.2-3-1.6 0-3.6.6-4.8 1.4v-3.8c1.1-.6 3-1.3 5.9-1.3 4.4 0 7.6 2.3 7.6 6.3v5.4c0 .8.5 1.2 1.1 1.2Zm-5.6-1.2v-1.6a6 6 0 0 0-3.3-1c-1.9 0-3.2.8-3.2 2.1 0 1.5 1.3 2.1 2.9 2.1 1.5 0 2.9-.6 3.6-1.6Zm10 4.7V14h15.4v16h-4.5V17.8h-6.4V30h-4.5Zm23 0V17.8h-5V14H645v3.8h-5V30h-4.6Zm20 .4c-4.7 0-8.8-3.2-8.8-8.4a8 8 0 0 1 8.3-8.4c4.9 0 7.7 4 7.7 8.5v1.1H651c.5 2.3 2.6 3.4 5.4 3.4 1.9 0 3.6-.6 5-1.4v3.6c-1.2 1-3.5 1.6-6 1.6Zm-4.3-10h7c0-1.7-1.3-3.2-3.3-3.2a3.5 3.5 0 0 0-3.7 3.2Zm15 9.6V14h4.4V20L676 14h5.6l-7 7.2 8 8.8h-5.8l-6.3-6.9V30H666Zm19 0V14h4.5v9.4l7.3-9.4h4.2v16h-4.5v-9.4l-7.2 9.4h-4.2ZM916.5 30V7.6h4.5l6.5 9.3 6.5-9.3h4.6V30H934V14.7l-5.1 7.2h-2.6l-5.2-7.2V30h-4.6Zm42-3.5c.3 0 .6 0 .9-.2v3.3c-.5.4-1.6.7-2.4.7-1.7 0-3-.7-3.6-2a7.4 7.4 0 0 1-5.6 2.1c-3.4 0-5.8-2-5.8-5.3 0-3.6 3.1-5.3 6.3-5.3 2.1 0 3.5.5 4.6 1v-.5c0-2.6-2.2-3-4.3-3-1.6 0-3.5.6-4.8 1.4v-3.8c1.2-.6 3-1.3 6-1.3 4.4 0 7.6 2.3 7.6 6.3v5.4c0 .8.4 1.2 1 1.2Zm-5.6-1.2v-1.6a6 6 0 0 0-3.4-1c-1.8 0-3 .8-3 2.1 0 1.5 1.2 2.1 2.8 2.1 1.5 0 2.8-.6 3.6-1.6Zm19.7-11.7c4.4 0 7.5 3.7 7.5 8.4s-3 8.4-7.5 8.4a6.4 6.4 0 0 1-5.3-2.4v8.4h-4.5V14h4.5v2a6.3 6.3 0 0 1 5.3-2.4Zm-1.3 4a4.5 4.5 0 0 0-4 2.4V24a4.5 4.5 0 0 0 4 2.4c2.5 0 4.3-2 4.3-4.5s-1.8-4.4-4.3-4.4ZM983.4 30V14h4.5V20l5.5-5.9h5.6l-7 7.2 8 8.8h-5.8l-6.3-6.9V30h-4.5Zm25.8.4c-4.9 0-8.9-3.2-8.9-8.4a8 8 0 0 1 8.3-8.4c4.9 0 7.6 4 7.6 8.5v1.1h-11.4c.5 2.3 2.6 3.4 5.3 3.4 2 0 3.7-.6 5.1-1.4v3.6c-1.3 1-3.6 1.6-6 1.6Zm-4.4-10h7c0-1.7-1.3-3.2-3.4-3.2-2 0-3.4 1.3-3.6 3.2ZM1023 30V17.8h-5V14h14.5v3.8h-5V30h-4.5Zm12.2 0V14h15.4v16h-4.5V17.8h-6.4V30h-4.5Zm26.2-12.2V20c-.2 4.8-1 10.1-6.3 10.1-.6 0-1.2 0-1.6-.3v-3.6h.9c2.2 0 2.5-2.8 2.6-7.5V14h13.9v16h-4.6V17.8h-4.9Zm21.7 12.6c-4.8 0-8.9-3.2-8.9-8.4a8 8 0 0 1 8.3-8.4c4.9 0 7.7 4 7.7 8.5v1.1h-11.5c.5 2.3 2.6 3.4 5.3 3.4 2 0 3.7-.6 5.2-1.4v3.6c-1.4 1-3.7 1.6-6.1 1.6Zm-4.4-10h7c0-1.7-1.3-3.2-3.4-3.2a3.5 3.5 0 0 0-3.6 3.2Zm15 9.6V14h4.4v9.4l7.2-9.4h4.2v16h-4.4v-9.4l-7.3 9.4h-4.2Zm7.8-17.7c-3.2 0-5.7-2-5.7-5.5h3.4c0 1.4.8 2.3 2.3 2.3 1.5 0 2.3-.9 2.4-2.3h3.4c0 3.5-2.5 5.5-5.8 5.5Zm20 18.1c-4.5 0-8.6-3.2-8.6-8.4 0-5.3 4.1-8.4 8.7-8.4 2 0 3.3.3 4.7 1v4a9 9 0 0 0-4-1c-2.7 0-5 1.7-5 4.4s2.3 4.5 5 4.5a8 8 0 0 0 4.3-1.1v3.8c-1.6.9-3 1.2-5 1.2Zm25.2-.4V14h4.5v16h-4.5Zm-16.3 0V14h4.5v4.7h3.3c4 0 6.6 2.2 6.6 5.6 0 3.1-2.1 5.7-6.4 5.7h-8Zm4.5-3.5h2.6c1.7 0 2.8-.8 2.8-2.2 0-1.4-1-2.2-2.8-2.2h-2.6v4.4Z"/>
  <g fill="#BEBEBE" fill-rule="evenodd" clip-path="url(#clip0_2001_2)" clip-rule="evenodd">
    <path d="M20.1 122A26.3 26.3 0 0 1 36 98a25.3 25.3 0 0 1 28 5.6 26.3 26.3 0 0 1 0 36.8 25.5 25.5 0 0 1-35.7.5l10.9-9.8a11.1 11.1 0 0 0 14.7-1 11.4 11.4 0 0 0 0-16.1 11.1 11.1 0 0 0-17.7 2.4 11.5 11.5 0 0 0 .1 11.5l-10.9 9.8a26 26 0 0 1-5.2-15.7Zm30.4 6.5a1 1 0 0 1 .1-1.2 6.6 6.6 0 0 0 2.6-5.5 7 7 0 0 0-2.2-5.1.8.8 0 0 1-.2-.6.9.9 0 0 1 .2-.7 1 1 0 0 1 1.3 0 8.6 8.6 0 0 1 2.8 6.8 8.7 8.7 0 0 1-3.3 6.5l-.6.1c-.3 0-.5 0-.7-.3ZM108.6 136.7c-2.8 0-5.3-.6-7.4-1.7a13.5 13.5 0 0 1-7-10.8h-5v12h-4.6v-28.3h4.6v12h5a15 15 0 0 1 2.1-6.3c1.3-1.9 3-3.4 5-4.5 2-1.2 4.5-1.7 7.4-1.7 3 0 5.8.7 8 2a13 13 0 0 1 5 5.4 16.1 16.1 0 0 1 0 14.5 13.2 13.2 0 0 1-5 5.4 15 15 0 0 1-8 2Zm-10-14.7c0 1.9.4 3.6 1.1 5.2.8 1.6 2 2.9 3.4 3.8 1.7 1 3.6 1.4 5.6 1.4 2.1 0 4-.5 5.4-1.4a8.8 8.8 0 0 0 3.4-3.8c.8-1.6 1.2-3.4 1.2-5.2 0-1.8-.4-3.5-1.2-5.1-.7-1.6-1.9-2.9-3.4-3.8-1.6-1-3.5-1.5-5.4-1.4-2.2 0-4 .4-5.6 1.4a9 9 0 0 0-3.4 3.8c-.7 1.6-1.1 3.4-1 5.1Zm33.6-1.4h-6.6v-3.8H143v3.8h-6.6v15.6h-4.3v-15.6Zm23.3 16a13 13 0 0 1-5.5-1c-1.6-.8-3-2-4-3.5-1-1.7-1.4-3.7-1.4-5.6 0-2.2.5-4.1 1.5-5.6a9 9 0 0 1 3.6-3.5 10 10 0 0 1 4.6-1.2c2 0 3.8.5 5.2 1.3 1.3.8 2.4 2 3 3.4a11.7 11.7 0 0 1 .8 7.2H149a5 5 0 0 0 2.4 3.7c1.5.8 3.2 1.3 5 1.2 2 0 4.1-.4 6-1.4v3.8l-3 1-3.8.3Zm4-11.7c0-1 0-1.8-.5-2.6a4 4 0 0 0-1.6-1.7c-.9-.5-2-.8-3-.8a6 6 0 0 0-3.8 1.4 4.8 4.8 0 0 0-1.7 3.7h10.6Zm8.2-8.1h4.2v7.7h3.2l5.5-7.7h4.8l-6.9 9.6 7.7 9.8h-5l-6.2-8h-3v8h-4.3v-19.4Zm26.4 19.9c-1.7 0-3.3-.5-4.7-1.5a5.3 5.3 0 0 1-2-4.4c0-2.3.9-4 2.5-5 1.9-1 4-1.6 6-1.6 1.6 0 3.3.2 5 .6v-.7c0-1.2-.4-2.2-1.3-3-1-.8-2.4-1.2-3.7-1.1-2.4 0-4.6.5-6.9 1.5v-4c2.4-.8 4.9-1.2 7.4-1.3 2.8 0 5 .7 6.5 2.1 1.5 1.4 2.3 3.6 2.3 6.4v7c0 1 .5 1.4 1.4 1.4.3 0 .8 0 1.3-.2v3c-.8.4-1.7.5-2.7.5-1.9 0-3.1-.7-3.8-2v-.2c-2 1.7-4.6 2.6-7.3 2.5Zm-2.3-6.2c0 .9.4 1.6 1 2.1.7.5 1.6.7 2.6.7a7.6 7.6 0 0 0 5.5-2.2v-3.3c-1.5-.3-2.8-.5-4.1-.5-1.2 0-2.4.2-3.5.8-.5.2-.9.5-1.1 1-.3.4-.4.9-.4 1.4Z"/>
  </g>
  <g fill="#BEBEBE" clip-path="url(#clip1_2001_2)">
    <path fill-rule="evenodd" d="M30.7 199.5v16c0 1.4-.6 2.7-1.5 3.7-1 1-2.3 1.6-3.6 1.6a5 5 0 0 1-3.7-1.6c-1-1-1.5-2.3-1.5-3.7v-2.2l-.5.5c-.4.8-1 1.5-1.9 2a5 5 0 0 1-2.5.6h-.2a4.9 4.9 0 0 1-4.5-2.6l-.5-.5v2.2c0 1.4-.6 2.7-1.5 3.7-1 1-2.3 1.6-3.6 1.6a5 5 0 0 1-3.7-1.6c-1-1-1.5-2.3-1.5-3.7v-15c0-.3 0-.7.2-1l.2-1 .5-.9c.4-.7.9-1.2 1.5-1.6a5 5 0 0 1 4.7-.4l.5.3c.1 0 .3 0 .4.2l.4.3.3.3h.1l6.6 6.8 6.6-6.8.4-.3.4-.3.6-.3.3-.2a5 5 0 0 1 3.8 0c.4.2.7.3 1 .6h.1c.5.3 1 .8 1.4 1.4l.4.9.3 1Zm-7-.9-6.5 6.8 2 2c.5.6 1 1.3 1.2 2.1l7-7.1c.5-.5.8-1.2.8-2 0-.4-.2-1-.5-1.4-.3-.4-.7-.7-1.2-1a2.6 2.6 0 0 0-2.8.6Zm-20.4 0a2.6 2.6 0 0 0-.7 2 2.7 2.7 0 0 0 .7 1.8L13.7 213c.4.5 1.1.8 1.8.8.5 0 1-.2 1.5-.5.4-.3.7-.7 1-1.2a2.7 2.7 0 0 0-.7-2.9L7 198.6c-1-1-2.6-1-3.7 0Zm4.5 16.9v-4.8l-5.2-5.3v10c0 .8.3 1.4.8 2 .5.4 1.1.7 1.8.7 1.4 0 2.6-1.2 2.6-2.6Zm17.8 2.6c1.4 0 2.5-1.1 2.5-2.6v-10l-5 5.2v4.8c0 .7.2 1.3.7 1.8.5.5 1.1.8 1.8.8Zm75.9-5.7h-2.8l-1.1 2.3-.3.6-.4.4a1 1 0 0 1-.7.2c-.4 0-.7-.2-1-.3-.9-.4-1.3-.9-1.3-1.4 0-.4.1-.7.3-1l5.6-11.8c.3-.7 1-1.1 1.7-1v6l-1.4 2.9h1.4v3.1ZM58.7 201l.2.6v12.3c0 1-.3 1.6-.8 1.8h-2l-.5-.3a.9.9 0 0 1-.3-.4v-8.2a67 67 0 0 0-1.6 2.1l-1.2 1.8-.4.5a2 2 0 0 1-1.4.6c-.3 0-.6 0-.8-.2-.3-.1-.4-.3-.6-.5l-.2-.2-1.6-2.2-1.3-1.9v7.8c0 .2 0 .4-.2.6-.2.3-.7.5-1.6.5-.9 0-1.3-.2-1.6-.5l-.2-.6v-13l.2-.6c.2-.4.8-.6 1.6-.6.4 0 .7 0 1 .2.2 0 .4.1.5.3h.2l4.6 6.3 4.7-6.2a2 2 0 0 1 1.7-.5c.9 0 1.4.2 1.6.5ZM67 212H74.1l.6.2c.3.2.5.7.5 1.6 0 1-.2 1.6-.8 1.8h-9.2c-1 0-1.5-.2-1.7-.7v-12.7c-.2-.5 0-1 .3-1.5a2 2 0 0 1 1.4-.3H74c.2 0 .4 0 .6.2.4.2.6.7.6 1.6 0 .9-.3 1.5-.8 1.7-.4.1-.7.2-1 .1H67v2.2h4.8c.2 0 .4 0 .6.2.3.2.5.7.5 1.6 0 .9-.2 1.6-.7 1.7l-1.1.2h-4v2.1Zm19-5.6h3.6c.8 0 1.2.3 1.4.6.2.4.2.8.2 1.2v4.6c0 .5-.2 1-.6 1.3a7 7 0 0 1-5.2 1.8 7.1 7.1 0 0 1-5.3-2.3 7.9 7.9 0 0 1-2.3-5.7 7.5 7.5 0 0 1 2.3-5.6 7.6 7.6 0 0 1 10.1-.6 1.2 1.2 0 0 1 .6.9c0 .4-.2.8-.5 1.2-.5.7-1 1.1-1.5 1.1-.4 0-.9-.3-1.2-.6-.7-.4-1.4-.6-2.1-.5a4 4 0 0 0-4 4c0 1.2.4 2.3 1.2 3a3.9 3.9 0 0 0 2.8 1.4c.7 0 1.4-.1 2-.4v-2.3H86c-.3 0-.6 0-.9-.2l-.2-.2-.1-.3-.1-.8v-1l.4-.4 1-.2Z" clip-rule="evenodd"/>
    <path d="M123 203.4a5.7 5.7 0 0 1-1.4 6.7c-1 .9-2.2 1.3-3.5 1.4h-2.6v3l-.2.6c-.2.4-.8.6-1.6.6-1 0-1.6-.3-1.7-.8l-.2-1v-12.5l.2-.5c.2-.4.8-.6 1.7-.6h4.4c1.3 0 2.5.5 3.5 1.3.6.5 1 1 1.4 1.8Zm-21.5 9v-3.1h1.4l-1.4-2.9v-6c.7 0 1.4.4 1.7 1l5.6 11.7c.1.4.3.7.3 1.1 0 .5-.4 1-1.3 1.4-.3.2-.7.3-1 .3-.5 0-.9-.2-1-.5a9 9 0 0 1-.4-.7l-1-2.2-2.9-.1Zm16.6-4.6c.4 0 .9-.2 1.2-.5.4-.3.7-.8.6-1.4 0-.5-.1-1-.6-1.4a2 2 0 0 0-1.2-.5h-2.6v3.8h2.6Zm9-7.5h11.4c.3 0 .7 0 1 .2l.4.5v1.8a.7.7 0 0 1-.4.4l-1 .2h-4v11.2c0 .2 0 .4-.2.6l-.2.2-.3.2-1 .1a3 3 0 0 1-1-.1.8.8 0 0 1-.6-.4l-.2-.6V203.3h-4l-1-.1a.8.8 0 0 1-.3-.5c-.2-.6-.2-1.2 0-1.8v-.2l.3-.2 1-.2Zm20 11.7h7.1l.6.3c.4.1.5.7.5 1.6 0 .9-.2 1.5-.7 1.7-.4.1-.7.2-1.1.1h-8.2c-1 0-1.5-.2-1.7-.8l-.1-1v-11.7c0-.5 0-1 .4-1.5.4-.3 1-.4 1.5-.4h8.8l.6.2c.4.2.5.8.5 1.7 0 .9-.2 1.5-.7 1.7l-1.1.1h-6.3v2.2h4.8c.2 0 .4 0 .6.2.3.2.5.7.5 1.6 0 .9-.2 1.6-.7 1.7l-1.1.2h-4v2l-.2.2Zm19-4 4 4.6c.3.4.6.8.7 1.3 0 .4-.3.8-.9 1.3-.3.4-.8.7-1.3.7-.4 0-.8-.3-1.3-.9l-4.5-5.2v4.8l-.2.6c-.2.3-.8.5-1.6.5-1 0-1.6-.3-1.8-.8v-13.5l.1-.6c.2-.3.8-.5 1.6-.5 1 0 1.6.3 1.7.8l.2 1v4a263 263 0 0 0 4.5-5.2c.5-.6.9-.8 1.2-.8.6 0 1 .3 1.4.7.6.5.8.9.8 1.3 0 .5-.2.9-.6 1.3l-4 4.6Zm16.5-6.6 5.6 11.7c.2.4.3.7.3 1.1 0 .5-.4 1-1.2 1.4-.4.2-.7.3-1.1.3-.4 0-.8-.2-1-.5l-.4-.7-1-2.2H178l-1 2.2-.4.6c0 .2-.2.3-.3.4a1 1 0 0 1-.7.2c-.4 0-.8-.1-1.1-.3-.8-.4-1.3-.9-1.3-1.4 0-.4.2-.7.4-1l5.6-11.8c.3-.7 1-1.1 1.8-1 .7 0 1.4.4 1.6 1Zm-1.6 5-1.4 2.9h2.7l-1.3-2.9Zm15 5.3c.4.5.5 1 .4 1.7v1l-.2.6c-.3.5-.9.7-1.9.7-.6.1-1.3 0-1.9-.4-.4-.5-.5-1.2-.4-1.8v-1c0-.2 0-.4.2-.6.2-.5.8-.7 1.8-.7.7-.1 1.4 0 2 .5Zm15.6 1.4.3 1.1c0 .6-.4 1-1.2 1.4a3 3 0 0 1-1.1.3 1 1 0 0 1-.7-.2l-.3-.4-1.6-3.9h-3.4V214.5c0 .2 0 .4-.2.6-.2.3-.7.5-1.6.5-.8 0-1.5-.2-1.7-.7l-.1-1.1v-12.3l.2-.6c.2-.4.7-.6 1.6-.6h4.5c1.3 0 2.6.5 3.6 1.3a5.5 5.5 0 0 1 1.8 4.3 5.3 5.3 0 0 1-1.5 4l1.4 3.2Zm-8-5.3h2.7a2 2 0 0 0 1.2-.5c.5-.3.7-.9.6-1.4 0-.5-.1-1-.6-1.4a2 2 0 0 0-1.2-.5h-2.7v3.8Zm21.7-7c.1-.2.4-.3.6-.4a4 4 0 0 1 2 0l.5.2.2.5.2 1v6.5c0 1.8-.6 3.6-1.7 5a6 6 0 0 1-5 2.4 6.1 6.1 0 0 1-5-2.5 8.2 8.2 0 0 1-1.6-5v-7.1l.2-.5c.1-.3.3-.4.6-.5a5 5 0 0 1 2 0c.3 0 .5.2.6.5l.3 1.2v6.3c0 .9.2 1.7.6 2.5.2.4.5.7 1 1 .4.2.9.3 1.4.3.9 0 1.7-.4 2.2-1.1.5-.8.8-1.7.8-2.7V202c0-.4 0-.8.2-1.1Z"/>
  </g>
  <g fill="#BEBEBE" clip-path="url(#clip2_2001_2)">
    <path d="M630.4 135.4c-1.4 0-2.5-.4-3.5-1.4-.9-1-1.4-2.3-1.3-3.6 0-1.5.4-2.7 1.3-3.7a4.6 4.6 0 0 1 3.5-1.5c1.3 0 2.5.5 3.4 1.5a5 5 0 0 1 1.4 3.7c0 1.4-.5 2.6-1.4 3.6a4.5 4.5 0 0 1-3.4 1.4Zm11.5-.6v-27.5h6.5l.5 4.9h.2c.8-1.7 2-3.2 3.5-4.2a7.5 7.5 0 0 1 7.3-.8l-1.3 7a9 9 0 0 0-2.9-.4c-1.1 0-2.2.4-3.2 1.1-1 .8-2 2-2.7 4v15.9H642Zm29.5.6c-3 0-5-1-6.4-2.9-1.2-2-1.9-4.7-1.9-8.1v-17h8v16c0 2 .2 3.3.7 4 .6.8 1.4 1.1 2.6 1.1 1 0 1.8-.2 2.5-.7.8-.6 1.6-1.4 2.2-2.3v-18.1h7.9v27.4h-6.5l-.5-3.8h-.2c-1 1.3-2.3 2.4-3.7 3.3a9 9 0 0 1-4.7 1.2ZM468 135.4c-1.2 0-2.3-.2-3.4-.6a7 7 0 0 1-2.4-1.7 9 9 0 0 1-1.7-2.7c-.3-1-.5-2.1-.5-3.3 0-2.8 1.2-5 3.6-6.7 2.3-1.6 6.1-2.7 11.4-3.3 0-1-.4-2-1-2.8-.7-.8-1.7-1.1-3.2-1.1-1.1 0-2.3.2-3.4.6-1.1.5-2.3 1-3.6 1.8l-2.9-5.3c1.7-1 3.5-2 5.4-2.6 2-.7 4-1 6-1 3.5 0 6 1 7.9 3 1.8 2 2.7 5.1 2.7 9.4v15.7h-6.4l-.6-2.8h-.2c-1 1-2.3 1.8-3.6 2.5-1.2.6-2.6 1-4.1 1Zm2.7-6.3c.9 0 1.6-.2 2.3-.6.7-.5 1.4-1 2-1.7V122a14 14 0 0 0-5.8 1.8c-1 .8-1.6 1.7-1.6 2.8 0 .8.3 1.5.8 2 .6.3 1.3.6 2.3.6Zm19 15.9v-37.7h6.4l.5 2.8h.2c1-1 2.3-1.8 3.5-2.4a9.4 9.4 0 0 1 8.5 0c1.3.6 2.4 1.6 3.3 2.8 1 1.3 1.6 2.8 2 4.4.5 1.7.8 3.6.8 5.7 0 2.4-.4 4.5-1 6.3-.6 1.7-1.4 3.3-2.5 4.7-1 1.2-2.3 2.2-3.6 2.9-1.3.6-2.7 1-4.2 1-1.1 0-2.3-.3-3.3-.8-1.1-.5-2.2-1.2-3-2.1l.2 4.3v8h-7.9Zm12-16.2c1.4 0 2.6-.6 3.6-1.9 1-1.3 1.4-3.3 1.4-6.2 0-5-1.5-7.4-4.6-7.4-1.5 0-3 .8-4.6 2.5V127a6.3 6.3 0 0 0 4.3 1.8Zm27.6 6.6c-1.6 0-3-.2-4.2-.7a7.7 7.7 0 0 1-4.5-5.5c-.3-1.4-.5-2.9-.5-4.4v-11h-3.6v-6.1l4-.4 1-7.3h6.5v7.3h6.4v6.4H528v11c0 1.6.4 2.7 1 3.4a3.4 3.4 0 0 0 2.5 1c.8 0 1.7-.3 2.5-.6l1.3 6-2.6.6c-1 .2-2 .3-3.4.3Zm21.4 0a12.8 12.8 0 0 1-9.6-3.8 13.3 13.3 0 0 1-3-4.5c-.6-1.9-1-4-1-6 0-2.2.4-4.2 1.1-6 .7-1.7 1.6-3.2 2.8-4.6a12.1 12.1 0 0 1 13.7-2.8c1.4.6 2.6 1.5 3.5 2.7 1 1.3 1.8 2.7 2.2 4.2.8 3 1 6 .4 8.8h-16a7 7 0 0 0 2.4 4.5c1.3 1 2.9 1.4 4.5 1.3 2 0 3.9-.6 5.8-1.8l2.6 5c-2.8 1.9-6 3-9.4 3Zm-6-17.3h9.7c0-1.6-.4-2.8-1-3.8-.7-1-1.9-1.4-3.5-1.4a5 5 0 0 0-3.3 1.3c-1 1-1.7 2.4-1.9 3.9Zm21.9 16.7V96h7.7v22.2h.2l8.4-10.9h8.6l-9.3 11.3 10 16.2h-8.5l-6-10.7-3.4 4v6.7h-7.7Zm35.7.6a8.2 8.2 0 0 1-5.9-2.3 9 9 0 0 1-1.6-2.7c-.3-1-.5-2.1-.5-3.3 0-2.8 1.2-5 3.5-6.7 2.4-1.6 6.2-2.7 11.5-3.3 0-1-.4-2-1-2.8-.7-.8-1.7-1.1-3.2-1.1-1.1 0-2.3.2-3.4.6-1.2.5-2.4 1-3.6 1.8l-2.9-5.3c1.7-1 3.5-2 5.4-2.6 2-.7 4-1 6-1 3.5 0 6 1 7.9 3 1.8 2 2.7 5.1 2.7 9.4v15.7h-6.4l-.6-2.8h-.2c-1 1-2.3 1.8-3.6 2.5-1.3.6-2.7 1-4.1 1Zm2.7-6.3c.8 0 1.6-.2 2.3-.6.7-.5 1.4-1 2-1.7V122a14 14 0 0 0-5.8 1.8c-1 .8-1.6 1.7-1.6 2.8 0 .8.2 1.5.8 2 .6.3 1.3.6 2.3.6Z"/>
  </g>
  <g clip-path="url(#clip3_2001_2)">
    <path fill="#BEBEBE" fill-rule="evenodd" d="m553.2 199.4 10.3 25.1h-4.8l-2.3-6H545l-2.3 6h-4.5l10-25h5Zm-6.6 15h8.1l-4-10.2-4.1 10.3Zm38-10.8h-13.2v21h-4.5v-25.2H589v25.1h-4.4v-21Zm29.1 0h-8.3v21h-4.5v-21h-8.2v-4.1h21v4Zm19.6 10h-11.4v6.8h13v4.1h-17.4v-25h17v4H622v6h11.4v4.2Zm-98.9 0H523v6.8h13.1v4.1h-17.5v-25h17.1v4H523v6h11.4v4.2Zm110.3 11h-4.5v-25.2h4.5V210h3.7l8-10.6h5.3l-9.4 12 11 13.1h-5.7l-9-10.8h-4v10.8Zm34.1-25.2 10.2 25.1h-4.7l-2.4-6h-11.4l-2.3 6h-4.5l10-25h5.1Zm-6.7 15h8.2l-4-10.2-4.2 10.3Zm-175-10.4h.8c1.3 0 2.6.5 3.5 1.4a5 5 0 0 1 1.4 3.5v6.1a5 5 0 0 1-3 4.6c-.6.3-1.2.4-1.9.4h-6.4c-1.5 0-2.2.8-2.2 2.3v6.5a5 5 0 0 1-3 4.6c-.6.2-1.3.4-2 .4h-6a4.8 4.8 0 0 1-4.4-3.1 5 5 0 0 1-.4-2v-6.4c0-1.6-.8-2.3-2.2-2.3h-6.4c-1.3 0-2.6-.5-3.5-1.4a5 5 0 0 1-1.4-3.6v-6a5 5 0 0 1 1.4-3.6c1-.9 2.2-1.4 3.5-1.4h6.4c1.4 0 2.2-.8 2.2-2.3v-6.5a5 5 0 0 1 3-4.6c.6-.2 1.3-.4 2-.4h6a4.8 4.8 0 0 1 4.4 3.1c.3.6.4 1.2.4 1.9v6.5c0 1.5.6 2.3 2.2 2.3h1.1l-3.3 4.5a5 5 0 0 1-3.2-1.5 5 5 0 0 1-1.3-3.4V197c0-1.6-.6-2.3-2.3-2.3h-2.2c-1.5 0-2.3.8-2.3 2.3v6.5a5 5 0 0 1-1.4 3.5c-1 1-2.2 1.4-3.5 1.4h-6.3c-1.7 0-2.3 1.1-2.3 2.4v2.3c0 1.3.8 2.3 2.2 2.3h6.4c1.3 0 2.6.5 3.5 1.4a5 5 0 0 1 1.4 3.5v6.5c0 1.5.7 2.3 2.2 2.3h2.3c1.5 0 2.3-.9 2.3-2.3v-6.5a5 5 0 0 1 1.4-3.5c1-1 2.2-1.4 3.5-1.5h6.4c1.5 0 2.2-.8 2.2-2.3v-2.3c0-1.5-.8-2.3-2.3-2.3h-2.2l3.3-4.5Z" clip-rule="evenodd"/>
    <mask id="mask0_2001_2" width="44" height="44" x="459" y="190" maskUnits="userSpaceOnUse" style="mask-type:luminance">
      <path fill="#fff" d="M497.1 204h.8c1.3 0 2.6.5 3.5 1.5a5 5 0 0 1 1.4 3.5v6a5 5 0 0 1-3 4.6c-.6.3-1.2.4-1.9.4h-6.4c-1.5 0-2.2.8-2.2 2.3v6.5a5 5 0 0 1-3 4.6c-.6.2-1.3.4-1.9.4h-6a4.8 4.8 0 0 1-4.5-3.1 5 5 0 0 1-.4-1.9v-6.5c0-1.6-.8-2.3-2.2-2.3h-6.4c-1.3 0-2.6-.5-3.5-1.4a5 5 0 0 1-1.4-3.6v-6a5 5 0 0 1 1.4-3.6c1-.9 2.2-1.4 3.5-1.4h6.4c1.4 0 2.2-.8 2.2-2.3v-6.5a5 5 0 0 1 3-4.6c.6-.2 1.3-.4 2-.4h6a4.8 4.8 0 0 1 4.4 3.1c.3.6.4 1.2.4 1.9v6.5c0 1.5.6 2.3 2.2 2.3h1.1l-3.3 4.5a5 5 0 0 1-3.2-1.5 5 5 0 0 1-1.3-3.4V197c0-1.6-.6-2.3-2.3-2.3h-2.2c-1.5 0-2.3.8-2.3 2.3v6.5a5 5 0 0 1-1.4 3.5c-1 1-2.2 1.4-3.5 1.4h-6.3c-1.7 0-2.3 1.1-2.3 2.4v2.3c0 1.3.8 2.3 2.2 2.3h6.4c1.3 0 2.6.5 3.5 1.4a5 5 0 0 1 1.4 3.5v6.5c0 1.5.7 2.3 2.2 2.3h2.3c1.5 0 2.3-.9 2.3-2.3v-6.5a5 5 0 0 1 1.4-3.5c1-1 2.2-1.4 3.5-1.5h6.4c1.5 0 2.2-.8 2.2-2.3v-2.3c0-1.5-.8-2.3-2.3-2.3h-2.2l3.3-4.5Z"/>
    </mask>
    <g fill="#BEBEBE" fill-rule="evenodd" clip-rule="evenodd" mask="url(#mask0_2001_2)">
      <path d="M478 216.2c16 9.2 24.4 24.9 18.8 35-5.6 10-23.3 10.6-39.3 1.3-16-9.2-24.6-24.9-19-34.9 5.7-10 23.4-10.6 39.4-1.4ZM499 175.7c17.4 10.1 27.3 25.8 22 35-5.2 9.3-23.6 8.7-41-1.4-17.4-10-27.3-25.7-22-35 5.2-9.3 23.6-8.6 41 1.4Z"/>
      <path d="M520.6 159.1c28.2 5.7 48.8 22.2 45.9 36.7-2.9 14.6-28 21.8-56.3 16.2-28.1-5.7-48.7-22.2-45.8-36.7 2.8-14.6 28-21.8 56.2-16.2Z"/>
    </g>
  </g>
  <g fill="#BEBEBE" clip-path="url(#clip4_2001_2)">
    <path fill-rule="evenodd" d="M479 294c0 4-3.8 6.2-9.1 6.2-6.6 0-9.2-3.1-9.9-7.3h5.3c.4 2.4 1.8 3.3 4.5 3.3s3.8-1 3.8-2.6c0-1.3-.6-2.2-3-2.2h-3.3v-4h2.8c2.2 0 2.9-.8 2.9-2 0-1.5-1-2.5-3.5-2.5-1.8 0-3.4.6-3.8 2.7h-5.3c.7-3.6 3-6.6 9.2-6.6 5 0 8.7 2.1 8.7 6 0 2-1 3.3-2.5 4a5 5 0 0 1 3.1 5Zm26.6.8v10h-5.2v-5h-15.2v5H480v-10h3.6c.7-.6 1.1-1.8 1.5-3.9l1.8-11.4h15v15.3h3.7Zm-8.9 0v-10.3h-5.3l-1.1 6.7a9.3 9.3 0 0 1-1.2 3.6h7.6Zm31.9-5.2c0 6.2-4 10.6-9.2 10.6a7.5 7.5 0 0 1-6.4-3.2v12h-5.3v-29.5h5.3v2.8a7.7 7.7 0 0 1 6.4-3.3c5.1 0 9.2 4.4 9.2 10.6Zm-5.3 0c0-3.3-2.2-5.5-5.2-5.5-2.9 0-5.1 2.2-5.1 5.5 0 3.4 2.2 5.6 5.2 5.6 2.9 0 5-2.2 5-5.6Zm28-10.1v20.2H546V297a7.5 7.5 0 0 1-6.3 3.2c-5.2 0-9.2-4.4-9.2-10.6 0-6.3 4-10.6 9.2-10.6a7.5 7.5 0 0 1 6.4 3.3v-2.8h5.2Zm-5.2 10.1c0-3.3-2.3-5.5-5.2-5.5-3 0-5 2.2-5 5.5 0 3.4 2.1 5.6 5 5.6 3 0 5.2-2.2 5.2-5.6Zm25.7 4.3c0 4.2-3.1 5.8-7.3 5.8h-10.7v-20.2h9.8c4 0 7.2 1 7.2 5.1 0 2.1-1 3.2-2.6 4.2 2.3.7 3.6 2.5 3.6 5Zm-5.3-.5c0-1.4-.6-2.1-2.4-2.1h-5v4.3h5c1.8 0 2.4-.7 2.4-2.2Zm-3.4-9.8h-4v4h4c1.8 0 2.4-.7 2.4-2s-.6-2-2.4-2Zm10.3 6c0-6 4.4-10.6 10.5-10.6 4.9 0 9.2 3 10 8.2h-5.4c-.6-2.2-2.5-3.3-4.6-3.3-3.2 0-5.3 2.4-5.2 5.7 0 3.4 2 5.7 5.1 5.7 2.2 0 4.1-1 4.7-3.3h5.4c-.8 5.4-5.2 8.2-10 8.2a10 10 0 0 1-7.5-3 10.4 10.4 0 0 1-3-7.6Zm41.9-10.1v20.2h-5.2v-7.1l.3-6-8.3 13.1h-6v-20.2h5.2v7.2l-.3 5.9 8.3-13.1h6Zm19.8 5h-6.2v15.2h-5.3v-15.2h-6.2v-5h17.7v5Zm21.3-5v20.2h-5.2v-7.1l.3-6-8.3 13.1h-6v-20.2h5.2v7.2l-.3 5.9 8.3-13.1h6Z" clip-rule="evenodd"/>
    <path d="M685.4 281a5.6 5.6 0 0 0-7.9 0l-2.7 2.8-2.8-2.8a5.6 5.6 0 0 0-9 6.1c.2.7.6 1.3 1.1 1.8l2.8 2.8 7.9 7.9 10.6-10.7a5.6 5.6 0 0 0 1.2-6c-.3-.8-.7-1.4-1.2-1.9Z"/>
    <path d="m667 291.7-2.9-2.8a5.5 5.5 0 0 1-1.2-6 5.6 5.6 0 0 1 9.1-1.9l2.8 2.8-7.9 7.9Z"/>
  </g>
  <g clip-path="url(#clip5_2001_2)">
    <path fill="#BEBEBE" fill-rule="evenodd" d="M975 96a17.4 17.4 0 0 0-17.6 10.1 17 17 0 0 0-1.5 6.9 17.2 17.2 0 1 0 34.3-1.7A17 17 0 0 0 974.9 96Zm-.6 26a9.3 9.3 0 0 1-9.6-5.2 9 9 0 0 1-.8-3.8 9.2 9.2 0 1 1 18.2 1.2 9 9 0 0 1-7.8 7.8Zm25-25.2a4 4 0 0 0-3.9 3 4 4 0 0 0 0 1.7 4 4 0 0 0 4 3.2h11.2l-17.4 22.7a1.1 1.1 0 0 0 0 1.2 1.1 1.1 0 0 0 1 .7h27.2c1 0 2.1-.4 2.9-1.2a4 4 0 0 0 1.2-2.8c0-1-.4-2-1.1-2.8a4 4 0 0 0-2.9-1.2H1008l17.4-22.7.2-.6v-.6a1 1 0 0 0-.5-.5l-.6-.1h-25.1Zm108.8 0a4 4 0 0 0-3.1 4V114l-21.6-17a1.1 1.1 0 0 0-1.3-.1c-.2 0-.3.2-.5.4l-.1.6v27.3c0 1 .4 2 1.1 2.8a4 4 0 0 0 2.9 1.3 4 4 0 0 0 4-4V112l21.6 17.1c.2.2.5.3.7.3.3 0 .6-.2.8-.4.3-.2.4-.5.4-.8v-27.4a4 4 0 0 0-1.5-3 4 4 0 0 0-3.4-.9Zm-56.3 7.1c9.1 0 16 4.8 16 9.1s-6.9 9-16 9c-9.2 0-16-4.7-16-9s6.9-9 16-9Zm0-7.9c-13.2 0-24 7.6-24 17s10.8 17 24 17 24-7.6 24-17-10.8-17-24-17Z" clip-rule="evenodd"/>
  </g>
  <defs>
    <clipPath id="clip0_2001_2">
      <path fill="#fff" d="M0 96h228v52H0z"/>
    </clipPath>
    <clipPath id="clip1_2001_2">
      <path fill="#fff" d="M0 195h229v26H0z"/>
    </clipPath>
    <clipPath id="clip2_2001_2">
      <path fill="#fff" d="M460 96h227v49H460z"/>
    </clipPath>
    <clipPath id="clip3_2001_2">
      <path fill="#fff" d="M460 190h229v44H460z"/>
    </clipPath>
    <clipPath id="clip4_2001_2">
      <path fill="#fff" d="M460 279h227v30H460z"/>
    </clipPath>
    <clipPath id="clip5_2001_2">
      <path fill="#fff" d="M920 96h229v34H920z"/>
    </clipPath>
  </defs>
</svg>
