<svg width="1056" height="209" viewBox="0 0 1056 209" fill="none" xmlns="http://www.w3.org/2000/svg">
<path d="M1008.35 41.0899C1007.02 40.9653 923.667 40.9652 922.145 41.1211C916.565 41.7445 912 46.8565 912 52.3737C912 57.8908 916.66 62.6599 922.621 62.9716C926.235 63.1587 929.913 63.034 933.527 63.034C940.565 63.034 944.75 63.034 952.486 63.034V139.869C952.486 141.552 952.39 143.267 952.612 144.95C953.278 150.343 957.653 154.893 962.853 155.766C969.13 156.826 974.932 154.239 977.183 148.909C978.102 146.758 978.261 144.171 978.292 141.802C978.356 118.517 978.324 92.5524 978.356 69.2369C978.356 67.242 978.514 65.2783 978.609 63.2522C980.448 63.1587 981.59 63.0651 982.731 63.034C992.115 63.034 998.614 63.1587 1008 62.9716C1014.4 62.847 1018.97 58.2025 1019 52.2801C1019 46.3578 1014.53 41.5887 1008.35 41.0899Z" fill="white"/>
<path d="M608.821 46.1438C594.895 39 579.56 39 573.798 39H534.581C527.634 39 522 44.4832 522 51.2824V135.661C522 136.006 522 136.35 522.064 136.664V192.185C522.064 193.689 522 195.224 522.096 196.728C522.448 202.556 526.098 206.943 531.988 208.572C537.11 209.982 543.225 207.851 546.01 203.026C547.355 200.676 548.059 197.7 548.091 195.005C548.283 184.007 548.219 173.041 548.187 162.043V160.633C548.187 159.411 548.187 158.221 548.187 156.999V151.453V148.946L576.711 148.601C581.545 148.883 604.018 149.385 620.281 134.784C630.718 125.415 636 112.35 636 95.9313C636 66.3533 621.21 52.5043 608.789 46.1438H608.821ZM603.346 116.611C593.998 125.102 578.216 124.068 578.152 124.068C577.735 124.037 577.319 124.005 576.935 124.005L548.187 124.35V63.5021H573.798C599.793 63.5021 610.869 73.1839 610.869 95.9C610.869 105.237 608.436 112.036 603.378 116.611H603.346Z" fill="white"/>
<path d="M711.803 35C704.649 35 690.697 36.1373 677.711 43.7188C665.08 51.1108 650 66.5898 650 98.4324C650 117.039 655.671 131.728 666.885 142.153C681.578 155.831 700.46 157 706.421 157C706.969 157 707.42 157 707.743 157L737.42 156.842C744.412 156.81 750.051 151.251 750.018 144.396C749.986 137.572 744.315 132.076 737.355 132.076H737.291L707.388 132.234C707.195 132.234 707.098 132.234 706.937 132.234C706.776 132.234 693.178 132.581 684.22 124.115C680.901 120.988 678.517 116.912 677.067 111.89L755.915 111.953C762.199 111.953 767.547 107.467 768.45 101.402C768.643 100.201 772.703 71.7706 755.464 52.2481C745.346 40.781 730.685 35 711.835 35H711.803ZM676.39 87.0917C679.032 73.9503 687.507 59.7349 711.803 59.7349C723.048 59.7349 731.039 62.5464 736.195 68.3273C741.061 73.7607 742.833 81.1528 743.413 87.1549L676.39 87.0917Z" fill="white"/>
<path d="M895.911 51.9339C895.622 44.4048 890.62 39.26 883.502 39.009C876.062 38.758 870.387 43.7774 870.098 51.4006C869.97 54.4749 868.944 58.2394 866.667 60.3099C849.512 75.8386 832.421 91.4927 815.298 107.084C814.08 108.182 812.765 109.186 810.489 111.131V104.135C810.489 88.387 810.489 71.0388 810.489 55.2905C810.489 53.4396 810.553 51.526 810.232 49.7065C809.142 43.495 804.172 39.2286 797.951 39.0404C791.506 38.8521 786.375 42.4284 784.772 48.5458C784.195 50.679 784.035 52.9691 784.035 55.1964C784.003 82.552 784.003 111.507 784.003 138.863C784.003 140.181 783.971 144.729 784.131 146.016C785.093 153.607 790.063 158.062 797.502 157.999C804.877 157.937 809.976 153.356 810.36 145.671C810.521 142.345 811.739 136.918 814.144 134.753C828.541 121.797 842.843 108.747 857.176 95.7278C861.056 92.1829 865 88.6693 870.002 84.1205V91.7123C870.002 108.59 869.906 128.667 870.066 145.514C870.13 153.2 875.068 157.843 882.604 157.968C890.396 158.093 895.558 153.262 895.943 145.545C896.007 144.039 895.943 139.334 895.943 137.828V64.7646C895.943 61.0314 896.071 55.667 895.943 51.9025L895.911 51.9339Z" fill="white"/>
<path d="M259.931 41.0111C253.203 41.0111 248.149 45.1086 246.99 51.7084C246.604 53.9292 246.507 56.2125 246.475 58.4646C246.41 66.0027 246.475 73.5409 246.443 81.0791C246.443 82.7056 246.153 84.3321 245.992 86.2088H190.656C190.559 84.0505 190.366 82.2364 190.366 80.3909C190.334 71.5078 190.495 62.6559 190.27 53.8041C190.076 45.828 184.186 40.7296 176.395 41.0111C170.183 41.23 163.873 47.2355 164.002 54.2732C164.356 71.977 164.099 89.712 164.099 107.416C164.099 119.302 164.195 131.156 164.066 143.042C164.034 147.108 165.418 150.424 168.605 152.989C172.758 156.304 177.522 156.773 182.318 154.928C187.469 152.926 190.205 148.86 190.302 143.48C190.431 134.065 190.334 124.619 190.366 115.204C190.366 113.39 190.527 111.544 190.656 109.543H246.121C246.249 111.701 246.443 113.515 246.475 115.329C246.475 123.055 246.443 130.781 246.475 138.507C246.475 140.946 246.604 143.417 247.086 145.826C248.277 152.113 253.267 155.866 259.931 155.835C266.594 155.773 271.455 151.957 272.646 145.638C273 143.793 273 141.885 273 140.008C273 112.483 273 84.9576 273 57.4637C273 55.5869 273 53.6789 272.678 51.8335C271.487 45.0147 266.723 41.0111 259.931 41.0111Z" fill="white"/>
<path d="M383.347 41.0779C382.016 40.9532 380.684 41.0156 379.321 41.0156H301.742C300.22 41.0156 298.667 40.9532 297.145 41.1091C291.565 41.7326 287 46.8451 287 52.3628C287 57.8806 291.66 62.6502 297.589 62.9619C301.235 63.149 304.881 63.0242 308.527 63.0242C315.565 63.0242 319.718 63.0242 327.486 63.0242V139.868C327.486 141.551 327.39 143.265 327.612 144.949C328.278 150.342 332.622 154.893 337.853 155.766C344.13 156.826 349.932 154.239 352.183 148.908C353.102 146.757 353.261 144.17 353.292 141.8C353.387 118.514 353.324 92.5458 353.356 69.2278C353.356 67.2327 353.514 65.2688 353.609 63.2425C355.448 63.149 356.558 63.0554 357.731 63.0242C367.115 63.0242 373.614 63.149 382.999 62.9619C389.403 62.8372 393.968 58.1923 394 52.2693C394.031 46.3463 389.561 41.5767 383.347 41.0779Z" fill="white"/>
<path d="M470.462 39.0404C470.462 39.0404 470.205 39.0404 470.077 39.0404C469.756 39.0404 469.531 38.9773 469.179 39.0088H420.746C413.786 39.0088 408.141 44.5279 408.141 51.34C408.141 58.1521 413.754 63.7027 420.746 63.7027H469.114C469.435 63.7658 469.788 63.7658 470.141 63.7658C474.728 63.8289 480.822 65.4058 480.822 78.3362V81.0483L444.321 80.9853C440.472 80.7961 422.414 80.4807 410.002 91.7711C404.998 96.3441 399 104.638 399 118.2C399 133.054 405.19 158 446.791 158H493.395C500.355 158 506 152.481 506 145.669V94.0103C506 94.0103 506 93.8211 506 93.7265V78.3677C506 49.7 486.852 39.2926 470.462 39.0719V39.0404ZM480.79 133.275H446.791C427.707 133.275 424.21 128.197 424.21 118.168C424.21 113.154 425.878 111.072 427.097 109.905C430.946 106.341 438.419 105.616 441.883 105.616C442.3 105.616 442.653 105.616 442.942 105.616C443.263 105.648 443.551 105.648 443.872 105.648L480.757 105.711V133.211L480.79 133.275Z" fill="white"/>
<path d="M840.974 22.9796C851.439 22.9796 860.974 17.6722 865.257 9.48662C866.914 6.34303 865.702 2.42374 862.57 0.749874C859.439 -0.923989 855.56 0.300793 853.924 3.4648C851.843 7.40451 846.651 10.0582 840.974 10.0582C835.297 10.0582 830.146 7.42493 828.065 3.50564C826.388 0.36204 822.509 -0.82193 819.378 0.872347C816.267 2.54621 815.095 6.48593 816.752 9.62953C821.075 17.7539 830.57 23 840.954 23L840.974 22.9796Z" fill="white"/>
<path d="M1054.12 47.9846C1052.86 45.7385 1051.13 44.0154 1048.92 42.8154C1046.7 41.6154 1044.42 41 1041.98 41C1039.55 41 1037.3 41.5846 1035.08 42.8154C1032.87 44.0154 1031.14 45.7385 1029.88 47.9846C1028.62 50.2308 1028 52.5692 1028 55C1028 57.4308 1028.62 59.7692 1029.85 61.9846C1031.08 64.1692 1032.81 65.9231 1035.02 67.1538C1037.24 68.3846 1039.55 69 1041.98 69C1044.42 69 1046.76 68.3846 1048.98 67.1538C1051.19 65.9231 1052.92 64.2 1054.15 61.9846C1055.38 59.7692 1056 57.4308 1056 55C1056 52.5692 1055.35 50.2 1054.09 47.9846H1054.12ZM1051.81 60.6C1050.83 62.3846 1049.44 63.7692 1047.65 64.7538C1045.9 65.7692 1044.02 66.2615 1042.05 66.2615C1040.07 66.2615 1038.23 65.7384 1036.44 64.7538C1034.65 63.7692 1033.27 62.3539 1032.28 60.6C1031.3 58.8154 1030.8 56.9385 1030.8 55C1030.8 53.0615 1031.33 51.1231 1032.31 49.3385C1033.33 47.5539 1034.75 46.1692 1036.5 45.1846C1038.26 44.2308 1040.14 43.7385 1042.05 43.7385C1043.96 43.7385 1045.8 44.2 1047.59 45.1846C1049.38 46.1385 1050.76 47.5231 1051.78 49.3385C1052.8 51.1231 1053.29 53.0308 1053.29 55C1053.29 56.9692 1052.77 58.8154 1051.78 60.6H1051.81Z" fill="white"/>
<path d="M1045.9 57.4689C1045.43 56.9461 1045.1 56.5684 1044.83 56.3942C1044.57 56.2199 1044.2 56.0166 1043.7 55.8714C1045.07 55.6971 1046.13 55.2614 1046.9 54.5353C1047.63 53.8091 1048.03 52.9668 1048.03 51.9502C1048.03 51.2241 1047.83 50.527 1047.43 49.946C1047.03 49.3361 1046.53 48.9004 1045.93 48.5809C1045.33 48.2905 1044.5 48.1162 1043.43 48.0291C1043.07 48.0291 1041.33 48 1038.27 48H1035V62H1038.27V56.249H1039.13C1040.03 56.249 1040.8 56.4523 1041.37 56.8299C1041.97 57.2365 1042.7 58.195 1043.63 59.7344L1044.97 62H1049L1047.1 59.1826C1046.43 58.195 1046.03 57.6141 1045.9 57.4689ZM1043.1 53.8382C1042.63 53.9544 1041.47 54.0125 1039.57 54.0125H1038.23V50.2075H1039.57C1041.43 50.2075 1042.6 50.2656 1043.07 50.4108C1043.53 50.527 1043.9 50.7593 1044.17 51.0498C1044.43 51.3693 1044.57 51.7178 1044.57 52.0954C1044.57 52.5021 1044.43 52.8506 1044.17 53.1701C1043.9 53.4896 1043.53 53.722 1043.1 53.8382Z" fill="white"/>
<path d="M147.893 136.373C131.748 98.2502 115.57 60.159 99.3606 22.0363L99.168 21.5955C97.4668 17.5975 95.7014 13.4736 93.5508 9.57001C90.0841 3.30542 83.7928 0 75.351 0H75.2226C66.6844 0.0314804 60.2647 3.55725 56.7017 10.1996C55.7709 11.931 54.9042 13.7254 54.166 15.4883C38.1167 52.887 22.0354 90.3172 6.01826 127.747L5.2158 129.605C3.48248 133.603 1.71706 137.758 0.497323 141.976C-0.529828 145.534 0.0479441 149.028 2.10225 151.798C4.41334 154.946 8.39355 156.867 13.0157 157.119C13.6577 157.119 14.2997 157.181 14.9095 157.181C22.4206 157.181 26.465 154.474 29.4822 147.674C30.9267 144.369 32.4032 140.969 33.976 137.317C40.9414 131.242 54.4227 124.536 75.062 124.536C99.6495 124.536 110.627 131.116 116.244 138.23C117.721 141.63 119.23 144.999 120.674 148.335C122.215 151.798 124.141 154.096 126.773 155.482C129.052 157.087 131.812 158 134.669 158C136.21 158 137.782 157.748 139.291 157.181C139.997 156.93 140.671 156.615 141.313 156.269C143.913 155.45 146.064 154.065 147.54 152.208C149.884 149.248 150.59 145.376 149.498 140.969C149.145 139.615 148.632 138.104 147.926 136.404L147.893 136.373ZM74.9979 97.9669C64.9831 97.9669 56.124 99.1317 48.3882 101.052L49.287 98.6909H48.9981L75.1583 36.4857L101.094 98.6909L101.832 100.706C94.2249 98.9743 85.3657 97.9354 75.03 97.9354L74.9979 97.9669Z" fill="white"/>
</svg>
