<svg width="200" height="45" xmlns="http://www.w3.org/2000/svg" xml:space="preserve" fill-rule="evenodd" stroke-linejoin="round" stroke-miterlimit="2" clip-rule="evenodd" viewBox="0 0 200 45"><path fill="#23b250" d="M17.65 22.53A22.49 22.49 0 0 1 40.09-.02a22.58 22.58 0 0 1 22.6 22.5 22.54 22.54 0 0 1-22.5 22.54 22.4 22.4 0 0 1-15.43-6.17l9.5-8.5a9.67 9.67 0 0 0 5.94 2.02 9.84 9.84 0 0 0 0-19.68 9.84 9.84 0 0 0-8.44 14.89l-9.55 8.5a22.31 22.31 0 0 1-4.56-13.55Zm26.64 5.62a.78.78 0 0 1 .1-1.08 5.75 5.75 0 0 0 2.32-4.76c0-1.66-.7-3.26-1.94-4.4a.73.73 0 0 1 0-1.09.8.8 0 0 1 1.13 0 7.44 7.44 0 0 1-.48 11.44c-.1.1-.33.15-.49.15-.27 0-.48-.05-.64-.26Z"/><path d="M95.3 35.21c-2.49 0-4.65-.49-6.5-1.47a11.8 11.8 0 0 1-4.3-3.95 13.1 13.1 0 0 1-1.88-5.42h-4.4v10.39h-4.03V10.28h4.02v10.39h4.4c.24-1.98.87-3.79 1.9-5.42a11.46 11.46 0 0 1 4.3-3.92c1.84-1 4-1.5 6.5-1.5 2.75 0 5.1.6 7.03 1.78a11.27 11.27 0 0 1 4.4 4.65 13.67 13.67 0 0 1 1.47 6.26c0 2.24-.5 4.32-1.47 6.26a11.49 11.49 0 0 1-4.4 4.68 13.38 13.38 0 0 1-7.03 1.75Zm-8.8-12.69c0 1.6.32 3.1.98 4.48a7.92 7.92 0 0 0 3 3.25 9.06 9.06 0 0 0 4.83 1.22c1.89 0 3.5-.4 4.82-1.22A7.67 7.67 0 0 0 103.1 27a10 10 0 0 0 1.02-4.48c0-1.6-.34-3.09-1.02-4.44a7.62 7.62 0 0 0-2.97-3.28 9.04 9.04 0 0 0-4.82-1.23c-1.89 0-3.5.4-4.83 1.22a7.86 7.86 0 0 0-3 3.3 10.07 10.07 0 0 0-.98 4.43Zm29.46-1.26h-5.8v-3.28h15.34v3.28h-5.8v13.5h-3.74v-13.5Zm20.42 13.95a11.5 11.5 0 0 1-4.8-.98 8.18 8.18 0 0 1-3.45-3 9.03 9.03 0 0 1-1.26-4.86c0-1.91.42-3.53 1.26-4.86a7.93 7.93 0 0 1 3.21-3 8.89 8.89 0 0 1 4.02-.99c1.8 0 3.3.38 4.51 1.12a6.67 6.67 0 0 1 2.73 2.9c.6 1.2.9 2.5.9 3.92 0 .81-.07 1.58-.24 2.3h-12.65a4.3 4.3 0 0 0 2.13 3.22 8.53 8.53 0 0 0 4.34 1.05 12 12 0 0 0 5.31-1.19v3.22c-.77.37-1.68.65-2.73.84a16.7 16.7 0 0 1-3.28.31Zm3.53-10.24a3.97 3.97 0 0 0-.42-2.2 3.4 3.4 0 0 0-1.44-1.5 4.65 4.65 0 0 0-2.55-.64c-1.3 0-2.43.39-3.39 1.16a4.2 4.2 0 0 0-1.5 3.18h9.3Zm7.16-7h3.74v6.65h2.76l4.83-6.64h4.26l-6.08 8.32 6.75 8.46h-4.3l-5.53-6.96h-2.69v6.96h-3.74V17.98Zm23.22 17.24a6.58 6.58 0 0 1-4.16-1.33 4.6 4.6 0 0 1-1.71-3.8c0-1.96.73-3.39 2.2-4.27a9.83 9.83 0 0 1 5.28-1.37c1.37 0 2.82.17 4.34.5v-.6c0-1.07-.39-1.93-1.16-2.59a4.88 4.88 0 0 0-3.25-.98c-2.05 0-4.06.43-6.01 1.3v-3.43a19.9 19.9 0 0 1 6.43-1.12c2.45 0 4.35.6 5.7 1.82 1.35 1.21 2.03 3.05 2.03 5.52v6.02c0 .81.42 1.22 1.26 1.22.27 0 .65-.07 1.11-.2v2.68c-.7.28-1.49.42-2.37.42-1.61 0-2.72-.61-3.33-1.85l-.03-.1a9.6 9.6 0 0 1-6.33 2.16Zm-2.03-5.38c0 .79.3 1.4.91 1.85.6.42 1.36.63 2.24.63a6.75 6.75 0 0 0 4.82-1.96V27.5c-1.3-.28-2.5-.42-3.6-.42a6.6 6.6 0 0 0-3.1.66 2.21 2.21 0 0 0-1.27 2.1Z"/></svg>