<svg width="200" height="26" xmlns="http://www.w3.org/2000/svg" xml:space="preserve" fill-rule="evenodd" stroke-linejoin="round" stroke-miterlimit="2" clip-rule="evenodd" viewBox="0 0 200 26"><path d="M16.66 12.94c0 3.6-3.3 5.42-7.94 5.42-5.78 0-8.07-2.68-8.72-6.29h4.68c.36 2.08 1.62 2.81 3.94 2.81 2.36 0 3.36-.83 3.36-2.26 0-1.06-.52-1.89-2.58-1.89H6.42V7.22h2.49c1.94 0 2.52-.6 2.52-1.72 0-1.22-.78-2.08-3.04-2.08-1.58 0-3 .45-3.35 2.27H.36C.94 2.59 3.06.04 8.46.04c4.45 0 7.62 1.78 7.62 5.14 0 1.78-.9 2.87-2.2 3.51 1.75.7 2.78 2.2 2.78 4.25Zm23.53.73v8.75h-4.62v-4.44H22.24v4.44h-4.61v-8.75h3.16c.61-.51 1-1.53 1.3-3.32l1.6-9.93h13.27v13.25h3.23Zm-7.84 0V4.73h-4.72l-.97 5.84a7.93 7.93 0 0 1-1 3.1h6.68ZM60.4 9.2c0 5.4-3.48 9.16-8.1 9.16a6.74 6.74 0 0 1-5.62-2.74v10.34h-4.61V.42h4.62v2.46A6.74 6.74 0 0 1 52.3.04c4.55 0 8.1 3.73 8.1 9.16Zm-4.67 0c0-2.87-1.9-4.82-4.5-4.82-2.58 0-4.55 1.95-4.55 4.82 0 2.9 1.97 4.82 4.56 4.82 2.55 0 4.49-1.92 4.49-4.82ZM80.44.42l-.03 17.56H75.8v-2.36a6.62 6.62 0 0 1-5.55 2.74c-4.65 0-8.1-3.76-8.1-9.16 0-5.43 3.51-9.16 8.07-9.16a6.7 6.7 0 0 1 5.61 2.84V.42h4.62ZM75.83 9.2c0-2.87-1.97-4.82-4.55-4.82s-4.49 1.95-4.49 4.82c0 2.9 1.94 4.82 4.49 4.82 2.58 0 4.55-1.92 4.55-4.82Zm22.7 3.7c0 3.61-2.8 5.08-6.46 5.08h-9.4V.42h8.6c3.55 0 6.35.93 6.35 4.44 0 1.82-.96 2.78-2.29 3.64 2.07.6 3.2 2.17 3.2 4.4Zm-4.68-.41c0-1.25-.58-1.85-2.13-1.85H87.3v3.76h4.42c1.61 0 2.13-.64 2.13-1.91Zm-2.97-8.5H87.3v3.4h3.58c1.58 0 2.1-.58 2.1-1.67 0-1.15-.52-1.72-2.1-1.72Zm9 5.21c0-5.2 3.9-9.16 9.27-9.16 4.32 0 8.16 2.58 8.84 7.05h-4.75c-.55-1.91-2.22-2.84-4.1-2.84-2.8 0-4.61 2.04-4.58 4.95-.03 2.94 1.84 4.95 4.55 4.95 1.9 0 3.58-.96 4.13-2.87H118c-.7 4.63-4.62 7.08-8.88 7.08a8.97 8.97 0 0 1-9.23-9.16ZM136.83.42v17.56h-4.62v-6.23l.3-5.2-7.33 11.43h-5.33V.42h4.62v6.23l-.23 5.14 7.3-11.37h5.29Zm17.43 4.31h-5.49v13.25h-4.61V4.73h-5.46V.42h15.56v4.31ZM173.05.42v17.56h-4.62v-6.23l.3-5.2-7.34 11.43h-5.32V.42h4.61v6.23l-.22 5.14 7.3-11.37h5.29Z"/><path fill="#ff5b00" fill-rule="nonzero" d="M198.57 1.75a4.93 4.93 0 0 0-6.92 0l-2.44 2.4-2.43-2.4a4.93 4.93 0 0 0-6.92 0 4.8 4.8 0 0 0 0 6.84L182.3 11l6.91 6.84 9.36-9.25a4.8 4.8 0 0 0 0-6.84Z"/><path fill="#ff8150" fill-rule="nonzero" d="m182.3 11-2.44-2.4a4.8 4.8 0 0 1 0-6.85 4.93 4.93 0 0 1 6.92 0l2.43 2.4L182.3 11Z"/></svg>