<svg width="378" height="44" viewBox="0 0 378 44" fill="none" xmlns="http://www.w3.org/2000/svg">
<path d="M366.823 39.3164V22.4199H368.048L371.845 30.4819L375.642 22.4199H376.851V39.3164H375.627V25.3889L372.228 32.5819H371.477L368.048 25.3889V39.3164H366.823Z" fill="white"/>
<path d="M358.98 21.8567C362.025 21.8567 364.316 25.6187 364.316 30.5865C364.316 35.5543 362.025 39.3163 358.98 39.3163C355.951 39.3163 353.66 35.5543 353.66 30.5865C353.66 25.6187 355.951 21.8567 358.98 21.8567ZM358.98 37.4836C361.271 37.4836 363.065 34.5415 363.065 30.5865C363.065 26.6316 361.271 23.6895 358.98 23.6895C356.705 23.6895 354.911 26.6316 354.911 30.5865C354.911 34.5415 356.705 37.4836 358.98 37.4836Z" fill="white"/>
<path d="M347.99 39.3164V24.2061H344.258V22.4199H353.033V24.2061H349.27V39.3164H347.99Z" fill="white"/>
<path d="M339.778 39.3163C336.643 39.3163 334.23 35.7231 334.23 30.5865C334.23 25.4981 336.627 21.8567 339.778 21.8567C340.93 21.8567 341.914 22.2425 342.775 23.0866V25.0882C341.914 24.1959 340.992 23.6895 339.793 23.6895C337.38 23.6895 335.506 26.6075 335.506 30.5865C335.506 34.6138 337.396 37.4836 339.839 37.4836C341.069 37.4836 342.114 36.953 343.005 35.8437V37.8453C342.144 38.8099 341.038 39.3163 339.778 39.3163Z" fill="white"/>
<path d="M322.948 39.3164V22.4199H324.167V36.0336L330.641 22.4199H331.723V39.3164H330.504V25.6544L323.984 39.3164H322.948Z" fill="white"/>
<path d="M319.212 24.2036H314.921L314.875 28.0119C314.784 35.2188 314.178 39.3164 311.509 39.3164C311.327 39.3164 311.145 39.2923 311.039 39.2682V37.4845C311.175 37.5327 311.357 37.5568 311.494 37.5568C313.374 37.5568 313.632 33.0977 313.692 26.5657L313.723 22.4199H320.44V39.2923H319.212V24.2036Z" fill="white"/>
<path d="M299.756 39.3163L304.497 21.8567H305.671L310.411 39.3163H309.1L307.805 34.629H302.317L301.052 39.3163H299.756ZM302.744 32.8434H307.408L305.076 24.3864L302.744 32.8434Z" fill="white"/>
<path d="M289.101 39.3164V22.4199H290.319V36.0336L296.794 22.4199H297.876V39.3164H296.657V25.6544L290.137 39.3164H289.101Z" fill="white"/>
<path d="M286.067 43.2589V39.481H277.192V22.4199H278.438V37.6774H284.36V22.4199H285.621V37.6774H287.221V43.2589H286.067Z" fill="white"/>
<path d="M267.163 39.3164V22.4199H274.458V24.2061H268.386V29.3716H273.355V31.1578H268.386V37.5302H274.684V39.3164H267.163Z" fill="white"/>
<path d="M255.881 39.3164V22.4199H264.656V39.3164H263.355V24.2061H257.166V39.3164H255.881Z" fill="white"/>
<path d="M250.773 39.3163C247.638 39.3163 245.225 35.7231 245.225 30.5865C245.225 25.4981 247.622 21.8567 250.773 21.8567C251.926 21.8567 252.909 22.2425 253.77 23.0866V25.0882C252.909 24.1959 251.987 23.6895 250.788 23.6895C248.376 23.6895 246.501 26.6075 246.501 30.5865C246.501 34.6138 248.391 37.4836 250.834 37.4836C252.064 37.4836 253.109 36.953 254 35.8437V37.8453C253.14 38.8099 252.033 39.3163 250.773 39.3163Z" fill="white"/>
<path d="M233.622 21.8567C236.666 21.8567 238.957 25.6187 238.957 30.5865C238.957 35.5543 236.666 39.3163 233.622 39.3163C230.593 39.3163 228.302 35.5543 228.302 30.5865C228.302 25.6187 230.593 21.8567 233.622 21.8567ZM233.622 37.4836C235.913 37.4836 237.706 34.5415 237.706 30.5865C237.706 26.6316 235.913 23.6895 233.622 23.6895C231.346 23.6895 229.553 26.6316 229.553 30.5865C229.553 34.5415 231.346 37.4836 233.622 37.4836Z" fill="white"/>
<path d="M223.425 39.3163C220.513 39.3163 218.273 35.7231 218.273 30.5865C218.273 25.4981 220.499 21.8567 223.425 21.8567C224.495 21.8567 225.408 22.2425 226.207 23.0866V25.0882C225.408 24.1959 224.552 23.6895 223.439 23.6895C221.198 23.6895 219.457 26.6075 219.457 30.5865C219.457 34.6138 221.213 37.4836 223.482 37.4836C224.623 37.4836 225.594 36.953 226.421 35.8437V37.8453C225.622 38.8099 224.595 39.3163 223.425 39.3163Z" fill="white"/>
<path d="M202.603 39.3164L205.908 31.6164C204.358 31.1337 203.51 29.4199 203.51 27.0544C203.51 24.3027 204.694 22.4199 206.771 22.4199H211.378V39.3164H210.194V31.8095H207.21L204.007 39.3164H202.603ZM206.844 30.0475H210.194V24.2061H206.844C205.484 24.2061 204.694 25.2682 204.694 27.1268C204.694 29.0095 205.484 30.0475 206.844 30.0475Z" fill="white"/>
<path d="M197.726 39.3163C194.815 39.3163 192.575 35.7231 192.575 30.5865C192.575 25.4981 194.801 21.8567 197.726 21.8567C198.797 21.8567 199.71 22.2425 200.509 23.0866V25.0882C199.71 24.1959 198.854 23.6895 197.741 23.6895C195.5 23.6895 193.759 26.6075 193.759 30.5865C193.759 34.6138 195.514 37.4836 197.783 37.4836C198.925 37.4836 199.895 36.953 200.723 35.8437V37.8453C199.924 38.8099 198.896 39.3163 197.726 39.3163Z" fill="white"/>
<path d="M182.545 39.3164V22.4199H183.774V28.6233H186.855C189.298 28.6233 190.694 30.8681 190.694 33.9819C190.694 37.1198 189.298 39.3164 186.855 39.3164H182.545ZM183.774 37.5302H186.779C188.494 37.5302 189.465 36.2509 189.465 33.9819C189.465 31.6888 188.494 30.4095 186.779 30.4095H183.774V37.5302Z" fill="white"/>
<path d="M175.622 39.3164V24.2061H171.89V22.4199H180.665V24.2061H176.902V39.3164H175.622Z" fill="white"/>
<path d="M161.861 39.3163L166.602 21.8567H167.776L172.517 39.3163H171.206L169.91 34.629H164.422L163.157 39.3163H161.861ZM164.849 32.8434H169.514L167.181 24.3864L164.849 32.8434Z" fill="white"/>
<path d="M151.833 39.3164V22.4199H156.568C158.487 22.4199 159.695 23.9406 159.695 26.5233C159.695 28.3578 159.106 29.5888 158.255 30.0957C159.648 30.4578 160.608 32.075 160.608 34.6095C160.608 37.4095 159.277 39.3164 157.033 39.3164H151.833ZM153.086 37.5302H156.8C158.364 37.5302 159.261 36.3957 159.261 34.344C159.261 32.3164 158.364 31.2302 156.8 31.2302H153.086V37.5302ZM153.086 29.4923H156.352C157.683 29.4923 158.441 28.5751 158.441 26.8854C158.441 25.1234 157.683 24.2061 156.352 24.2061H153.086V29.4923Z" fill="white"/>
<path d="M143.99 21.8567C147.035 21.8567 149.325 25.6187 149.325 30.5865C149.325 35.5543 147.035 39.3163 143.99 39.3163C140.961 39.3163 138.67 35.5543 138.67 30.5865C138.67 25.6187 140.961 21.8567 143.99 21.8567ZM143.99 37.4836C146.281 37.4836 148.074 34.5415 148.074 30.5865C148.074 26.6316 146.281 23.6895 143.99 23.6895C141.714 23.6895 139.921 26.6316 139.921 30.5865C139.921 34.5415 141.714 37.4836 143.99 37.4836Z" fill="white"/>
<path d="M128.641 39.3164V22.4199H133.255C135.507 22.4199 136.789 24.3751 136.789 27.1509C136.789 29.975 135.507 31.9543 133.255 31.9543H129.908V39.3164H128.641ZM129.908 30.1681H133.161C134.662 30.1681 135.523 29.1302 135.523 27.1992C135.523 25.244 134.662 24.2061 133.161 24.2061H129.908V30.1681Z" fill="white"/>
<path d="M117.359 39.3164V22.4199H118.578V36.0336L125.052 22.4199H126.134V39.3164H124.915V25.6544L118.395 39.3164H117.359Z" fill="white"/>
<path d="M110.435 39.3164V24.2061H106.703V22.4199H115.478V24.2061H111.715V39.3164H110.435Z" fill="white"/>
<path d="M98.5552 39.3164V22.4199H99.7842V28.6233H102.865C105.308 28.6233 106.704 30.8681 106.704 33.9819C106.704 37.1198 105.308 39.3164 102.865 39.3164H98.5552ZM99.7842 37.5302H102.789C104.503 37.5302 105.474 36.2509 105.474 33.9819C105.474 31.6888 104.503 30.4095 102.789 30.4095H99.7842V37.5302Z" fill="white"/>
<path d="M94.1926 24.2036H89.9011L89.8556 28.0119C89.7646 35.2188 89.1581 39.3164 86.4891 39.3164C86.3072 39.3164 86.1252 39.2923 86.019 39.2682V37.4845C86.1555 37.5327 86.3375 37.5568 86.474 37.5568C88.3543 37.5568 88.6121 33.0977 88.6728 26.5657L88.7031 22.4199H95.421V39.2923H94.1926V24.2036Z" fill="white"/>
<path d="M79.6613 39.3164C79.1433 39.3164 78.6725 39.2452 78.2487 38.9841V37.1806C78.6411 37.4416 79.1119 37.5128 79.4573 37.5128C80.5403 37.5128 81.0269 36.1601 81.639 34.3329L77.2441 22.4199H78.6568L82.2826 32.3157L85.2962 22.4199H86.6461L82.5965 35.5194C81.6861 38.4858 80.6815 39.3164 79.6613 39.3164Z" fill="white"/>
<path d="M73.3901 39.3163C70.255 39.3163 67.8423 35.7231 67.8423 30.5865C67.8423 25.4981 70.2397 21.8567 73.3901 21.8567C74.5427 21.8567 75.5263 22.2425 76.3869 23.0866V25.0882C75.5263 24.1959 74.6042 23.6895 73.4055 23.6895C70.9927 23.6895 69.1178 26.6075 69.1178 30.5865C69.1178 34.6138 71.0081 37.4836 73.4516 37.4836C74.6811 37.4836 75.7261 36.953 76.6174 35.8437V37.8453C75.7568 38.8099 74.6503 39.3163 73.3901 39.3163Z" fill="white"/>
<path d="M56.5601 39.3164V22.4199H57.8114V29.3716H64.0838V22.4199H65.3352V39.3164H64.0838V31.1578H57.8114V39.3164H56.5601Z" fill="white"/>
<path d="M48.7174 21.8567C51.7619 21.8567 54.0527 25.6187 54.0527 30.5865C54.0527 35.5543 51.7619 39.3163 48.7174 39.3163C45.6881 39.3163 43.3972 35.5543 43.3972 30.5865C43.3972 25.6187 45.6881 21.8567 48.7174 21.8567ZM48.7174 37.4836C51.0083 37.4836 52.8018 34.5415 52.8018 30.5865C52.8018 26.6316 51.0083 23.6895 48.7174 23.6895C46.4417 23.6895 44.6481 26.6316 44.6481 30.5865C44.6481 34.5415 46.4417 37.4836 48.7174 37.4836Z" fill="white"/>
<path d="M35.8068 22.4199V29.6613L40.4295 22.4199H41.9948L37.021 30.144L42.7702 39.3164H41.1317L35.8068 30.844V39.3164H34.6218V22.4199H35.8068Z" fill="white"/>
<path d="M26.7797 21.8567C29.8241 21.8567 32.115 25.6187 32.115 30.5865C32.115 35.5543 29.8241 39.3163 26.7797 39.3163C23.7503 39.3163 21.4595 35.5543 21.4595 30.5865C21.4595 25.6187 23.7503 21.8567 26.7797 21.8567ZM26.7797 37.4836C29.0705 37.4836 30.864 34.5415 30.864 30.5865C30.864 26.6316 29.0705 23.6895 26.7797 23.6895C24.5039 23.6895 22.7104 26.6316 22.7104 30.5865C22.7104 34.5415 24.5039 37.4836 26.7797 37.4836Z" fill="white"/>
<path d="M11.4307 39.3164V22.4199H16.0444C18.2965 22.4199 19.579 24.3751 19.579 27.1509C19.579 29.975 18.2965 31.9543 16.0444 31.9543H12.6975V39.3164H11.4307ZM12.6975 30.1681H15.9506C17.452 30.1681 18.3122 29.1302 18.3122 27.1992C18.3122 25.244 17.452 24.2061 15.9506 24.2061H12.6975V30.1681Z" fill="white"/>
<path d="M0.148438 39.3164V22.4199H8.29676V39.3164H7.08852V24.2061H1.34195V39.3164H0.148438Z" fill="white"/>
<path d="M371.883 0.45459C374.897 0.45459 377.165 4.26905 377.165 9.3061C377.165 14.3431 374.897 18.1576 371.883 18.1576C368.883 18.1576 366.615 14.3431 366.615 9.3061C366.615 4.26905 368.883 0.45459 371.883 0.45459ZM371.883 16.2993C374.151 16.2993 375.927 13.3162 375.927 9.3061C375.927 5.29602 374.151 2.31292 371.883 2.31292C369.629 2.31292 367.853 5.29602 367.853 9.3061C367.853 13.3162 369.629 16.2993 371.883 16.2993Z" fill="white"/>
<path d="M354.397 17.864V0.747803H355.591L359.292 8.91467L362.993 0.747803H364.172V17.864H362.978V3.75536L359.665 11.042H358.934L355.591 3.75536V17.864H354.397Z" fill="white"/>
<path d="M342.928 17.864V0.747803H344.122V14.5386L350.464 0.747803H351.524V17.864H350.33V4.02433L343.943 17.864H342.928Z" fill="white"/>
<path d="M330.119 21.654V16.0546H331.119C332.298 13.2671 332.895 10.0639 332.895 2.8751V0.747803H339.431V16.0546H340.998V21.654H339.864V17.864H331.253V21.654H330.119ZM332.462 16.0546H338.222V2.55723H334.074C334.074 8.74351 333.73 12.9981 332.462 16.0546Z" fill="white"/>
<path d="M324.213 0.45459C327.228 0.45459 329.496 4.26905 329.496 9.3061C329.496 14.3431 327.228 18.1576 324.213 18.1576C321.214 18.1576 318.945 14.3431 318.945 9.3061C318.945 4.26905 321.214 0.45459 324.213 0.45459ZM324.213 16.2993C326.481 16.2993 328.257 13.3162 328.257 9.3061C328.257 5.29602 326.481 2.31292 324.213 2.31292C321.96 2.31292 320.184 5.29602 320.184 9.3061C320.184 13.3162 321.96 16.2993 324.213 16.2993Z" fill="white"/>
<path d="M308.38 17.864L312.558 8.57234L309.051 0.747803H310.484L313.29 6.95853L316.11 0.747803H317.513L314.006 8.54789L318.184 17.864H316.752L313.275 10.1617L309.798 17.864H308.38Z" fill="white"/>
<path d="M299.18 17.864V0.747803H306.358V2.55723H300.388V7.15415H303.477C305.85 7.15415 307.193 9.37925 307.193 12.5091C307.193 15.6633 305.85 17.864 303.477 17.864H299.18ZM300.388 16.0546H303.358C305.029 16.0546 305.985 14.7831 305.985 12.5091C305.985 10.2351 305.029 8.96357 303.358 8.96357H300.388V16.0546Z" fill="white"/>
<path d="M291.424 0.45459C294.438 0.45459 296.706 4.26905 296.706 9.3061C296.706 14.3431 294.438 18.1576 291.424 18.1576C288.424 18.1576 286.156 14.3431 286.156 9.3061C286.156 4.26905 288.424 0.45459 291.424 0.45459ZM291.424 16.2993C293.692 16.2993 295.468 13.3162 295.468 9.3061C295.468 5.29602 293.692 2.31292 291.424 2.31292C289.17 2.31292 287.394 5.29602 287.394 9.3061C287.394 13.3162 289.17 16.2993 291.424 16.2993Z" fill="white"/>
<path d="M277.262 17.864V0.747803H284.469V2.55723H278.47V7.78989H283.38V9.59932H278.47V16.0546H284.693V17.864H277.262Z" fill="white"/>
<path d="M265.909 17.864V0.747803H267.118V7.78989H273.177V0.747803H274.385V17.864H273.177V9.59932H267.118V17.864H265.909Z" fill="white"/>
<path d="M257.926 16.6659C257.926 15.9079 258.284 15.2966 258.761 15.2966C259.224 15.2966 259.582 15.9079 259.582 16.6659C259.582 17.4239 259.224 18.0108 258.761 18.0108C258.284 18.0108 257.926 17.4239 257.926 16.6659Z" fill="white"/>
<path d="M246.58 17.864L249.952 10.0639C248.37 9.57486 247.505 7.83879 247.505 5.44253C247.505 2.65504 248.714 0.747803 250.833 0.747803H255.533V17.864H254.325V10.2595H251.28L248.012 17.864H246.58ZM250.907 8.47454H254.325V2.55723H250.907C249.519 2.55723 248.714 3.6331 248.714 5.51588C248.714 7.42312 249.519 8.47454 250.907 8.47454Z" fill="white"/>
<path d="M235.961 17.864V0.747803H237.155V14.5386L243.497 0.747803H244.557V17.864H243.363V4.02433L236.976 17.864H235.961Z" fill="white"/>
<path d="M224.609 17.864V0.747803H225.818V7.78989H231.876V0.747803H233.085V17.864H231.876V9.59932H225.818V17.864H224.609Z" fill="white"/>
<path d="M212.314 17.8641L216.955 0.650146H218.104L222.745 17.8641H221.462L220.193 13.2428H214.821L213.582 17.8641H212.314ZM215.239 11.4822H219.805L217.522 3.14422L215.239 11.4822Z" fill="white"/>
<path d="M206.953 18.1576C205.371 18.1576 204.266 17.6197 203.401 16.8128V14.8077C204.266 15.6635 205.565 16.2993 206.773 16.2993C208.743 16.2993 209.937 14.93 209.937 12.8027C209.937 10.8955 208.833 9.55062 207.102 9.55062H205.803V7.74119H207.236C208.669 7.74119 209.504 6.71422 209.504 5.0026C209.504 3.24208 208.46 2.31292 207.012 2.31292C205.729 2.31292 204.669 2.89976 203.878 3.51105V1.65272C204.654 1.06588 205.669 0.45459 207.072 0.45459C209.161 0.45459 210.698 2.14176 210.698 4.9048C210.698 7.1299 209.654 8.20577 209.012 8.5481C209.937 9.01268 211.176 10.3331 211.176 12.925C211.176 15.8836 209.639 18.1576 206.953 18.1576Z" fill="white"/>
<path d="M191.999 17.8641L196.64 0.650146H197.789L202.43 17.8641H201.147L199.878 13.2428H194.506L193.267 17.8641H191.999ZM194.924 11.4822H199.49L197.207 3.14422L194.924 11.4822Z" fill="white"/>
<path d="M184.313 0.747803V8.08331L189.028 0.747803H190.625L185.551 8.57234L191.416 17.864H189.745L184.313 9.28144V17.864H183.104V0.747803H184.313Z" fill="white"/>
<path d="M175.349 0.45459C178.363 0.45459 180.632 4.26905 180.632 9.3061C180.632 14.3431 178.363 18.1576 175.349 18.1576C172.349 18.1576 170.081 14.3431 170.081 9.3061C170.081 4.26905 172.349 0.45459 175.349 0.45459ZM175.349 16.2993C177.617 16.2993 179.393 13.3162 179.393 9.3061C179.393 5.29602 177.617 2.31292 175.349 2.31292C173.095 2.31292 171.32 5.29602 171.32 9.3061C171.32 13.3162 173.095 16.2993 175.349 16.2993Z" fill="white"/>
<path d="M159.379 17.864V0.747803H167.632V17.864H166.408V2.55723H160.588V17.864H159.379Z" fill="white"/>
<path d="M151.624 0.45459C154.638 0.45459 156.906 4.26905 156.906 9.3061C156.906 14.3431 154.638 18.1576 151.624 18.1576C148.624 18.1576 146.356 14.3431 146.356 9.3061C146.356 4.26905 148.624 0.45459 151.624 0.45459ZM151.624 16.2993C153.892 16.2993 155.668 13.3162 155.668 9.3061C155.668 5.29602 153.892 2.31292 151.624 2.31292C149.37 2.31292 147.595 5.29602 147.595 9.3061C147.595 13.3162 149.37 16.2993 151.624 16.2993Z" fill="white"/>
<path d="M136.193 17.864V0.747803H140.76C142.61 0.747803 143.774 2.28826 143.774 4.90459C143.774 6.76292 143.207 8.00996 142.386 8.52344C143.729 8.89022 144.655 10.5285 144.655 13.0959C144.655 15.9323 143.371 17.864 141.207 17.864H136.193ZM137.402 16.0546H140.984C142.491 16.0546 143.356 14.9053 143.356 12.8269C143.356 10.773 142.491 9.67267 140.984 9.67267H137.402V16.0546ZM137.402 7.91215H140.551C141.834 7.91215 142.565 6.98298 142.565 5.27137C142.565 3.48639 141.834 2.55723 140.551 2.55723H137.402V7.91215Z" fill="white"/>
<path d="M124.724 17.864V0.747803H125.918V14.5386L132.26 0.747803H133.32V17.864H132.126V4.02433L125.739 17.864H124.724Z" fill="white"/>
<path d="M117.937 17.864V2.55723H114.37V0.747803H122.757V2.55723H119.16V17.864H117.937Z" fill="white"/>
<path d="M108.384 0.45459C111.399 0.45459 113.667 4.26905 113.667 9.3061C113.667 14.3431 111.399 18.1576 108.384 18.1576C105.385 18.1576 103.117 14.3431 103.117 9.3061C103.117 4.26905 105.385 0.45459 108.384 0.45459ZM108.384 16.2993C110.653 16.2993 112.429 13.3162 112.429 9.3061C112.429 5.29602 110.653 2.31292 108.384 2.31292C106.131 2.31292 104.355 5.29602 104.355 9.3061C104.355 13.3162 106.131 16.2993 108.384 16.2993Z" fill="white"/>
<path d="M93.6401 17.864V0.747803H98.0424C100.191 0.747803 101.415 2.72839 101.415 5.54033C101.415 8.40118 100.191 10.4062 98.0424 10.4062H94.8489V17.864H93.6401ZM94.8489 8.5968H97.9529C99.3855 8.5968 100.206 7.54537 100.206 5.58924C100.206 3.60865 99.3855 2.55723 97.9529 2.55723H94.8489V8.5968Z" fill="white"/>
<path d="M82.5059 17.864V0.747803H90.7582V17.864H89.5346V2.55723H83.7146V17.864H82.5059Z" fill="white"/>
<path d="M66.7471 17.864L70.1197 10.0639C68.5378 9.57486 67.6723 7.83879 67.6723 5.44253C67.6723 2.65504 68.8811 0.747803 71.0001 0.747803H75.7008V17.864H74.4921V10.2595H71.4478L68.1797 17.864H66.7471ZM71.0747 8.47454H74.4921V2.55723H71.0747C69.6869 2.55723 68.8811 3.6331 68.8811 5.51588C68.8811 7.42312 69.6869 8.47454 71.0747 8.47454Z" fill="white"/>
<path d="M62.2634 18.1576C59.2191 18.1576 56.8762 14.5143 56.8762 9.3061C56.8762 4.14679 59.2042 0.45459 62.2634 0.45459C63.3826 0.45459 64.3377 0.845816 65.1734 1.70163V3.73112C64.3377 2.8264 63.4423 2.31292 62.2783 2.31292C59.9354 2.31292 58.1148 5.27157 58.1148 9.3061C58.1148 13.3895 59.9503 16.2993 62.3231 16.2993C63.5169 16.2993 64.5317 15.7613 65.3972 14.6366V16.6661C64.5615 17.6441 63.4871 18.1576 62.2634 18.1576Z" fill="white"/>
<path d="M51.3666 17.864V2.55723H47.8V0.747803H56.1867V2.55723H52.5903V17.864H51.3666Z" fill="white"/>
<path d="M42.1839 18.1576C39.4977 18.1576 37.4682 14.6855 37.2891 10.0397H35.2149V17.8642H34.0061V0.748009H35.2149V8.23023H37.3041C37.6025 3.80447 39.5574 0.45459 42.1839 0.45459C45.0192 0.45459 47.0935 4.2935 47.0935 9.3061C47.0935 14.3187 45.0192 18.1576 42.1839 18.1576ZM42.1839 16.2993C44.2283 16.2993 45.8698 13.5851 45.8698 9.3061C45.8698 5.02705 44.2283 2.31292 42.1839 2.31292C40.1394 2.31292 38.4979 5.02705 38.4979 9.3061C38.4979 13.5851 40.1394 16.2993 42.1839 16.2993Z" fill="white"/>
<path d="M24.4612 17.864V0.747803H31.669V2.55723H25.6699V7.78989H30.5796V9.59932H25.6699V16.0546H31.8928V17.864H24.4612Z" fill="white"/>
<path d="M11.8113 17.864V0.747803H13.0051L16.706 8.91467L20.4069 0.747803H21.5858V17.864H20.392V3.75536L17.0791 11.042H16.3478L13.0051 3.75536V17.864H11.8113Z" fill="white"/>
<path d="M0.342285 17.864V0.747803H1.53612V14.5386L7.87836 0.747803H8.93789V17.864H7.74406V4.02433L1.35704 17.864H0.342285Z" fill="white"/>
</svg>
