<svg width="200" height="42" xmlns="http://www.w3.org/2000/svg" xml:space="preserve" fill-rule="evenodd" stroke-linejoin="round" stroke-miterlimit="2" clip-rule="evenodd" viewBox="0 0 200 42"><path fill="#ff465c" fill-rule="nonzero" d="M150.1 33.81c-1.2 0-2.21-.41-3.03-1.23a4.44 4.44 0 0 1-1.19-3.13c0-1.27.4-2.31 1.19-3.13a4.05 4.05 0 0 1 3.03-1.28c1.2 0 2.2.42 2.99 1.28a4.24 4.24 0 0 1 1.23 3.13c0 1.23-.4 2.27-1.23 3.13a3.97 3.97 0 0 1-2.99 1.23Zm10.19-.57V9.72h5.69l.47 4.13h.2a9.09 9.09 0 0 1 3.08-3.56 6.7 6.7 0 0 1 5.21-1c.44.07.84.18 1.19.34l-1.14 6.02a8.19 8.19 0 0 0-2.56-.38 5.2 5.2 0 0 0-2.8.95c-.95.63-1.74 1.75-2.37 3.36v13.66h-6.97Zm25.96.57c-2.56 0-4.43-.84-5.6-2.51-1.13-1.68-1.7-4-1.7-6.97V9.73h6.97v13.7c0 1.7.23 2.87.7 3.5.48.64 1.23.95 2.24.95.88 0 1.62-.2 2.23-.61a9.01 9.01 0 0 0 1.94-2V9.73H200v23.52h-5.69l-.52-3.27h-.14a13.01 13.01 0 0 1-3.27 2.84c-1.14.67-2.52 1-4.13 1Z"/><path fill="#1c257b" fill-rule="nonzero" d="M7.02 33.81a7.41 7.41 0 0 1-2.94-.57 6.18 6.18 0 0 1-2.18-1.47A7.7 7.7 0 0 1 .47 29.5 8.02 8.02 0 0 1 0 26.7c0-2.47 1.04-4.4 3.13-5.79 2.09-1.39 5.45-2.32 10.1-2.8a3.8 3.8 0 0 0-.95-2.46c-.54-.63-1.45-.95-2.75-.95-1.01 0-2.02.19-3.03.57-.98.38-2.04.9-3.18 1.56l-2.51-4.6c1.5-.9 3.08-1.65 4.74-2.22 1.71-.58 3.5-.87 5.31-.86 3.03 0 5.34.87 6.92 2.61 1.61 1.7 2.42 4.38 2.42 8.02v13.46h-5.69l-.47-2.42h-.2a15.7 15.7 0 0 1-3.17 2.19c-1.1.53-2.32.8-3.65.8Zm2.37-5.4c.79 0 1.47-.18 2.04-.53a9.98 9.98 0 0 0 1.8-1.47V22.3c-2.47.35-4.17.85-5.12 1.52-.95.66-1.42 1.45-1.42 2.37 0 .76.23 1.32.7 1.7.51.35 1.18.53 2 .53Zm16.7 13.56V9.72h5.7l.47 2.33h.2c.91-.83 1.95-1.52 3.07-2.04a8.48 8.48 0 0 1 7.44 0 8.18 8.18 0 0 1 2.9 2.41 10.8 10.8 0 0 1 1.8 3.8c.45 1.45.67 3.08.67 4.88 0 2.03-.29 3.83-.86 5.4a12.2 12.2 0 0 1-2.23 4 9.52 9.52 0 0 1-3.17 2.46 8.27 8.27 0 0 1-3.65.85c-1.02 0-2-.2-2.94-.62a9.84 9.84 0 0 1-2.66-1.84l.24 3.74v6.88H26.1Zm10.72-13.85c1.2 0 2.23-.54 3.09-1.61.85-1.1 1.28-2.88 1.28-5.31 0-4.24-1.36-6.36-4.08-6.36-1.36 0-2.7.71-4.03 2.14v9.62a5.6 5.6 0 0 0 3.75 1.52Zm24.28 5.69c-1.46 0-2.7-.22-3.75-.66a6.75 6.75 0 0 1-2.51-1.85 8.03 8.03 0 0 1-1.43-2.85 15.46 15.46 0 0 1-.42-3.74v-9.53h-3.23V10l3.6-.29.81-6.26h5.79v6.26h5.64v5.46h-5.64v9.43c0 1.33.27 2.3.8 2.9a3 3 0 0 0 2.23.85 7.43 7.43 0 0 0 2.23-.47l1.1 5.07c-.64.19-1.38.38-2.24.57-.85.19-1.85.28-2.98.28Zm18.79 0c-1.68 0-3.24-.27-4.7-.8a11.28 11.28 0 0 1-3.8-2.42 11.34 11.34 0 0 1-2.5-3.9 14.1 14.1 0 0 1-.9-5.2c0-1.9.31-3.61.94-5.13a12.03 12.03 0 0 1 2.47-3.89 10.78 10.78 0 0 1 12.04-2.46 8.42 8.42 0 0 1 3.13 2.37 9.82 9.82 0 0 1 1.9 3.6 16.65 16.65 0 0 1 .33 7.54H74.71a5.9 5.9 0 0 0 2.08 3.8 6.76 6.76 0 0 0 4.03 1.18c1.68 0 3.37-.52 5.08-1.56l2.32 4.22a15.4 15.4 0 0 1-8.34 2.65Zm-5.22-14.89h8.49c0-1.33-.3-2.4-.9-3.23-.6-.82-1.61-1.23-3.04-1.23-1.08 0-2.12.38-2.94 1.1a5.55 5.55 0 0 0-1.61 3.36Zm19.23 14.32V0h6.78v19.06h.2l7.44-9.34h7.58l-8.25 9.68 8.87 13.84h-7.54l-5.3-9.15-3 3.37v5.78H93.9Zm31.45.57a7.4 7.4 0 0 1-2.94-.57 6.18 6.18 0 0 1-2.19-1.47 7.72 7.72 0 0 1-1.42-2.27 7.97 7.97 0 0 1-.47-2.8c0-2.47 1.04-4.4 3.13-5.79 2.08-1.39 5.45-2.32 10.1-2.8a3.79 3.79 0 0 0-.95-2.46c-.54-.63-1.45-.95-2.75-.95-1.01 0-2.02.19-3.04.57-.98.38-2.04.9-3.17 1.56l-2.52-4.6c1.5-.9 3.1-1.65 4.74-2.22a16.4 16.4 0 0 1 5.32-.86c3.03 0 5.34.87 6.92 2.61 1.61 1.7 2.42 4.38 2.42 8.01v13.47h-5.7l-.47-2.42h-.19c-.96.86-2.03 1.59-3.17 2.18a8.24 8.24 0 0 1-3.65.81Zm2.37-5.4c.79 0 1.47-.18 2.04-.53a9.95 9.95 0 0 0 1.8-1.47V22.3c-2.47.35-4.18.85-5.13 1.52-.94.66-1.42 1.45-1.42 2.37 0 .76.24 1.32.71 1.7.51.35 1.17.53 2 .53Z"/></svg>