<svg width="58" height="58" viewBox="0 0 58 58" fill="none" xmlns="http://www.w3.org/2000/svg">
<g clip-path="url(#clip0_69_380)">
<path d="M17.9938 17.819C18.6985 15.0753 20.078 12.6765 21.7575 10.435C22.0199 10.0827 22.3123 9.79783 22.7846 9.8653C23.2569 9.93277 23.4744 10.2701 23.6093 10.6899C23.6843 10.9148 23.7818 11.1322 23.9017 11.4396C24.4265 10.6074 24.8839 9.84281 25.4237 9.12315C27.1556 6.83674 29.2849 5.0076 31.7515 3.55329C32.6362 3.02854 33.0186 3.14848 33.5434 4.02557C33.8133 4.47536 34.0832 4.92514 34.3756 5.40491C34.8105 4.99261 35.2228 4.57281 35.6727 4.19049C37.3596 2.77366 39.3764 1.98654 41.4232 1.28187C43.365 0.622182 45.3593 0.164899 47.4136 -2.30684e-05C47.9384 -0.0375053 48.3058 0.149906 48.6132 0.577203C50.8849 3.71072 52.4894 7.13659 53.1941 10.9523C53.3666 11.8743 53.3291 12.8264 53.2241 13.8009C53.8914 13.666 54.4987 13.5461 55.106 13.4261C55.7133 13.3062 56.1481 13.5461 56.2981 14.1608C56.7929 16.2073 56.9353 18.2838 56.8079 20.3903C56.6954 22.122 56.328 23.8087 55.7732 25.5704C56.5905 25.323 57.3927 24.7457 58.0075 25.7278V26.6348C57.895 26.6723 57.91 26.7698 57.8875 26.8597C57.3102 29.5585 56.4405 32.1372 54.8361 34.4312C54.2887 35.2183 53.6815 35.9604 53.0367 36.6801C53.2391 36.815 53.449 36.815 53.6515 36.83C54.6711 36.9125 55.0235 37.6021 54.4612 38.4717C53.4041 40.091 52.1295 41.5228 50.615 42.7297C49.273 43.7942 47.781 44.6038 46.2065 45.271C46.6939 46.0207 46.6789 46.2755 46.1091 46.9502C45.1269 48.1122 43.8898 48.9143 42.5103 49.5215C41.3482 50.0313 40.1261 50.3236 38.8366 50.5785C38.994 50.7359 39.0915 50.8484 39.204 50.9458C39.5563 51.2532 39.7738 51.613 39.6013 52.0853C39.4289 52.5501 39.039 52.655 38.5667 52.715C37.4121 52.8574 36.2725 52.715 35.1329 52.6025C31.8865 52.1003 29.1649 50.6909 27.2006 47.9922C26.9682 47.6699 26.7357 47.5724 26.3609 47.6174C23.6018 47.9547 21.1052 47.1901 18.8035 45.7058C17.379 44.7837 16.1719 43.6293 15.1447 42.2724C14.8898 41.9351 14.7624 41.5678 14.9798 41.1705C15.1747 40.8106 15.4971 40.6457 15.917 40.6607C16.1119 40.6682 16.3218 40.7357 16.5468 40.6082C16.3068 40.1734 16.0519 39.7611 15.8345 39.3263C14.7624 37.2423 14.1026 35.0758 14.4925 32.6995C14.5599 32.2797 14.7249 31.8824 15.1597 31.8149C15.7445 31.7249 15.5571 31.4551 15.4446 31.1102C14.335 27.7593 14.2825 24.3859 15.1897 20.99C15.4371 20.0755 16.1944 19.8656 16.9141 20.4803C17.0716 20.6152 17.1915 20.8251 17.4764 20.8626C17.5964 19.8206 17.7389 18.8236 18.0013 17.8415L17.9938 17.819ZM36.2875 24.2435C36.8723 22.9391 37.3896 21.7097 37.9669 20.5103C38.1918 20.038 38.1843 19.6781 37.8919 19.2284C36.1225 16.4997 35.0654 13.4786 34.3156 10.3376C34.1282 9.56544 34.698 8.98822 35.4253 9.19062C35.8601 9.31806 36.0175 9.68538 36.115 10.0752C36.4149 11.2596 36.7523 12.4291 37.1497 13.5835C37.652 15.0453 38.3268 16.4247 39.1515 17.8115C39.9087 16.1248 40.621 14.5131 41.3482 12.9014C41.4532 12.6765 41.3857 12.5115 41.3032 12.3241C40.546 10.6 40.0811 8.77832 39.5863 6.97167C39.4514 6.46941 39.7138 6.02712 40.2086 5.86969C40.6585 5.72726 41.1158 5.94466 41.3032 6.40944C41.3707 6.58186 41.4082 6.76927 41.4607 6.94918C41.7756 8.03617 42.098 9.12315 42.4128 10.2101C42.4578 10.2101 42.5028 10.2101 42.5478 10.2101C43.7549 7.50392 44.9695 4.79021 46.2065 2.01652C45.9891 2.03151 45.8542 2.01652 45.7267 2.04651C43.2676 2.53378 40.8834 3.26093 38.6491 4.41538C37.2621 5.13504 36.0101 6.04211 35.2528 7.45894C35.0579 7.82627 34.818 8.09614 34.4131 8.11113C34.0007 8.13362 33.7233 7.89373 33.5209 7.53391C33.176 6.92669 32.7862 6.34947 32.4563 5.73476C32.2838 5.41241 32.1564 5.4274 31.864 5.61481C30.8068 6.31198 29.8172 7.09911 28.895 7.9612C27.0731 9.67789 25.7161 11.7169 24.674 13.9808C24.4865 14.3857 24.2016 14.693 23.7368 14.678C23.2794 14.6555 22.9945 14.3707 22.8521 13.9284C22.7321 13.5386 22.5597 13.1637 22.4097 12.7589C22.3423 12.8189 22.2898 12.8489 22.2598 12.8939C20.2205 15.8849 19.1484 19.1759 19.2833 22.8192C19.2983 23.2689 19.2383 23.6588 18.7885 23.8612C18.3611 24.0561 17.9863 23.9211 17.6564 23.6063C17.3565 23.3139 17.0266 23.0441 16.6742 22.7367C16.3668 24.3184 16.3068 25.8177 16.4793 27.3245C16.7117 29.3785 17.3115 31.3276 18.3386 33.1268C18.5486 33.4866 18.5186 33.8614 18.2412 34.1763C17.9638 34.4836 17.6114 34.5811 17.214 34.4162C16.8841 34.2812 16.5618 34.1388 16.1869 33.9814C16.2094 35.0609 16.4268 36.0429 16.7867 36.9949C17.3565 38.5017 18.2037 39.8586 19.2008 41.118C19.4483 41.4328 19.5682 41.7702 19.3658 42.16C19.1709 42.5348 18.8485 42.6847 18.4361 42.6847C18.3311 42.6847 18.2187 42.6248 18.0912 42.7747C20.183 44.7163 22.5747 45.8557 25.4912 45.8332C26.4059 45.8257 26.9757 45.5184 27.1781 44.6038C27.2231 44.4089 27.3056 44.199 27.4255 44.0416C27.6804 43.6818 27.508 43.5543 27.1856 43.3969C24.7714 42.19 22.5822 40.6757 20.7378 38.6966C20.0031 37.9095 19.3658 37.0474 18.781 36.1403C18.5111 35.7205 18.5336 35.3082 18.8935 34.9559C19.2308 34.6261 19.6282 34.6261 20.0331 34.8659C20.2355 34.9859 20.3405 35.1958 20.4604 35.3832C22.3273 38.2768 24.9963 40.2259 28.0028 41.7777C28.2427 41.9051 28.3852 41.9426 28.5201 41.6352C29.015 40.4808 29.5248 39.3263 30.0496 38.1869C30.1696 37.9245 30.1321 37.7896 29.8847 37.6471C27.3056 36.1328 25.1013 34.1763 23.152 31.9198C21.6 30.1132 20.198 28.2091 19.3358 25.9602C19.0959 25.3305 19.2458 24.8507 19.7632 24.6258C20.2505 24.4159 20.7378 24.6258 20.9777 25.2255C21.8624 27.4445 23.2644 29.3261 24.8464 31.0877C26.5033 32.9319 28.3402 34.5811 30.462 35.8855C30.8068 36.0954 30.9868 36.1628 31.1742 35.6906C31.6091 34.6111 32.0964 33.5541 32.5987 32.5046C32.7862 32.1222 32.7037 31.9123 32.3963 31.6575C29.0749 28.8913 26.5708 25.5254 24.9214 21.5298C24.3441 20.1429 23.9092 18.7036 23.4969 17.2568C23.3244 16.6496 23.5568 16.2073 24.0892 16.0424C24.5915 15.8849 25.0563 16.1548 25.2438 16.7395C25.2962 16.897 25.3337 17.0694 25.3712 17.2268C26.7133 22.2569 29.2624 26.5374 33.1985 29.9708C33.4759 30.2107 33.5884 30.2781 33.7608 29.8658C34.2557 28.6889 34.788 27.5269 35.3203 26.365C35.4402 26.1101 35.4328 25.9452 35.2228 25.7278C34.2482 24.7457 33.401 23.6663 32.6062 22.5418C30.6644 19.8056 29.5398 16.7021 28.6776 13.5011C28.5051 12.8489 28.7825 12.4066 29.3448 12.2717C29.8472 12.1517 30.3045 12.4591 30.447 13.0663C30.8593 14.7905 31.4741 16.4397 32.1639 18.0664C33.131 20.3453 34.563 22.3094 36.28 24.2135L36.2875 24.2435ZM35.2378 31.0353C38.3642 31.4626 41.3932 31.3276 44.4072 30.6379C46.6039 30.1357 48.6432 29.2436 50.66 28.2766C50.9299 28.1491 51.1923 27.9767 51.5072 28.0367C51.9421 28.1191 52.227 28.3815 52.2794 28.8238C52.3319 29.3186 52.0545 29.6034 51.6272 29.8283C46.349 32.587 40.7784 33.6815 34.8629 32.8269C34.5106 32.7744 34.4131 32.8944 34.3006 33.1643C33.8133 34.2812 33.3185 35.3982 32.8012 36.5077C32.6437 36.845 32.6737 36.95 33.0561 37.0624C35.1104 37.6621 37.2171 37.947 39.3464 38.0369C41.3257 38.1194 43.305 37.9995 45.2544 37.6096C46.0116 37.4597 46.7389 37.2048 47.4661 36.965C48.2608 36.7101 48.8831 37.2573 48.7182 38.0219C48.6207 38.4492 48.2908 38.6067 47.9234 38.7341C46.1016 39.3713 44.2197 39.6787 42.2929 39.7986C38.8891 40.016 35.5602 39.7012 32.2988 38.7266C31.9914 38.6367 31.849 38.6292 31.7065 38.9665C31.2267 40.106 30.7169 41.2379 30.1921 42.3624C30.0421 42.6772 30.1396 42.7597 30.4245 42.8647C33.6784 44.0941 37.0072 44.7238 40.486 44.1315C41.0333 44.0416 41.5057 44.3564 41.5806 44.8512C41.6631 45.376 41.3782 45.7883 40.8009 45.9007C39.1215 46.2081 37.4346 46.298 35.7326 46.0806C33.6409 45.8108 31.6016 45.301 29.6372 44.5139C29.3598 44.4014 29.2399 44.4314 29.1349 44.7088C28.955 45.1661 28.7675 45.6158 28.5426 46.0506C28.3777 46.3655 28.4377 46.5904 28.6401 46.8678C30.0346 48.8093 31.939 49.9638 34.2257 50.5335C34.9154 50.7059 35.6127 50.8709 36.4299 50.8634C36.3099 50.7209 36.2575 50.6685 36.2125 50.616C35.9051 50.3011 35.6952 49.9638 35.9051 49.5065C36.1075 49.0642 36.4674 48.9668 36.9172 48.9368C38.1018 48.8618 39.2714 48.6744 40.411 48.3371C41.7531 47.9398 43.0126 47.3775 44.0998 46.388C43.7624 46.2381 43.4775 46.1106 43.1851 45.9757C42.7727 45.7808 42.5328 45.4584 42.6003 44.9861C42.6603 44.5364 42.9677 44.289 43.3875 44.2065C45.2394 43.8242 46.9113 43.0371 48.4857 42.0101C49.9028 41.088 51.1098 39.9485 52.122 38.5692C51.6422 38.3443 51.1548 38.4492 50.6975 38.3518C50.2851 38.2618 50.0152 38.0519 49.9178 37.6396C49.8278 37.2423 49.9852 36.935 50.2926 36.7026C51.1623 36.0279 51.9046 35.2333 52.6018 34.3787C54.2213 32.3921 55.2409 30.1282 55.8332 27.5794C55.4284 27.7368 55.0835 27.8568 54.7386 28.0067C54.2962 28.2016 53.8614 28.2916 53.4865 27.9092C53.1117 27.5269 53.2016 27.0846 53.3966 26.6498C53.7339 25.9152 53.9814 25.1506 54.2288 24.3784C55.091 21.6347 55.1959 18.831 54.8286 15.9974C54.7761 15.5701 54.6711 15.3377 54.1313 15.5026C53.4715 15.705 52.7743 15.81 52.0845 15.8924C51.2823 15.9899 50.8249 15.3902 51.1173 14.648C51.5672 13.5236 51.5372 12.3541 51.3797 11.1922C51.1173 9.27308 50.3901 7.50392 49.5804 5.76474C49.108 4.74523 48.5832 3.7557 47.8935 2.76617C46.6489 5.54735 45.4418 8.26106 44.2122 11.0123C44.4671 11.0422 44.6396 10.9148 44.8195 10.8323C45.7867 10.3676 46.7463 9.89529 47.7135 9.438C48.2608 9.17563 48.8006 9.34055 49.0256 9.81283C49.243 10.2626 49.0556 10.7799 48.5457 11.0422C46.9263 11.8743 45.3068 12.7065 43.5749 13.2912C43.2675 13.3961 43.0801 13.5536 42.9452 13.8534C42.3229 15.2852 41.6706 16.7021 41.0483 18.1264C40.9958 18.2463 40.8384 18.3663 40.9808 18.5462C41.7531 18.4187 42.5028 18.2013 43.2601 17.9839C45.2019 17.4217 46.9788 16.4922 48.7781 15.6001C49.3255 15.3302 49.8353 15.4726 50.0827 15.9524C50.3301 16.4172 50.1727 16.897 49.6479 17.1818C46.7239 18.7561 43.6799 20.008 40.3735 20.5327C40.0811 20.5777 39.9012 20.6677 39.7813 20.9525C39.2489 22.1745 38.7091 23.3964 38.1543 24.6033C38.0119 24.9182 38.0269 25.0231 38.4092 25.0156C41.2807 24.9931 44.0548 24.5283 46.7239 23.4414C47.9234 22.9541 49.1155 22.4443 50.2701 21.8446C50.75 21.5897 51.2523 21.7397 51.4997 22.1595C51.7621 22.6018 51.6122 23.119 51.1473 23.4264C51.0499 23.4863 50.9524 23.5388 50.8549 23.5913C46.6714 25.7428 42.2854 27.0397 37.5245 26.8223C37.2846 26.8148 37.1497 26.8597 37.0447 27.0996C36.4749 28.404 35.8826 29.7084 35.2678 31.0802L35.2378 31.0353Z" fill="#1ECAD3"/>
<path d="M34.4056 53.637C34.8254 54.2892 34.7954 54.6266 34.2556 55.1663C33.1535 56.2608 31.9014 57.1304 30.4919 57.7826C30.3645 57.8425 30.1995 57.8425 30.1246 58H29.4423C28.8125 57.6326 28.73 57.0929 29.0299 56.3732C27.9803 56.6731 27.0131 56.943 26.016 57.0404C24.5915 57.1829 23.1969 57.0704 21.8549 56.5307C21.4875 56.3807 21.1352 56.1708 21.1052 55.766C21.0752 55.3612 20.9177 55.3462 20.5878 55.3687C17.6713 55.5861 14.8973 55.0614 12.2807 53.742C10.8787 53.0373 10.8187 52.4976 12.0558 51.4781C10.9762 51.0732 9.94151 50.6235 8.95935 50.0537C6.97254 48.8993 5.36809 47.31 3.92859 45.5559C3.38127 44.8887 3.71866 44.1091 4.57336 43.9741C4.73831 43.9516 4.90325 43.9441 5.11318 43.9291C4.99322 43.6368 4.7683 43.4943 4.59586 43.3144C2.4441 41.0955 0.959611 38.4942 0.0824131 35.5406C-0.165002 34.7085 0.0374286 34.3562 0.854647 34.1013C1.267 33.9739 1.8668 33.9514 2.03174 33.674C2.21918 33.3517 1.70185 32.9618 1.51442 32.587C0.764678 31.0877 0.434792 29.4685 0.217367 27.8268C-0.0225507 26.0051 -0.11252 24.1835 0.0974079 22.3544C0.134895 22.002 0.172382 21.6422 0.224864 21.2899C0.292341 20.8626 0.569745 20.6002 0.959611 20.4278C2.78148 19.6407 4.67083 19.1159 6.62766 18.8161C8.05966 18.5987 9.49916 18.4262 10.9612 18.5762C11.561 18.6361 12.1532 18.7411 12.7305 18.9135C13.5703 19.1684 13.7127 19.3708 13.6602 20.2554C13.3153 20.7951 12.843 20.9375 12.2507 20.7201C11.7709 20.5402 11.2611 20.4428 10.7587 20.4203C8.13464 20.2854 5.60051 20.7726 3.0214 21.6122C5.0457 23.1565 7.00253 24.6483 9.04182 26.2C8.79441 25.1131 8.55449 24.1385 8.35206 23.149C8.21711 22.5043 8.47202 22.062 9.02683 21.9046C9.49167 21.7771 10.0165 22.0695 10.1514 22.6093C10.5338 24.161 10.9162 25.7128 11.0736 27.3095C11.1036 27.6394 11.2086 27.8643 11.471 28.0592C12.2582 28.6439 13.0379 29.2361 13.8102 29.8358C14.395 30.2931 14.4999 30.7654 14.1476 31.2377C13.7952 31.7249 13.2554 31.7549 12.6631 31.3126C11.8758 30.7279 11.0961 30.1357 10.3239 29.5285C10.099 29.3486 9.89653 29.2961 9.60413 29.3411C8.02217 29.5884 6.41773 29.6934 4.81328 29.7009C4.16101 29.7009 3.76364 29.3411 3.76364 28.7788C3.76364 28.2316 4.13102 27.8793 4.7533 27.8493C5.56302 27.8118 6.37274 27.7818 7.18246 27.7368C7.3699 27.7293 7.57983 27.7668 7.78226 27.5944C5.81793 26.0951 3.8911 24.6333 1.91178 23.119C1.75434 25.1955 1.91178 27.1596 2.30914 29.1087C2.64653 30.7729 3.20883 32.3246 4.55837 33.4941C5.07569 33.9439 4.85077 34.7385 4.176 34.9934C3.70366 35.1733 3.20883 35.3082 2.729 35.4582C2.27916 35.6031 2.1392 35.9029 2.30914 36.3577C3.44875 39.2963 5.26313 41.7252 7.74477 43.6518C8.11964 43.9441 8.43453 44.2515 8.29208 44.7837C8.13464 45.3685 7.67729 45.4959 7.16747 45.5409C6.96504 45.5559 6.74761 45.5034 6.57517 45.6683C6.60516 45.8332 6.74761 45.9157 6.84508 46.0206C8.91437 48.1796 11.4185 49.5515 14.35 50.1362C14.8148 50.2262 15.1072 50.4436 15.2047 50.9083C15.3022 51.3581 15.0697 51.658 14.7324 51.9129C14.4999 52.0928 14.215 52.2052 14.0201 52.4751C14.1401 52.5351 14.2375 52.5875 14.3425 52.625C17.139 53.712 19.9805 53.8619 22.8745 53.0673C23.3319 52.9399 23.7068 53.0148 23.9767 53.3972C24.2466 53.772 24.2016 54.1693 23.9467 54.5516C23.8267 54.7315 23.6168 54.859 23.6018 55.1288C24.1866 55.1888 24.7639 55.2863 25.3487 55.2338C26.9007 55.0988 28.3777 54.6865 29.7872 54.0343C30.1695 53.8544 30.5444 53.682 30.9643 53.9444C31.3766 54.2068 31.4591 54.5966 31.3841 55.1138C32.0064 54.694 32.5012 54.2667 32.9736 53.802C33.4609 53.3297 33.7683 53.2997 34.3831 53.6295L34.4056 53.637Z" fill="#1ECAD3"/>
<path d="M34.4056 53.6371C33.7833 53.3072 33.4759 53.3372 32.9961 53.8095C32.5237 54.2668 32.0289 54.7016 31.4066 55.1214C31.4816 54.6041 31.3991 54.2143 30.9868 53.9519C30.5744 53.6895 30.192 53.862 29.8097 54.0419C28.4002 54.6941 26.9232 55.1064 25.3712 55.2413C24.7864 55.2938 24.2091 55.1963 23.6243 55.1364C23.6318 54.8665 23.8492 54.739 23.9692 54.5591C24.2316 54.1693 24.2691 53.7795 23.9992 53.4047C23.7293 53.0299 23.3544 52.9549 22.8971 53.0748C20.0106 53.8695 17.1615 53.727 14.365 52.6325C14.2675 52.5951 14.1701 52.5426 14.0426 52.4826C14.2375 52.2127 14.5225 52.1003 14.7549 51.9204C15.0923 51.6655 15.3247 51.3656 15.2272 50.9159C15.1297 50.4586 14.8298 50.2412 14.3725 50.1437C11.441 49.559 8.93688 48.1797 6.86759 46.0282C6.76263 45.9232 6.62767 45.8408 6.59768 45.6758C6.77012 45.5184 6.98755 45.5709 7.18998 45.5484C7.7073 45.5034 8.16464 45.3685 8.31459 44.7913C8.45704 44.259 8.14215 43.9517 7.76728 43.6593C5.28564 41.7252 3.46377 39.2964 2.33166 36.3653C2.15672 35.9105 2.29667 35.6106 2.75151 35.4657C3.23135 35.3158 3.72617 35.1808 4.19851 35.0009C4.87328 34.746 5.0982 33.9514 4.58088 33.5016C3.23884 32.3322 2.67654 30.7804 2.33166 29.1162C1.93429 27.1746 1.77685 25.203 1.93429 23.1265C3.91361 24.6333 5.84045 26.1026 7.80477 27.6019C7.60234 27.7743 7.39241 27.7294 7.20497 27.7443C6.39525 27.7893 5.58553 27.8193 4.77581 27.8568C4.16102 27.8868 3.78615 28.2391 3.78615 28.7864C3.78615 29.3486 4.19101 29.7084 4.83579 29.7084C6.44024 29.7084 8.03719 29.596 9.62664 29.3486C9.91154 29.3036 10.1215 29.3561 10.3464 29.536C11.1186 30.1432 11.8984 30.7354 12.6856 31.3201C13.2779 31.7624 13.8177 31.7325 14.1701 31.2452C14.515 30.7729 14.4175 30.3006 13.8327 29.8433C13.0605 29.2436 12.2807 28.6439 11.4935 28.0667C11.2311 27.8718 11.1261 27.6469 11.0961 27.317C10.9387 25.7203 10.5563 24.1685 10.174 22.6168C10.039 22.077 9.52168 21.7847 9.04934 21.9121C8.50203 22.0695 8.23962 22.5043 8.37457 23.1565C8.5845 24.1386 8.81692 25.1206 9.06433 26.2076C7.02504 24.6483 5.06821 23.1565 3.04391 21.6197C5.62302 20.7801 8.15715 20.2929 10.7812 20.4278C11.2836 20.4503 11.7934 20.5478 12.2732 20.7277C12.8655 20.9451 13.3379 20.8026 13.6827 20.2629C13.8102 20.3379 13.9452 20.4053 14.1176 20.5028C14.2525 19.6332 14.26 18.7936 14.245 17.9615C14.245 17.5267 14.3875 17.4142 14.7999 17.4367C15.872 17.4892 16.9291 17.6766 17.9863 17.8191C17.7238 18.8011 17.5814 19.7981 17.4614 20.8401C17.184 20.7951 17.0566 20.5927 16.8991 20.4578C16.1794 19.8431 15.4221 20.0605 15.1747 20.9676C14.2675 24.3634 14.32 27.7443 15.4296 31.0878C15.5421 31.4326 15.7295 31.7025 15.1447 31.7924C14.7174 31.8599 14.5524 32.2572 14.4775 32.677C14.0876 35.0534 14.7474 37.2199 15.8195 39.3039C16.0444 39.7312 16.2918 40.151 16.5318 40.5858C16.3068 40.7132 16.0969 40.6457 15.902 40.6382C15.4821 40.6232 15.1597 40.7882 14.9648 41.148C14.7474 41.5453 14.8673 41.9051 15.1297 42.25C16.1569 43.5993 17.364 44.7613 18.7885 45.6833C21.0902 47.1676 23.5793 47.9323 26.3459 47.5949C26.7207 47.55 26.9532 47.6549 27.1856 47.9698C29.1499 50.6685 31.8715 52.0778 35.1178 52.5801C34.8779 52.9324 34.638 53.2772 34.3981 53.6296L34.4056 53.6371ZM7.54236 34.9334C8.37457 34.9559 9.19929 34.836 10.024 34.7685C10.9387 34.6861 11.8459 34.4986 12.7531 34.3187C13.3004 34.2138 13.6453 33.7265 13.5628 33.2617C13.4653 32.692 13.038 32.4146 12.3857 32.4896C12.2582 32.5046 12.1233 32.5346 11.9958 32.5571C11.4035 32.6545 10.8112 32.7745 10.2189 32.8419C9.00435 32.9919 7.77478 33.0443 6.5527 33.0743C5.9829 33.0893 5.54805 33.5241 5.55554 34.0264C5.57054 34.5511 5.9829 34.9259 6.58269 34.9334C6.90508 34.9334 7.22747 34.9334 7.54236 34.9334ZM8.5695 40.4433C9.03434 40.4133 9.54417 40.3834 10.0465 40.3384C11.2611 40.2334 12.4757 40.076 13.6677 39.8436C14.275 39.7237 14.6124 39.2139 14.4925 38.6966C14.365 38.1719 13.8777 37.9095 13.2629 38.0145C12.6706 38.1119 12.0783 38.1869 11.486 38.2843C10.4064 38.4568 9.31925 38.5167 8.23212 38.5392C7.54986 38.5542 7.13 38.944 7.1375 39.4988C7.1375 40.0535 7.58734 40.4283 8.25461 40.4433C8.35208 40.4433 8.44205 40.4433 8.577 40.4433H8.5695ZM16.8541 51.0208C18.3161 50.8334 19.7931 50.4211 21.2026 49.7689C21.8249 49.4765 22.0723 48.9968 21.8624 48.472C21.6525 47.9623 21.0977 47.7748 20.4754 48.0447C19.5457 48.4495 18.5935 48.7944 17.5889 48.9968C17.259 49.0642 16.9216 49.1017 16.5917 49.1767C16.0669 49.3041 15.797 49.6939 15.8495 50.2187C15.8945 50.691 16.2693 51.0133 16.8616 51.0208H16.8541ZM10.5788 45.6459C11.2161 45.6084 11.8609 45.5784 12.4981 45.5259C13.1129 45.4734 13.7352 45.3985 14.35 45.3085C14.9498 45.2186 15.2872 44.8138 15.2347 44.2665C15.1897 43.7792 14.7699 43.3594 14.275 43.4269C12.8955 43.6218 11.501 43.6743 10.1215 43.8092C9.64163 43.8542 9.37173 44.1691 9.30425 44.6113C9.24427 45.0237 9.4617 45.331 9.81408 45.5409C10.054 45.6833 10.3239 45.6608 10.5863 45.6459H10.5788ZM28.895 51.598C28.895 50.8934 28.2427 50.4286 27.6204 50.676C26.8707 50.9833 26.1359 51.3282 25.4162 51.688C24.9664 51.9129 24.8014 52.4076 24.9813 52.8424C25.1763 53.3147 25.6411 53.5471 26.1284 53.3897C26.9307 53.1273 27.6954 52.76 28.4302 52.3402C28.73 52.1678 28.865 51.8829 28.895 51.6055V51.598Z" fill="#C1E1E9"/>
<path d="M36.2874 24.2435C34.5705 22.3394 33.1385 20.3753 32.1713 18.0964C31.4816 16.4697 30.8668 14.8205 30.4544 13.0963C30.312 12.4966 29.8471 12.1817 29.3523 12.3016C28.79 12.4366 28.5126 12.8789 28.685 13.5311C29.5547 16.7395 30.6718 19.8356 32.6137 22.5718C33.4084 23.6962 34.2631 24.7832 35.2303 25.7578C35.4402 25.9752 35.4477 26.1401 35.3277 26.395C34.7954 27.5569 34.2631 28.7189 33.7683 29.8958C33.5958 30.3006 33.4834 30.2406 33.206 30.0008C29.2623 26.5674 26.7207 22.2869 25.3787 17.2568C25.3337 17.0919 25.3037 16.927 25.2512 16.7695C25.0563 16.1848 24.5989 15.9074 24.0966 16.0724C23.5643 16.2448 23.3319 16.6796 23.5043 17.2868C23.9167 18.7336 24.3515 20.1654 24.9288 21.5598C26.5783 25.5554 29.0899 28.9213 32.4037 31.6875C32.7111 31.9423 32.7936 32.1522 32.6062 32.5346C32.1039 33.5841 31.609 34.6411 31.1817 35.7205C30.9942 36.1928 30.8068 36.1254 30.4694 35.9155C28.3476 34.6036 26.5108 32.9619 24.8539 31.1177C23.2794 29.3561 21.8774 27.4745 20.9852 25.2555C20.7453 24.6558 20.2579 24.4459 19.7706 24.6558C19.2533 24.8732 19.1033 25.3605 19.3432 25.9902C20.2055 28.2391 21.6 30.1432 23.1594 31.9498C25.1088 34.2063 27.3055 36.1703 29.8921 37.6771C30.1395 37.8195 30.177 37.9545 30.0571 38.2169C29.5322 39.3563 29.0224 40.5108 28.5276 41.6652C28.3926 41.9726 28.2502 41.9351 28.0103 41.8077C25.0038 40.2484 22.3422 38.3068 20.4679 35.4132C20.3479 35.2258 20.2429 35.0159 20.0405 34.8959C19.6356 34.656 19.2383 34.656 18.9009 34.9859C18.541 35.3307 18.5185 35.7505 18.7884 36.1703C19.3732 37.0774 20.0105 37.9395 20.7453 38.7266C22.5971 40.7057 24.7864 42.22 27.193 43.4269C27.5154 43.5843 27.6879 43.7193 27.433 44.0716C27.313 44.2365 27.2305 44.4389 27.1855 44.6338C26.9831 45.5484 26.4058 45.8557 25.4986 45.8632C22.5896 45.8857 20.1905 44.7463 18.0987 42.8047C18.2261 42.6548 18.3461 42.7147 18.4436 42.7147C18.8559 42.7147 19.1708 42.5723 19.3732 42.19C19.5757 41.8002 19.4632 41.4628 19.2083 41.148C18.2111 39.8886 17.3639 38.5392 16.7941 37.0249C16.4343 36.0729 16.2168 35.0908 16.1943 34.0114C16.5692 34.1688 16.8991 34.3112 17.2215 34.4461C17.6188 34.6111 17.9712 34.5136 18.2486 34.2063C18.526 33.8914 18.556 33.5166 18.3461 33.1568C17.3189 31.3501 16.7192 29.4085 16.4867 27.3545C16.3143 25.8477 16.3743 24.3409 16.6817 22.7667C17.034 23.074 17.3564 23.3439 17.6638 23.6363C17.9937 23.9511 18.3686 24.0861 18.7959 23.8912C19.2383 23.6887 19.3058 23.2989 19.2908 22.8491C19.1558 19.2059 20.2204 15.9149 22.2672 12.9239C22.2972 12.8789 22.3497 12.8489 22.4172 12.7889C22.5746 13.1862 22.7396 13.5685 22.8595 13.9584C23.002 14.4081 23.2869 14.693 23.7442 14.708C24.2091 14.7305 24.494 14.4231 24.6814 14.0108C25.7161 11.7469 27.0731 9.70788 28.9025 7.99119C29.8246 7.1216 30.8143 6.34197 31.8714 5.6448C32.1563 5.45739 32.2838 5.4424 32.4637 5.76475C32.7936 6.37945 33.1835 6.95668 33.5284 7.56389C33.7308 7.92372 34.0157 8.16361 34.4205 8.14112C34.8254 8.11863 35.0653 7.85625 35.2603 7.48893C36.0175 6.0721 37.2696 5.16503 38.6566 4.44537C40.8908 3.28342 43.275 2.56376 45.7341 2.07649C45.8616 2.05401 45.9891 2.0615 46.214 2.04651C44.9769 4.82019 43.7698 7.52641 42.5552 10.2401C42.5103 10.2401 42.4653 10.2401 42.4203 10.2401C42.1054 9.15314 41.783 8.06615 41.4681 6.97917C41.4156 6.79926 41.3856 6.61184 41.3107 6.43943C41.1232 5.97465 40.6659 5.75725 40.2161 5.89968C39.7212 6.05711 39.4588 6.4919 39.5938 7.00166C40.0886 8.8083 40.5534 10.6299 41.3107 12.3541C41.3931 12.5415 41.4606 12.7065 41.3557 12.9313C40.6284 14.5356 39.9087 16.1473 39.1589 17.8415C38.3342 16.4547 37.6594 15.0753 37.1571 13.6135C36.7597 12.4591 36.4224 11.2896 36.1225 10.1052C36.025 9.71537 35.8675 9.34055 35.4327 9.22061C34.7055 9.0182 34.1356 9.59543 34.3231 10.3676C35.0728 13.5086 36.13 16.5296 37.8993 19.2583C38.1917 19.7156 38.1992 20.068 37.9743 20.5402C37.397 21.7397 36.8797 22.9616 36.2949 24.2735L36.2874 24.2435Z" fill="#F9FFFF"/>
<path d="M35.2379 31.0353C35.8527 29.6634 36.445 28.3665 37.0148 27.0547C37.1198 26.8148 37.2547 26.7698 37.4946 26.7773C42.248 26.9947 46.6415 25.7053 50.825 23.5463C50.9225 23.4938 51.0275 23.4414 51.1174 23.3814C51.5898 23.074 51.7322 22.5568 51.4698 22.1145C51.2224 21.7022 50.7201 21.5448 50.2402 21.7996C49.0931 22.4069 47.9011 22.9091 46.694 23.3964C44.0249 24.4834 41.2433 24.9556 38.3793 24.9706C37.997 24.9706 37.982 24.8657 38.1244 24.5583C38.6792 23.3439 39.219 22.1295 39.7514 20.9076C39.8713 20.6302 40.0513 20.5327 40.3437 20.4878C43.65 19.9705 46.694 18.7111 49.618 17.1369C50.1428 16.852 50.3002 16.3722 50.0528 15.9074C49.8054 15.4277 49.2956 15.2777 48.7483 15.5551C46.9489 16.4472 45.172 17.3842 43.2302 17.939C42.4729 18.1564 41.7232 18.3738 40.951 18.5012C40.8085 18.3213 40.9659 18.1939 41.0184 18.0814C41.6482 16.6571 42.293 15.2403 42.9153 13.8084C43.0502 13.5011 43.2377 13.3437 43.5451 13.2462C45.277 12.6615 46.8964 11.8294 48.5158 10.9973C49.0257 10.7349 49.2056 10.2251 48.9957 9.76785C48.7708 9.29557 48.2309 9.13815 47.6836 9.39303C46.7165 9.85031 45.7568 10.3226 44.7896 10.7874C44.6097 10.8773 44.4372 10.9973 44.1823 10.9673C45.4119 8.22358 46.619 5.50987 47.8636 2.72119C48.5533 3.71072 49.0781 4.70025 49.5505 5.71977C50.3602 7.45894 51.0875 9.2356 51.3499 11.1472C51.5073 12.3091 51.5373 13.4711 51.0875 14.6031C50.7876 15.3452 51.2449 15.9449 52.0546 15.8475C52.7444 15.765 53.4416 15.6601 54.1014 15.4577C54.6412 15.2927 54.7462 15.5251 54.7987 15.9524C55.166 18.7861 55.0611 21.5897 54.1989 24.3334C53.959 25.1056 53.7041 25.8702 53.3667 26.6049C53.1717 27.0397 53.0743 27.4819 53.4566 27.8643C53.8315 28.2466 54.2739 28.1566 54.7087 27.9617C55.0461 27.8118 55.3985 27.6918 55.8033 27.5344C55.211 30.0832 54.1914 32.3471 52.5719 34.3337C51.8822 35.1883 51.1324 35.9829 50.2627 36.6576C49.9628 36.89 49.7979 37.1973 49.8879 37.5947C49.9853 38.007 50.2552 38.2169 50.6676 38.3068C51.1249 38.4118 51.6123 38.3068 52.0921 38.5242C51.08 39.9036 49.8654 41.043 48.4559 41.9651C46.8889 42.9921 45.2095 43.7792 43.3576 44.1615C42.9378 44.2515 42.6379 44.4914 42.5704 44.9412C42.5029 45.4134 42.7428 45.7358 43.1552 45.9307C43.4401 46.0656 43.7325 46.1931 44.0699 46.343C42.9827 47.3325 41.7157 47.8873 40.3811 48.2921C39.2415 48.6294 38.0719 48.8168 36.8874 48.8918C36.4375 48.9218 36.0776 49.0192 35.8752 49.4615C35.6653 49.9188 35.8752 50.2561 36.1826 50.571C36.2351 50.6235 36.2801 50.676 36.4 50.8184C35.5828 50.8184 34.8855 50.661 34.1958 50.4885C31.9091 49.9188 30.0047 48.7644 28.6102 46.8228C28.4078 46.5454 28.3478 46.3205 28.5127 46.0057C28.7377 45.5709 28.9251 45.1211 29.105 44.6638C29.21 44.3864 29.33 44.3639 29.6074 44.4689C31.5717 45.256 33.6035 45.7658 35.7028 46.0357C37.3972 46.253 39.0916 46.1706 40.771 45.8557C41.3483 45.7508 41.6332 45.331 41.5507 44.8062C41.4758 44.3115 41.0034 43.9966 40.4561 44.0866C36.9698 44.6788 33.6485 44.0491 30.3946 42.8197C30.1022 42.7072 30.0122 42.6323 30.1622 42.3174C30.687 41.1929 31.1968 40.0685 31.6766 38.9215C31.8191 38.5917 31.9616 38.5917 32.2689 38.6816C35.5303 39.6562 38.8667 39.971 42.263 39.7536C44.1898 39.6262 46.0717 39.3263 47.8936 38.6891C48.2609 38.5617 48.5983 38.4043 48.6883 37.977C48.8532 37.2198 48.2309 36.6726 47.4362 36.92C46.7015 37.1524 45.9742 37.4147 45.2245 37.5647C43.2751 37.9545 41.2958 38.0819 39.3165 37.992C37.1872 37.902 35.0805 37.6171 33.0262 37.0174C32.6438 36.905 32.6138 36.8 32.7713 36.4627C33.2886 35.3607 33.7834 34.2437 34.2708 33.1193C34.3907 32.8494 34.4882 32.7295 34.8331 32.7819C40.7485 33.6365 46.3191 32.542 51.5973 29.7834C52.0246 29.5585 52.3095 29.2736 52.2496 28.7788C52.1971 28.3365 51.9197 28.0742 51.4773 27.9917C51.1549 27.9317 50.9 28.1042 50.6301 28.2316C48.6133 29.2061 46.574 30.0982 44.3773 30.593C41.3708 31.2752 38.3419 31.4101 35.2079 30.9903L35.2379 31.0353Z" fill="#F9FFFF"/>
<path d="M7.54233 34.9334C7.21994 34.9334 6.89755 34.9334 6.58266 34.9334C5.98287 34.9184 5.57051 34.5511 5.55552 34.0264C5.54802 33.5241 5.98287 33.0893 6.55267 33.0743C7.77475 33.0443 9.00433 32.9919 10.2189 32.8419C10.8187 32.767 11.4035 32.6545 11.9958 32.5571C12.1233 32.5346 12.2507 32.5046 12.3857 32.4896C13.0379 32.4071 13.4653 32.692 13.5628 33.2617C13.6377 33.7265 13.3003 34.2138 12.753 34.3187C11.8458 34.4986 10.9387 34.686 10.024 34.7685C9.19926 34.8435 8.37454 34.9634 7.54233 34.9334Z" fill="#1ECAD3"/>
<path d="M8.56963 40.4433C8.43468 40.4433 8.33721 40.4433 8.24724 40.4433C7.58747 40.4283 7.13762 40.046 7.13013 39.4987C7.13013 38.944 7.54998 38.5542 8.22475 38.5392C9.31937 38.5167 10.4065 38.4567 11.4786 38.2843C12.0709 38.1869 12.6707 38.1194 13.2555 38.0144C13.8703 37.9095 14.3576 38.1719 14.4851 38.6966C14.605 39.2139 14.2677 39.7236 13.6604 39.8436C12.4608 40.076 11.2537 40.2334 10.0391 40.3383C9.5368 40.3833 9.02697 40.4133 8.56213 40.4433H8.56963Z" fill="#1ECAD3"/>
<path d="M16.8543 51.0208C16.2695 51.0208 15.8946 50.691 15.8421 50.2187C15.7897 49.7015 16.0596 49.3041 16.5844 49.1767C16.9143 49.0942 17.2517 49.0643 17.5815 48.9968C18.5787 48.8019 19.5309 48.457 20.468 48.0447C21.0903 47.7749 21.6451 47.9623 21.8551 48.472C22.0725 48.9968 21.8251 49.4841 21.1953 49.7689C19.7858 50.4211 18.3088 50.8334 16.8468 51.0208H16.8543Z" fill="#1ECAD3"/>
<path d="M10.5788 45.6458C10.3164 45.6608 10.0465 45.6833 9.8066 45.5409C9.45423 45.331 9.2368 45.0236 9.29678 44.6113C9.36426 44.1615 9.63416 43.8542 10.114 43.8092C11.501 43.6743 12.888 43.6218 14.2676 43.4269C14.7624 43.3594 15.1822 43.7792 15.2272 44.2665C15.2797 44.8137 14.9423 45.2185 14.3425 45.3085C13.7278 45.3985 13.113 45.4734 12.4907 45.5259C11.8534 45.5859 11.2161 45.6084 10.5713 45.6458H10.5788Z" fill="#1ECAD3"/>
<path d="M28.8951 51.598C28.8651 51.8754 28.7301 52.1677 28.4302 52.3327C27.6955 52.7525 26.9308 53.1198 26.1285 53.3822C25.6412 53.5396 25.1764 53.3072 24.9814 52.8349C24.8015 52.4076 24.9664 51.9054 25.4163 51.6805C26.136 51.3206 26.8708 50.9758 27.6205 50.6684C28.2428 50.4136 28.8951 50.8858 28.8951 51.5905V51.598Z" fill="#1ECAD3"/>
</g>
<defs>
<clipPath id="clip0_69_380">
<rect width="58" height="58" fill="white"/>
</clipPath>
</defs>
</svg>
