<svg width="200" height="22" xmlns="http://www.w3.org/2000/svg" xml:space="preserve" fill-rule="evenodd" stroke-linejoin="round" stroke-miterlimit="2" clip-rule="evenodd" viewBox="0 0 200 22"><path d="M26.77 3.81c.05.28.07.57.06.85v12.69a4.55 4.55 0 0 1-4.5 4.47h-.04a4.49 4.49 0 0 1-4.47-4.46v-1.87l-.43.43a4.42 4.42 0 0 1-3.86 2.22h-.21a4.37 4.37 0 0 1-3.86-2.22L9 15.49v1.85a4.55 4.55 0 0 1-4.5 4.48h-.03A4.49 4.49 0 0 1 0 17.36V4.66c.03-.3.07-.6.16-.9.06-.26.12-.52.23-.78v-.07c.1-.24.22-.47.37-.69v-.09A5.42 5.42 0 0 1 2.07.88h.08A4.5 4.5 0 0 1 6.22.5l.43.23c.08.06.22.1.32.18.14.09.27.2.4.3l.26.22.08.06 5.72 5.68 5.77-5.7.07-.05.31-.25c.13-.1.24-.2.37-.27.15-.1.31-.19.48-.26L20.7.5a4.5 4.5 0 0 1 3.32 0h.05c.3.14.59.3.85.5H25c.45.3.85.7 1.16 1.17v.09c.15.22.27.45.38.69v.08c.1.25.18.52.23.78Zm-6.03-.74L15.02 8.8l1.7 1.64c.52.52.9 1.16 1.12 1.87l6.1-6.07c.43-.42.67-1 .67-1.6a2.29 2.29 0 0 0-3.87-1.58Zm-17.83 0a2.23 2.23 0 0 0 0 3.18l9.02 8.97c.42.42 1 .65 1.6.65h.03a2.24 2.24 0 0 0 1.58-3.84L6.1 3.08c-.9-.84-2.3-.84-3.2 0Zm3.86 14.26v-4.08L2.3 8.81v8.52a2.26 2.26 0 0 0 2.25 2.22h.01c1.22 0 2.22-1 2.22-2.21v-.01Zm15.57 2.22.04.03c1.2 0 2.2-1 2.2-2.2V8.81l-4.48 4.45v4.07a2.26 2.26 0 0 0 2.24 2.22Zm66.3-4.8h-2.48l-.93 1.93-.28.52c-.08.12-.2.23-.33.32a.93.93 0 0 1-.58.17 2.5 2.5 0 0 1-.97-.3c-.69-.34-1.1-.71-1.1-1.14.05-.32.15-.63.32-.9l4.86-9.94c.28-.58.87-.93 1.5-.89v5.2l-1.2 2.38h1.2v2.66ZM51.25 5c.1.15.14.3.18.48v10.47c0 .82-.24 1.3-.69 1.44a3.93 3.93 0 0 1-1.7.03 1.48 1.48 0 0 1-.47-.22.73.73 0 0 1-.26-.36c-.07-.3-.1-.61-.09-.92V9.94c-.29.36-.73.95-1.31 1.74l-1.1 1.51-.33.43c-.31.32-.74.5-1.19.51a1.5 1.5 0 0 1-.74-.2c-.2-.08-.35-.2-.49-.36l-.14-.2-1.43-1.88-1.13-1.56v5.99c.02.2.02.41 0 .61-.02.17-.08.32-.17.46-.18.31-.64.48-1.4.48-.76 0-1.19-.17-1.38-.48-.09-.15-.15-.3-.17-.47V6.07a5.1 5.1 0 0 1 0-.61c.02-.17.08-.34.17-.49.17-.3.65-.46 1.41-.46.29 0 .56.04.83.12.18.04.33.13.47.24l.1.1 4.1 5.3c2.05-2.66 3.45-4.4 4.1-5.29.39-.36.91-.52 1.43-.45.77 0 1.23.17 1.4.48V5Zm7.28 9.39h5.56c.21-.02.42-.02.63 0 .17.02.34.08.48.17.32.15.49.62.49 1.38 0 .76-.22 1.3-.67 1.46-.3.09-.62.12-.93.11h-7.12c-.85 0-1.33-.22-1.49-.67-.09-.3-.12-.61-.1-.91V6.07a1.7 1.7 0 0 1 .33-1.23c.37-.25.82-.35 1.26-.3h7.7c.17.02.33.08.48.17.32.16.49.62.49 1.38 0 .75-.23 1.3-.68 1.46-.3.1-.61.12-.93.1h-5.5v1.8h4.2c.18.03.34.08.5.17.3.17.47.63.47 1.38 0 .76-.23 1.32-.68 1.47-.3.08-.62.11-.93.1h-3.55v1.8l-.01.02Zm16.59-4.71h3.17c.65 0 1.04.19 1.2.49.12.32.18.66.16 1v3.9c-.01.42-.2.8-.5 1.09a6.07 6.07 0 0 1-4.55 1.54 6.4 6.4 0 0 1-4.67-1.99 6.65 6.65 0 0 1-1.96-4.83 6.15 6.15 0 0 1 2.01-4.72 6.75 6.75 0 0 1 8.8-.53 1 1 0 0 1 .5.8c-.04.37-.18.72-.43 1-.46.64-.9.96-1.28.96a2.9 2.9 0 0 1-1.1-.5 3.25 3.25 0 0 0-1.8-.48c-1.4-.02-2.69.8-3.27 2.08-.19.42-.28.89-.27 1.35-.02.99.38 1.93 1.1 2.61a3.38 3.38 0 0 0 2.45 1.08c.6.01 1.22-.1 1.79-.32v-1.94h-1.43c-.27.02-.55-.02-.79-.14a.68.68 0 0 1-.31-.42 3.1 3.1 0 0 1-.08-.74c0-.26.02-.51.08-.77.04-.16.14-.3.3-.39a2 2 0 0 1 .86-.15h.03l-.01.02Z"/><path fill="#f63f3f" fill-rule="nonzero" d="M107.41 7.13c.32.66.49 1.38.48 2.1a4.58 4.58 0 0 1-1.7 3.57 5.1 5.1 0 0 1-3.06 1.13h-2.27v2.64c-.04.17-.09.33-.18.47-.17.32-.64.48-1.4.48-.78 0-1.34-.22-1.5-.66-.08-.3-.1-.6-.1-.92V5.45c.03-.17.09-.34.17-.49.18-.29.64-.44 1.41-.44h3.87c1.12.01 2.2.4 3.08 1.09.52.4.92.9 1.21 1.48v.04Zm-18.76 7.58V12.1h1.21l-1.21-2.43V4.52c.62 0 1.18.36 1.44.92l4.9 9.9c.16.28.26.6.3.92 0 .42-.36.8-1.1 1.16-.3.17-.62.26-.96.3-.37 0-.7-.19-.91-.5-.07-.12-.17-.3-.28-.53l-.93-1.91-2.46-.07Zm14.48-3.92c.4 0 .8-.14 1.1-.39.35-.28.55-.71.52-1.17.04-.46-.15-.9-.52-1.2-.3-.25-.7-.39-1.1-.39h-2.27v3.15h2.27Zm7.8-6.27h10.03a2 2 0 0 1 .85.13c.17.09.3.24.36.43.07.24.1.5.09.74 0 .25-.02.5-.09.74a.6.6 0 0 1-.3.38c-.3.12-.62.17-.93.16h-3.45V16a3 3 0 0 1 0 .6 1.4 1.4 0 0 1-.16.45.75.75 0 0 1-.49.37c-.29.1-.6.12-.9.1-.3.02-.6-.02-.9-.1a.75.75 0 0 1-.46-.37 1.5 1.5 0 0 1-.17-.46 5.4 5.4 0 0 1 0-.62V7.05h-3.46c-.28.02-.58-.02-.85-.13a.68.68 0 0 1-.36-.41 3.09 3.09 0 0 1 0-1.49.6.6 0 0 1 .31-.37c.29-.1.58-.15.88-.13Zm17.58 9.9h6.19c.17.03.33.1.49.18.32.16.48.62.48 1.39 0 .75-.22 1.3-.67 1.45-.3.09-.62.12-.94.11h-7.14c-.84 0-1.33-.22-1.48-.67a2.8 2.8 0 0 1-.11-.91v-9.9c-.06-.44.06-.88.34-1.24.37-.25.84-.38 1.3-.32h7.73c.17.03.33.08.49.17.32.17.48.63.48 1.38 0 .77-.22 1.32-.67 1.48-.3.07-.62.1-.94.1h-5.49v1.8h4.2c.17.04.34.09.48.17.32.18.48.64.48 1.39 0 .76-.23 1.32-.67 1.47-.31.07-.63.11-.94.1h-3.55v1.8l-.06.07v-.01Zm16.62-3.4 3.4 3.91c.32.3.53.67.6 1.08 0 .3-.25.67-.72 1.08-.32.34-.74.56-1.2.63-.3 0-.67-.26-1.09-.76l-3.97-4.45v4.08c-.03.17-.09.32-.18.46-.16.32-.63.48-1.4.48-.78 0-1.33-.23-1.49-.67-.08-.3-.12-.6-.1-.9V5.44c.02-.17.08-.34.17-.49.17-.3.64-.47 1.4-.47.78 0 1.35.22 1.5.66.08.3.1.6.09.92v3.4c1.63-1.8 2.96-3.28 3.96-4.45.43-.49.8-.72 1.1-.72.46.07.88.28 1.19.6.48.42.73.78.73 1.1-.05.4-.24.78-.54 1.08l-3.45 3.94Zm14.36-5.58 4.87 9.9c.16.28.26.6.3.92 0 .42-.36.8-1.1 1.16-.29.17-.62.26-.95.3-.37 0-.71-.19-.91-.5-.07-.12-.18-.3-.29-.53l-.93-1.91h-5l-.94 1.9c-.12.24-.2.42-.27.52-.09.14-.2.24-.33.33a.93.93 0 0 1-.58.17 2.27 2.27 0 0 1-.97-.3c-.7-.33-1.1-.71-1.1-1.13.04-.33.15-.64.31-.91l4.87-9.94c.3-.6.93-.95 1.6-.9.62 0 1.2.35 1.44.92h-.02Zm-1.42 4.24-1.24 2.42h2.4l-1.16-2.42Zm13.12 4.42c.3.42.43.94.36 1.45v.83c-.04.2-.11.39-.23.57-.21.4-.73.6-1.59.6a2.54 2.54 0 0 1-1.68-.38 2.06 2.06 0 0 1-.4-1.5v-.09a6.16 6.16 0 0 1 0-.72c.03-.2.1-.39.2-.56.2-.42.73-.62 1.59-.62.62-.07 1.24.08 1.75.43v-.01Zm13.63 1.25c.15.28.24.6.28.91 0 .46-.38.83-1.1 1.14-.3.15-.6.22-.94.26a.95.95 0 0 1-.58-.17c-.13-.1-.25-.22-.33-.35a86.8 86.8 0 0 1-1.4-3.26h-2.9v2.02a3 3 0 0 1 0 .6 1.3 1.3 0 0 1-.17.5c-.17.3-.64.47-1.41.47-.76 0-1.33-.22-1.47-.66-.09-.3-.13-.6-.13-.93V5.46c.04-.17.1-.34.18-.49.17-.3.64-.47 1.41-.47h3.9c1.14 0 2.25.4 3.12 1.12a4.67 4.67 0 0 1 1.64 3.63 4.37 4.37 0 0 1-1.35 3.28c.26.64.68 1.56 1.23 2.8l.02.03v-.01Zm-6.97-4.56h2.31c.4 0 .78-.14 1.1-.39.36-.28.55-.72.52-1.17.04-.45-.16-.9-.52-1.18a1.8 1.8 0 0 0-1.1-.4h-2.3v3.14Zm18.93-5.82a.9.9 0 0 1 .52-.39 3.55 3.55 0 0 1 1.69-.01c.17.04.33.11.46.21.12.1.2.23.24.37.08.3.12.6.11.92v5.41a6.8 6.8 0 0 1-1.49 4.26 5.26 5.26 0 0 1-4.28 2 5.5 5.5 0 0 1-4.35-2.07 6.82 6.82 0 0 1-1.46-4.26V6.06a3.31 3.31 0 0 1 0-.63c.02-.17.08-.33.17-.47a.8.8 0 0 1 .48-.38 4.44 4.44 0 0 1 1.85 0c.2.06.37.2.47.38.16.34.23.7.22 1.08v5.33c0 .73.2 1.44.55 2.07.18.34.46.62.81.8.4.2.84.31 1.28.3.78.05 1.52-.31 1.97-.95.43-.67.66-1.44.65-2.23v-5.4a1.9 1.9 0 0 1 .15-.99h-.04Z"/></svg>